<svg width="878" height="656" viewBox="0 0 878 656" fill="none" xmlns="http://www.w3.org/2000/svg">
<g filter="url(#filter0_d_7495_4427)">
<rect x="580" width="82" height="120" rx="11" fill="#4284D8"/>
<circle cx="621" cy="61" r="10" fill="white"/>
<path d="M620.387 58.46C620.387 58.7867 620.317 59.07 620.177 59.31C620.044 59.55 619.861 59.7467 619.627 59.9C619.401 60.0533 619.141 60.1667 618.847 60.24V60.27C619.421 60.3367 619.854 60.51 620.147 60.79C620.447 61.07 620.597 61.4467 620.597 61.92C620.597 62.3333 620.494 62.7067 620.287 63.04C620.087 63.3667 619.774 63.6267 619.347 63.82C618.927 64.0067 618.384 64.1 617.717 64.1C617.324 64.1 616.957 64.0667 616.617 64C616.277 63.9333 615.957 63.8367 615.657 63.71V62.43C615.964 62.5833 616.284 62.7 616.617 62.78C616.957 62.86 617.271 62.9 617.557 62.9C618.097 62.9 618.474 62.8067 618.687 62.62C618.907 62.4333 619.017 62.17 619.017 61.83C619.017 61.63 618.967 61.4633 618.867 61.33C618.767 61.19 618.591 61.0867 618.337 61.02C618.091 60.9467 617.744 60.91 617.297 60.91H616.757V59.75H617.307C617.747 59.75 618.081 59.71 618.307 59.63C618.541 59.5433 618.697 59.43 618.777 59.29C618.864 59.1433 618.907 58.9767 618.907 58.79C618.907 58.5367 618.827 58.34 618.667 58.2C618.514 58.0533 618.254 57.98 617.887 57.98C617.661 57.98 617.454 58.01 617.267 58.07C617.081 58.1233 616.911 58.19 616.757 58.27C616.611 58.35 616.481 58.4267 616.367 58.5L615.667 57.46C615.854 57.3267 616.061 57.2067 616.287 57.1C616.521 56.9933 616.777 56.91 617.057 56.85C617.337 56.79 617.651 56.76 617.997 56.76C618.731 56.76 619.311 56.91 619.737 57.21C620.171 57.5033 620.387 57.92 620.387 58.46ZM626.55 62.52H625.69V64H624.22V62.52H621.17V61.47L624.3 56.86H625.69V61.35H626.55V62.52ZM624.22 60.14C624.22 60.0267 624.22 59.8933 624.22 59.74C624.227 59.58 624.233 59.4233 624.24 59.27C624.247 59.11 624.253 58.97 624.26 58.85C624.267 58.7233 624.273 58.6367 624.28 58.59H624.24C624.18 58.7233 624.117 58.8533 624.05 58.98C623.983 59.1067 623.903 59.2367 623.81 59.37L622.5 61.35H624.22V60.14Z" fill="#4284D8"/>
</g>
<rect x="41" y="249" width="25" height="50" rx="2" fill="#4284D8"/>
<circle cx="53.5" cy="274.5" r="7.5" fill="white"/>
<path d="M51.9073 278H50.3973V273.87C50.3973 273.757 50.3973 273.617 50.3973 273.45C50.404 273.283 50.4107 273.11 50.4173 272.93C50.424 272.75 50.4307 272.59 50.4373 272.45C50.404 272.49 50.3307 272.563 50.2173 272.67C50.1107 272.77 50.0107 272.86 49.9173 272.94L49.0973 273.6L48.3673 272.69L50.6673 270.86H51.9073V278ZM56.5 273.44C56.9333 273.44 57.32 273.523 57.66 273.69C58 273.857 58.2667 274.1 58.46 274.42C58.66 274.74 58.76 275.137 58.76 275.61C58.76 276.123 58.6533 276.567 58.44 276.94C58.2267 277.313 57.9067 277.6 57.48 277.8C57.06 278 56.5367 278.1 55.91 278.1C55.5367 278.1 55.1833 278.067 54.85 278C54.5233 277.933 54.2367 277.837 53.99 277.71V276.41C54.2367 276.537 54.5333 276.647 54.88 276.74C55.2267 276.827 55.5533 276.87 55.86 276.87C56.16 276.87 56.41 276.83 56.61 276.75C56.8167 276.67 56.9733 276.547 57.08 276.38C57.1867 276.213 57.24 276 57.24 275.74C57.24 275.387 57.1233 275.12 56.89 274.94C56.6567 274.753 56.2967 274.66 55.81 274.66C55.6233 274.66 55.43 274.68 55.23 274.72C55.03 274.753 54.8633 274.787 54.73 274.82L54.13 274.5L54.4 270.86H58.27V272.14H55.72L55.59 273.54C55.7033 273.52 55.8233 273.5 55.95 273.48C56.0833 273.453 56.2667 273.44 56.5 273.44Z" fill="#4284D8"/>
<rect x="41" y="304" width="25" height="50" rx="2" fill="#4284D8"/>
<circle cx="53.5" cy="329.5" r="7.5" fill="white"/>
<path d="M51.6847 333H50.1747V328.87C50.1747 328.757 50.1747 328.617 50.1747 328.45C50.1814 328.283 50.188 328.11 50.1947 327.93C50.2014 327.75 50.208 327.59 50.2147 327.45C50.1814 327.49 50.108 327.563 49.9947 327.67C49.888 327.77 49.788 327.86 49.6947 327.94L48.8747 328.6L48.1447 327.69L50.4447 325.86H51.6847V333ZM53.6273 329.97C53.6273 329.557 53.6573 329.15 53.7173 328.75C53.7773 328.35 53.8807 327.973 54.0273 327.62C54.1807 327.26 54.3907 326.943 54.6573 326.67C54.9307 326.39 55.274 326.173 55.6873 326.02C56.1073 325.86 56.614 325.78 57.2073 325.78C57.3473 325.78 57.5107 325.787 57.6973 325.8C57.884 325.807 58.0407 325.823 58.1673 325.85V327.06C58.0407 327.027 57.9007 327.003 57.7473 326.99C57.6007 326.97 57.454 326.96 57.3073 326.96C56.8607 326.96 56.4907 327.013 56.1973 327.12C55.9107 327.227 55.684 327.38 55.5173 327.58C55.3507 327.78 55.2273 328.017 55.1473 328.29C55.074 328.557 55.0307 328.857 55.0173 329.19H55.0773C55.1707 329.03 55.284 328.89 55.4173 328.77C55.5573 328.643 55.7273 328.543 55.9273 328.47C56.1273 328.397 56.3607 328.36 56.6273 328.36C57.0473 328.36 57.4073 328.45 57.7073 328.63C58.014 328.803 58.2507 329.06 58.4173 329.4C58.584 329.733 58.6673 330.14 58.6673 330.62C58.6673 331.133 58.5673 331.577 58.3673 331.95C58.174 332.323 57.894 332.61 57.5273 332.81C57.1673 333.003 56.7373 333.1 56.2373 333.1C55.8707 333.1 55.5273 333.037 55.2073 332.91C54.894 332.783 54.6173 332.593 54.3773 332.34C54.144 332.08 53.9607 331.753 53.8273 331.36C53.694 330.967 53.6273 330.503 53.6273 329.97ZM56.2073 331.89C56.5007 331.89 56.7407 331.79 56.9273 331.59C57.114 331.383 57.2073 331.067 57.2073 330.64C57.2073 330.293 57.1273 330.02 56.9673 329.82C56.8073 329.62 56.564 329.52 56.2373 329.52C56.0173 329.52 55.824 329.57 55.6573 329.67C55.4907 329.763 55.3607 329.887 55.2673 330.04C55.174 330.193 55.1273 330.35 55.1273 330.51C55.1273 330.677 55.1507 330.843 55.1973 331.01C55.244 331.17 55.3107 331.317 55.3973 331.45C55.4907 331.583 55.604 331.69 55.7373 331.77C55.8707 331.85 56.0273 331.89 56.2073 331.89Z" fill="#4284D8"/>
<rect x="207" y="311" width="25" height="25" rx="2" fill="#4284D8"/>
<circle cx="219.5" cy="323.5" r="7.5" fill="white"/>
<path d="M217.907 327H216.397V322.87C216.397 322.757 216.397 322.617 216.397 322.45C216.404 322.283 216.411 322.11 216.417 321.93C216.424 321.75 216.431 321.59 216.437 321.45C216.404 321.49 216.331 321.563 216.217 321.67C216.111 321.77 216.011 321.86 215.917 321.94L215.097 322.6L214.367 321.69L216.667 319.86H217.907V327ZM224.86 322.91C224.86 323.317 224.83 323.723 224.77 324.13C224.71 324.53 224.603 324.91 224.45 325.27C224.303 325.623 224.093 325.94 223.82 326.22C223.553 326.493 223.21 326.71 222.79 326.87C222.377 327.023 221.873 327.1 221.28 327.1C221.14 327.1 220.977 327.093 220.79 327.08C220.603 327.073 220.447 327.057 220.32 327.03V325.82C220.453 325.847 220.593 325.87 220.74 325.89C220.887 325.91 221.033 325.92 221.18 325.92C221.627 325.92 221.993 325.867 222.28 325.76C222.573 325.653 222.803 325.5 222.97 325.3C223.137 325.1 223.257 324.863 223.33 324.59C223.41 324.317 223.457 324.017 223.47 323.69H223.41C223.317 323.843 223.203 323.983 223.07 324.11C222.943 324.237 222.78 324.337 222.58 324.41C222.387 324.483 222.137 324.52 221.83 324.52C221.423 324.52 221.07 324.433 220.77 324.26C220.47 324.08 220.237 323.823 220.07 323.49C219.903 323.15 219.82 322.74 219.82 322.26C219.82 321.74 219.917 321.297 220.11 320.93C220.31 320.557 220.593 320.273 220.96 320.08C221.327 319.88 221.757 319.78 222.25 319.78C222.617 319.78 222.957 319.843 223.27 319.97C223.59 320.097 223.867 320.29 224.1 320.55C224.34 320.803 224.527 321.127 224.66 321.52C224.793 321.913 224.86 322.377 224.86 322.91ZM222.28 320.99C221.987 320.99 221.747 321.09 221.56 321.29C221.373 321.49 221.28 321.807 221.28 322.24C221.28 322.587 221.36 322.86 221.52 323.06C221.68 323.26 221.923 323.36 222.25 323.36C222.477 323.36 222.67 323.31 222.83 323.21C222.997 323.11 223.127 322.987 223.22 322.84C223.313 322.687 223.36 322.53 223.36 322.37C223.36 322.203 223.337 322.04 223.29 321.88C223.243 321.713 223.173 321.563 223.08 321.43C222.993 321.297 222.883 321.19 222.75 321.11C222.617 321.03 222.46 320.99 222.28 320.99Z" fill="#4284D8"/>
<rect x="56" y="211" width="25" height="25" rx="2" fill="#4284D8"/>
<circle cx="68.5" cy="223.5" r="7.5" fill="white"/>
<path d="M66.9073 227H65.3973V222.87C65.3973 222.757 65.3973 222.617 65.3973 222.45C65.404 222.283 65.4107 222.11 65.4173 221.93C65.424 221.75 65.4307 221.59 65.4373 221.45C65.404 221.49 65.3307 221.563 65.2173 221.67C65.1107 221.77 65.0107 221.86 64.9173 221.94L64.0973 222.6L63.3673 221.69L65.6673 219.86H66.9073V227ZM69.61 227L72.29 221.13H68.77V219.86H73.89V220.81L71.19 227H69.61Z" fill="#4284D8"/>
<rect y="68" width="25" height="25" rx="2" fill="#4284D8"/>
<circle cx="12.5" cy="80.5" r="7.5" fill="white"/>
<path d="M10.9073 84H9.39734V79.87C9.39734 79.7567 9.39734 79.6167 9.39734 79.45C9.40401 79.2833 9.41068 79.11 9.41734 78.93C9.42401 78.75 9.43068 78.59 9.43734 78.45C9.40401 78.49 9.33068 78.5633 9.21734 78.67C9.11068 78.77 9.01068 78.86 8.91734 78.94L8.09734 79.6L7.36734 78.69L9.66734 76.86H10.9073V84ZM17.61 78.46C17.61 78.7867 17.54 79.07 17.4 79.31C17.2667 79.55 17.0833 79.7467 16.85 79.9C16.6233 80.0533 16.3633 80.1667 16.07 80.24V80.27C16.6433 80.3367 17.0767 80.51 17.37 80.79C17.67 81.07 17.82 81.4467 17.82 81.92C17.82 82.3333 17.7167 82.7067 17.51 83.04C17.31 83.3667 16.9967 83.6267 16.57 83.82C16.15 84.0067 15.6067 84.1 14.94 84.1C14.5467 84.1 14.18 84.0667 13.84 84C13.5 83.9333 13.18 83.8367 12.88 83.71V82.43C13.1867 82.5833 13.5067 82.7 13.84 82.78C14.18 82.86 14.4933 82.9 14.78 82.9C15.32 82.9 15.6967 82.8067 15.91 82.62C16.13 82.4333 16.24 82.17 16.24 81.83C16.24 81.63 16.19 81.4633 16.09 81.33C15.99 81.19 15.8133 81.0867 15.56 81.02C15.3133 80.9467 14.9667 80.91 14.52 80.91H13.98V79.75H14.53C14.97 79.75 15.3033 79.71 15.53 79.63C15.7633 79.5433 15.92 79.43 16 79.29C16.0867 79.1433 16.13 78.9767 16.13 78.79C16.13 78.5367 16.05 78.34 15.89 78.2C15.7367 78.0533 15.4767 77.98 15.11 77.98C14.8833 77.98 14.6767 78.01 14.49 78.07C14.3033 78.1233 14.1333 78.19 13.98 78.27C13.8333 78.35 13.7033 78.4267 13.59 78.5L12.89 77.46C13.0767 77.3267 13.2833 77.2067 13.51 77.1C13.7433 76.9933 14 76.91 14.28 76.85C14.56 76.79 14.8733 76.76 15.22 76.76C15.9533 76.76 16.5333 76.91 16.96 77.21C17.3933 77.5033 17.61 77.92 17.61 78.46Z" fill="#4284D8"/>
<rect y="96" width="25" height="25" rx="2" fill="#4284D8"/>
<circle cx="12.5" cy="108.5" r="7.5" fill="white"/>
<path d="M9.90734 112H8.39734V107.87C8.39734 107.757 8.39734 107.617 8.39734 107.45C8.40401 107.283 8.41068 107.11 8.41734 106.93C8.42401 106.75 8.43068 106.59 8.43734 106.45C8.40401 106.49 8.33068 106.563 8.21734 106.67C8.11068 106.77 8.01068 106.86 7.91734 106.94L7.09734 107.6L6.36734 106.69L8.66734 104.86H9.90734V112ZM17.05 110.52H16.19V112H14.72V110.52H11.67V109.47L14.8 104.86H16.19V109.35H17.05V110.52ZM14.72 108.14C14.72 108.027 14.72 107.893 14.72 107.74C14.7267 107.58 14.7333 107.423 14.74 107.27C14.7467 107.11 14.7533 106.97 14.76 106.85C14.7667 106.723 14.7733 106.637 14.78 106.59H14.74C14.68 106.723 14.6167 106.853 14.55 106.98C14.4833 107.107 14.4033 107.237 14.31 107.37L13 109.35H14.72V108.14Z" fill="#4284D8"/>
<rect x="85" y="211" width="25" height="25" rx="2" fill="#4284D8"/>
<circle cx="97.5" cy="223.5" r="7.5" fill="white"/>
<path d="M95.9073 227H94.3973V222.87C94.3973 222.757 94.3973 222.617 94.3973 222.45C94.404 222.283 94.4107 222.11 94.4173 221.93C94.424 221.75 94.4307 221.59 94.4373 221.45C94.404 221.49 94.3307 221.563 94.2173 221.67C94.1107 221.77 94.0107 221.86 93.9173 221.94L93.0973 222.6L92.3673 221.69L94.6673 219.86H95.9073V227ZM100.36 219.77C100.773 219.77 101.15 219.833 101.49 219.96C101.837 220.087 102.113 220.277 102.32 220.53C102.533 220.783 102.64 221.103 102.64 221.49C102.64 221.777 102.583 222.03 102.47 222.25C102.357 222.463 102.203 222.65 102.01 222.81C101.823 222.97 101.607 223.11 101.36 223.23C101.613 223.363 101.853 223.52 102.08 223.7C102.313 223.873 102.5 224.08 102.64 224.32C102.787 224.553 102.86 224.83 102.86 225.15C102.86 225.543 102.753 225.887 102.54 226.18C102.333 226.473 102.04 226.7 101.66 226.86C101.287 227.02 100.853 227.1 100.36 227.1C99.8267 227.1 99.3733 227.023 99 226.87C98.6267 226.717 98.34 226.497 98.14 226.21C97.9467 225.923 97.85 225.583 97.85 225.19C97.85 224.863 97.91 224.58 98.03 224.34C98.1567 224.1 98.3233 223.893 98.53 223.72C98.7367 223.54 98.9667 223.39 99.22 223.27C99.0067 223.137 98.8133 222.987 98.64 222.82C98.4667 222.647 98.3267 222.453 98.22 222.24C98.12 222.02 98.07 221.767 98.07 221.48C98.07 221.1 98.1767 220.783 98.39 220.53C98.6033 220.277 98.8833 220.087 99.23 219.96C99.5833 219.833 99.96 219.77 100.36 219.77ZM99.25 225.1C99.25 225.36 99.34 225.573 99.52 225.74C99.7067 225.907 99.98 225.99 100.34 225.99C100.593 225.99 100.8 225.953 100.96 225.88C101.127 225.807 101.25 225.703 101.33 225.57C101.417 225.437 101.46 225.283 101.46 225.11C101.46 224.93 101.407 224.773 101.3 224.64C101.193 224.5 101.06 224.377 100.9 224.27C100.747 224.157 100.587 224.053 100.42 223.96L100.29 223.89C100.083 223.983 99.9 224.09 99.74 224.21C99.5867 224.33 99.4667 224.463 99.38 224.61C99.2933 224.75 99.25 224.913 99.25 225.1ZM100.35 220.87C100.103 220.87 99.8967 220.933 99.73 221.06C99.57 221.187 99.49 221.367 99.49 221.6C99.49 221.76 99.53 221.903 99.61 222.03C99.69 222.15 99.7967 222.257 99.93 222.35C100.063 222.437 100.207 222.52 100.36 222.6C100.513 222.527 100.653 222.447 100.78 222.36C100.913 222.273 101.02 222.17 101.1 222.05C101.18 221.923 101.22 221.773 101.22 221.6C101.22 221.367 101.137 221.187 100.97 221.06C100.81 220.933 100.603 220.87 100.35 220.87Z" fill="#4284D8"/>
<rect x="302.5" y="365" width="25" height="25" rx="2" fill="#4284D8"/>
<circle cx="315" cy="377.5" r="7.5" fill="white"/>
<path d="M314.667 381H309.677V379.95L311.467 378.14C311.827 377.767 312.117 377.457 312.337 377.21C312.557 376.957 312.717 376.73 312.817 376.53C312.917 376.323 312.967 376.103 312.967 375.87C312.967 375.583 312.887 375.37 312.727 375.23C312.574 375.09 312.364 375.02 312.097 375.02C311.824 375.02 311.557 375.083 311.297 375.21C311.037 375.337 310.764 375.517 310.477 375.75L309.657 374.78C309.864 374.6 310.081 374.433 310.307 374.28C310.541 374.127 310.807 374.003 311.107 373.91C311.414 373.81 311.781 373.76 312.207 373.76C312.674 373.76 313.074 373.847 313.407 374.02C313.747 374.187 314.007 374.417 314.187 374.71C314.374 374.997 314.467 375.323 314.467 375.69C314.467 375.99 314.421 376.267 314.327 376.52C314.241 376.773 314.111 377.02 313.937 377.26C313.771 377.493 313.564 377.737 313.317 377.99C313.071 378.237 312.791 378.507 312.477 378.8L311.557 379.66V379.73H314.667V381ZM319.13 381H317.62V376.87C317.62 376.757 317.62 376.617 317.62 376.45C317.627 376.283 317.633 376.11 317.64 375.93C317.647 375.75 317.653 375.59 317.66 375.45C317.627 375.49 317.553 375.563 317.44 375.67C317.333 375.77 317.233 375.86 317.14 375.94L316.32 376.6L315.59 375.69L317.89 373.86H319.13V381Z" fill="#4284D8"/>
<rect x="244" y="364" width="25" height="25" rx="2" fill="#4284D8"/>
<circle cx="256.5" cy="376.5" r="7.5" fill="white"/>
<path d="M256.167 380H251.177V378.95L252.967 377.14C253.327 376.767 253.617 376.457 253.837 376.21C254.057 375.957 254.217 375.73 254.317 375.53C254.417 375.323 254.467 375.103 254.467 374.87C254.467 374.583 254.387 374.37 254.227 374.23C254.074 374.09 253.864 374.02 253.597 374.02C253.324 374.02 253.057 374.083 252.797 374.21C252.537 374.337 252.264 374.517 251.977 374.75L251.157 373.78C251.364 373.6 251.581 373.433 251.807 373.28C252.041 373.127 252.307 373.003 252.607 372.91C252.914 372.81 253.281 372.76 253.707 372.76C254.174 372.76 254.574 372.847 254.907 373.02C255.247 373.187 255.507 373.417 255.687 373.71C255.874 373.997 255.967 374.323 255.967 374.69C255.967 374.99 255.921 375.267 255.827 375.52C255.741 375.773 255.611 376.02 255.437 376.26C255.271 376.493 255.064 376.737 254.817 376.99C254.571 377.237 254.291 377.507 253.977 377.8L253.057 378.66V378.73H256.167V380ZM261.85 376.43C261.85 377.003 261.803 377.517 261.71 377.97C261.623 378.423 261.48 378.81 261.28 379.13C261.087 379.443 260.83 379.683 260.51 379.85C260.197 380.017 259.81 380.1 259.35 380.1C258.777 380.1 258.307 379.953 257.94 379.66C257.573 379.367 257.3 378.947 257.12 378.4C256.947 377.853 256.86 377.197 256.86 376.43C256.86 375.657 256.94 374.997 257.1 374.45C257.26 373.903 257.523 373.483 257.89 373.19C258.257 372.897 258.743 372.75 259.35 372.75C259.923 372.75 260.393 372.897 260.76 373.19C261.127 373.477 261.4 373.897 261.58 374.45C261.76 374.997 261.85 375.657 261.85 376.43ZM258.36 376.43C258.36 376.97 258.39 377.423 258.45 377.79C258.51 378.15 258.61 378.423 258.75 378.61C258.897 378.79 259.097 378.88 259.35 378.88C259.603 378.88 259.8 378.79 259.94 378.61C260.087 378.43 260.19 378.16 260.25 377.8C260.317 377.433 260.35 376.977 260.35 376.43C260.35 375.883 260.317 375.43 260.25 375.07C260.19 374.703 260.087 374.43 259.94 374.25C259.8 374.063 259.603 373.97 259.35 373.97C259.097 373.97 258.897 374.063 258.75 374.25C258.61 374.43 258.51 374.703 258.45 375.07C258.39 375.43 258.36 375.883 258.36 376.43Z" fill="#4284D8"/>
<rect x="327.5" y="339" width="25" height="25" rx="2" transform="rotate(90 327.5 339)" fill="#4284D8"/>
<circle cx="315" cy="351.5" r="7.5" fill="white"/>
<path d="M314.667 355H309.677V353.95L311.467 352.14C311.827 351.767 312.117 351.457 312.337 351.21C312.557 350.957 312.717 350.73 312.817 350.53C312.917 350.323 312.967 350.103 312.967 349.87C312.967 349.583 312.887 349.37 312.727 349.23C312.574 349.09 312.364 349.02 312.097 349.02C311.824 349.02 311.557 349.083 311.297 349.21C311.037 349.337 310.764 349.517 310.477 349.75L309.657 348.78C309.864 348.6 310.081 348.433 310.307 348.28C310.541 348.127 310.807 348.003 311.107 347.91C311.414 347.81 311.781 347.76 312.207 347.76C312.674 347.76 313.074 347.847 313.407 348.02C313.747 348.187 314.007 348.417 314.187 348.71C314.374 348.997 314.467 349.323 314.467 349.69C314.467 349.99 314.421 350.267 314.327 350.52C314.241 350.773 314.111 351.02 313.937 351.26C313.771 351.493 313.564 351.737 313.317 351.99C313.071 352.237 312.791 352.507 312.477 352.8L311.557 353.66V353.73H314.667V355ZM320.39 355H315.4V353.95L317.19 352.14C317.55 351.767 317.84 351.457 318.06 351.21C318.28 350.957 318.44 350.73 318.54 350.53C318.64 350.323 318.69 350.103 318.69 349.87C318.69 349.583 318.61 349.37 318.45 349.23C318.297 349.09 318.087 349.02 317.82 349.02C317.547 349.02 317.28 349.083 317.02 349.21C316.76 349.337 316.487 349.517 316.2 349.75L315.38 348.78C315.587 348.6 315.803 348.433 316.03 348.28C316.263 348.127 316.53 348.003 316.83 347.91C317.137 347.81 317.503 347.76 317.93 347.76C318.397 347.76 318.797 347.847 319.13 348.02C319.47 348.187 319.73 348.417 319.91 348.71C320.097 348.997 320.19 349.323 320.19 349.69C320.19 349.99 320.143 350.267 320.05 350.52C319.963 350.773 319.833 351.02 319.66 351.26C319.493 351.493 319.287 351.737 319.04 351.99C318.793 352.237 318.513 352.507 318.2 352.8L317.28 353.66V353.73H320.39V355Z" fill="#4284D8"/>
<rect x="327.5" y="313" width="25" height="25" rx="2" transform="rotate(90 327.5 313)" fill="#4284D8"/>
<circle cx="315" cy="325.5" r="7.5" fill="white"/>
<path d="M314.667 329H309.677V327.95L311.467 326.14C311.827 325.767 312.117 325.457 312.337 325.21C312.557 324.957 312.717 324.73 312.817 324.53C312.917 324.323 312.967 324.103 312.967 323.87C312.967 323.583 312.887 323.37 312.727 323.23C312.574 323.09 312.364 323.02 312.097 323.02C311.824 323.02 311.557 323.083 311.297 323.21C311.037 323.337 310.764 323.517 310.477 323.75L309.657 322.78C309.864 322.6 310.081 322.433 310.307 322.28C310.541 322.127 310.807 322.003 311.107 321.91C311.414 321.81 311.781 321.76 312.207 321.76C312.674 321.76 313.074 321.847 313.407 322.02C313.747 322.187 314.007 322.417 314.187 322.71C314.374 322.997 314.467 323.323 314.467 323.69C314.467 323.99 314.421 324.267 314.327 324.52C314.241 324.773 314.111 325.02 313.937 325.26C313.771 325.493 313.564 325.737 313.317 325.99C313.071 326.237 312.791 326.507 312.477 326.8L311.557 327.66V327.73H314.667V329ZM320.11 323.46C320.11 323.787 320.04 324.07 319.9 324.31C319.767 324.55 319.583 324.747 319.35 324.9C319.123 325.053 318.863 325.167 318.57 325.24V325.27C319.143 325.337 319.577 325.51 319.87 325.79C320.17 326.07 320.32 326.447 320.32 326.92C320.32 327.333 320.217 327.707 320.01 328.04C319.81 328.367 319.497 328.627 319.07 328.82C318.65 329.007 318.107 329.1 317.44 329.1C317.047 329.1 316.68 329.067 316.34 329C316 328.933 315.68 328.837 315.38 328.71V327.43C315.687 327.583 316.007 327.7 316.34 327.78C316.68 327.86 316.993 327.9 317.28 327.9C317.82 327.9 318.197 327.807 318.41 327.62C318.63 327.433 318.74 327.17 318.74 326.83C318.74 326.63 318.69 326.463 318.59 326.33C318.49 326.19 318.313 326.087 318.06 326.02C317.813 325.947 317.467 325.91 317.02 325.91H316.48V324.75H317.03C317.47 324.75 317.803 324.71 318.03 324.63C318.263 324.543 318.42 324.43 318.5 324.29C318.587 324.143 318.63 323.977 318.63 323.79C318.63 323.537 318.55 323.34 318.39 323.2C318.237 323.053 317.977 322.98 317.61 322.98C317.383 322.98 317.177 323.01 316.99 323.07C316.803 323.123 316.633 323.19 316.48 323.27C316.333 323.35 316.203 323.427 316.09 323.5L315.39 322.46C315.577 322.327 315.783 322.207 316.01 322.1C316.243 321.993 316.5 321.91 316.78 321.85C317.06 321.79 317.373 321.76 317.72 321.76C318.453 321.76 319.033 321.91 319.46 322.21C319.893 322.503 320.11 322.92 320.11 323.46Z" fill="#4284D8"/>
<rect x="528.754" y="302" width="19.7531" height="19.7531" rx="2" transform="rotate(90 528.754 302)" fill="#4284D8"/>
<circle cx="518.875" cy="311.876" r="5.92593" fill="white"/>
<rect x="528.754" y="324.123" width="19.7531" height="19.7531" rx="2" transform="rotate(90 528.754 324.123)" fill="#4284D8"/>
<circle cx="518.875" cy="333.999" r="5.92593" fill="white"/>
<rect x="528.754" y="346.247" width="19.7531" height="19.7531" rx="2" transform="rotate(90 528.754 346.247)" fill="#4284D8"/>
<circle cx="518.875" cy="356.123" r="5.92593" fill="white"/>
<rect x="327.5" y="287" width="25" height="25" rx="2" transform="rotate(90 327.5 287)" fill="#4284D8"/>
<circle cx="315" cy="299.5" r="7.5" fill="white"/>
<path d="M314.667 303H309.677V301.95L311.467 300.14C311.827 299.767 312.117 299.457 312.337 299.21C312.557 298.957 312.717 298.73 312.817 298.53C312.917 298.323 312.967 298.103 312.967 297.87C312.967 297.583 312.887 297.37 312.727 297.23C312.574 297.09 312.364 297.02 312.097 297.02C311.824 297.02 311.557 297.083 311.297 297.21C311.037 297.337 310.764 297.517 310.477 297.75L309.657 296.78C309.864 296.6 310.081 296.433 310.307 296.28C310.541 296.127 310.807 296.003 311.107 295.91C311.414 295.81 311.781 295.76 312.207 295.76C312.674 295.76 313.074 295.847 313.407 296.02C313.747 296.187 314.007 296.417 314.187 296.71C314.374 296.997 314.467 297.323 314.467 297.69C314.467 297.99 314.421 298.267 314.327 298.52C314.241 298.773 314.111 299.02 313.937 299.26C313.771 299.493 313.564 299.737 313.317 299.99C313.071 300.237 312.791 300.507 312.477 300.8L311.557 301.66V301.73H314.667V303ZM320.55 301.52H319.69V303H318.22V301.52H315.17V300.47L318.3 295.86H319.69V300.35H320.55V301.52ZM318.22 299.14C318.22 299.027 318.22 298.893 318.22 298.74C318.227 298.58 318.233 298.423 318.24 298.27C318.247 298.11 318.253 297.97 318.26 297.85C318.267 297.723 318.273 297.637 318.28 297.59H318.24C318.18 297.723 318.117 297.853 318.05 297.98C317.983 298.107 317.903 298.237 317.81 298.37L316.5 300.35H318.22V299.14Z" fill="#4284D8"/>
<rect x="327.5" y="261" width="25" height="25" rx="2" transform="rotate(90 327.5 261)" fill="#4284D8"/>
<circle cx="315" cy="273.5" r="7.5" fill="white"/>
<path d="M314.667 277H309.677V275.95L311.467 274.14C311.827 273.767 312.117 273.457 312.337 273.21C312.557 272.957 312.717 272.73 312.817 272.53C312.917 272.323 312.967 272.103 312.967 271.87C312.967 271.583 312.887 271.37 312.727 271.23C312.574 271.09 312.364 271.02 312.097 271.02C311.824 271.02 311.557 271.083 311.297 271.21C311.037 271.337 310.764 271.517 310.477 271.75L309.657 270.78C309.864 270.6 310.081 270.433 310.307 270.28C310.541 270.127 310.807 270.003 311.107 269.91C311.414 269.81 311.781 269.76 312.207 269.76C312.674 269.76 313.074 269.847 313.407 270.02C313.747 270.187 314.007 270.417 314.187 270.71C314.374 270.997 314.467 271.323 314.467 271.69C314.467 271.99 314.421 272.267 314.327 272.52C314.241 272.773 314.111 273.02 313.937 273.26C313.771 273.493 313.564 273.737 313.317 273.99C313.071 274.237 312.791 274.507 312.477 274.8L311.557 275.66V275.73H314.667V277ZM318 272.44C318.433 272.44 318.82 272.523 319.16 272.69C319.5 272.857 319.767 273.1 319.96 273.42C320.16 273.74 320.26 274.137 320.26 274.61C320.26 275.123 320.153 275.567 319.94 275.94C319.727 276.313 319.407 276.6 318.98 276.8C318.56 277 318.037 277.1 317.41 277.1C317.037 277.1 316.683 277.067 316.35 277C316.023 276.933 315.737 276.837 315.49 276.71V275.41C315.737 275.537 316.033 275.647 316.38 275.74C316.727 275.827 317.053 275.87 317.36 275.87C317.66 275.87 317.91 275.83 318.11 275.75C318.317 275.67 318.473 275.547 318.58 275.38C318.687 275.213 318.74 275 318.74 274.74C318.74 274.387 318.623 274.12 318.39 273.94C318.157 273.753 317.797 273.66 317.31 273.66C317.123 273.66 316.93 273.68 316.73 273.72C316.53 273.753 316.363 273.787 316.23 273.82L315.63 273.5L315.9 269.86H319.77V271.14H317.22L317.09 272.54C317.203 272.52 317.323 272.5 317.45 272.48C317.583 272.453 317.767 272.44 318 272.44Z" fill="#4284D8"/>
<rect x="327.5" y="235" width="25" height="25" rx="2" transform="rotate(90 327.5 235)" fill="#4284D8"/>
<circle cx="315" cy="247.5" r="7.5" fill="white"/>
<path d="M314.667 251H309.677V249.95L311.467 248.14C311.827 247.767 312.117 247.457 312.337 247.21C312.557 246.957 312.717 246.73 312.817 246.53C312.917 246.323 312.967 246.103 312.967 245.87C312.967 245.583 312.887 245.37 312.727 245.23C312.574 245.09 312.364 245.02 312.097 245.02C311.824 245.02 311.557 245.083 311.297 245.21C311.037 245.337 310.764 245.517 310.477 245.75L309.657 244.78C309.864 244.6 310.081 244.433 310.307 244.28C310.541 244.127 310.807 244.003 311.107 243.91C311.414 243.81 311.781 243.76 312.207 243.76C312.674 243.76 313.074 243.847 313.407 244.02C313.747 244.187 314.007 244.417 314.187 244.71C314.374 244.997 314.467 245.323 314.467 245.69C314.467 245.99 314.421 246.267 314.327 246.52C314.241 246.773 314.111 247.02 313.937 247.26C313.771 247.493 313.564 247.737 313.317 247.99C313.071 248.237 312.791 248.507 312.477 248.8L311.557 249.66V249.73H314.667V251ZM315.35 247.97C315.35 247.557 315.38 247.15 315.44 246.75C315.5 246.35 315.603 245.973 315.75 245.62C315.903 245.26 316.113 244.943 316.38 244.67C316.653 244.39 316.997 244.173 317.41 244.02C317.83 243.86 318.337 243.78 318.93 243.78C319.07 243.78 319.233 243.787 319.42 243.8C319.607 243.807 319.763 243.823 319.89 243.85V245.06C319.763 245.027 319.623 245.003 319.47 244.99C319.323 244.97 319.177 244.96 319.03 244.96C318.583 244.96 318.213 245.013 317.92 245.12C317.633 245.227 317.407 245.38 317.24 245.58C317.073 245.78 316.95 246.017 316.87 246.29C316.797 246.557 316.753 246.857 316.74 247.19H316.8C316.893 247.03 317.007 246.89 317.14 246.77C317.28 246.643 317.45 246.543 317.65 246.47C317.85 246.397 318.083 246.36 318.35 246.36C318.77 246.36 319.13 246.45 319.43 246.63C319.737 246.803 319.973 247.06 320.14 247.4C320.307 247.733 320.39 248.14 320.39 248.62C320.39 249.133 320.29 249.577 320.09 249.95C319.897 250.323 319.617 250.61 319.25 250.81C318.89 251.003 318.46 251.1 317.96 251.1C317.593 251.1 317.25 251.037 316.93 250.91C316.617 250.783 316.34 250.593 316.1 250.34C315.867 250.08 315.683 249.753 315.55 249.36C315.417 248.967 315.35 248.503 315.35 247.97ZM317.93 249.89C318.223 249.89 318.463 249.79 318.65 249.59C318.837 249.383 318.93 249.067 318.93 248.64C318.93 248.293 318.85 248.02 318.69 247.82C318.53 247.62 318.287 247.52 317.96 247.52C317.74 247.52 317.547 247.57 317.38 247.67C317.213 247.763 317.083 247.887 316.99 248.04C316.897 248.193 316.85 248.35 316.85 248.51C316.85 248.677 316.873 248.843 316.92 249.01C316.967 249.17 317.033 249.317 317.12 249.45C317.213 249.583 317.327 249.69 317.46 249.77C317.593 249.85 317.75 249.89 317.93 249.89Z" fill="#4284D8"/>
<rect x="327.5" y="209" width="25" height="25" rx="2" transform="rotate(90 327.5 209)" fill="#4284D8"/>
<circle cx="315" cy="221.5" r="7.5" fill="white"/>
<path d="M314.667 225H309.677V223.95L311.467 222.14C311.827 221.767 312.117 221.457 312.337 221.21C312.557 220.957 312.717 220.73 312.817 220.53C312.917 220.323 312.967 220.103 312.967 219.87C312.967 219.583 312.887 219.37 312.727 219.23C312.574 219.09 312.364 219.02 312.097 219.02C311.824 219.02 311.557 219.083 311.297 219.21C311.037 219.337 310.764 219.517 310.477 219.75L309.657 218.78C309.864 218.6 310.081 218.433 310.307 218.28C310.541 218.127 310.807 218.003 311.107 217.91C311.414 217.81 311.781 217.76 312.207 217.76C312.674 217.76 313.074 217.847 313.407 218.02C313.747 218.187 314.007 218.417 314.187 218.71C314.374 218.997 314.467 219.323 314.467 219.69C314.467 219.99 314.421 220.267 314.327 220.52C314.241 220.773 314.111 221.02 313.937 221.26C313.771 221.493 313.564 221.737 313.317 221.99C313.071 222.237 312.791 222.507 312.477 222.8L311.557 223.66V223.73H314.667V225ZM316.11 225L318.79 219.13H315.27V217.86H320.39V218.81L317.69 225H316.11Z" fill="#4284D8"/>
<rect x="575.945" y="95" width="25" height="25" rx="2" transform="rotate(90 575.945 95)" fill="#4284D8"/>
<circle cx="563.445" cy="107.5" r="7.5" fill="white"/>
<path d="M562.833 105.46C562.833 105.787 562.763 106.07 562.623 106.31C562.489 106.55 562.306 106.747 562.073 106.9C561.846 107.053 561.586 107.167 561.293 107.24V107.27C561.866 107.337 562.299 107.51 562.593 107.79C562.893 108.07 563.043 108.447 563.043 108.92C563.043 109.333 562.939 109.707 562.733 110.04C562.533 110.367 562.219 110.627 561.793 110.82C561.373 111.007 560.829 111.1 560.163 111.1C559.769 111.1 559.403 111.067 559.063 111C558.723 110.933 558.403 110.837 558.103 110.71V109.43C558.409 109.583 558.729 109.7 559.063 109.78C559.403 109.86 559.716 109.9 560.003 109.9C560.543 109.9 560.919 109.807 561.133 109.62C561.353 109.433 561.463 109.17 561.463 108.83C561.463 108.63 561.413 108.463 561.313 108.33C561.213 108.19 561.036 108.087 560.783 108.02C560.536 107.947 560.189 107.91 559.743 107.91H559.203V106.75H559.753C560.193 106.75 560.526 106.71 560.753 106.63C560.986 106.543 561.143 106.43 561.223 106.29C561.309 106.143 561.353 105.977 561.353 105.79C561.353 105.537 561.273 105.34 561.113 105.2C560.959 105.053 560.699 104.98 560.333 104.98C560.106 104.98 559.899 105.01 559.713 105.07C559.526 105.123 559.356 105.19 559.203 105.27C559.056 105.35 558.926 105.427 558.813 105.5L558.113 104.46C558.299 104.327 558.506 104.207 558.733 104.1C558.966 103.993 559.223 103.91 559.503 103.85C559.783 103.79 560.096 103.76 560.443 103.76C561.176 103.76 561.756 103.91 562.183 104.21C562.616 104.503 562.833 104.92 562.833 105.46ZM566.445 106.44C566.879 106.44 567.265 106.523 567.605 106.69C567.945 106.857 568.212 107.1 568.405 107.42C568.605 107.74 568.705 108.137 568.705 108.61C568.705 109.123 568.599 109.567 568.385 109.94C568.172 110.313 567.852 110.6 567.425 110.8C567.005 111 566.482 111.1 565.855 111.1C565.482 111.1 565.129 111.067 564.795 111C564.469 110.933 564.182 110.837 563.935 110.71V109.41C564.182 109.537 564.479 109.647 564.825 109.74C565.172 109.827 565.499 109.87 565.805 109.87C566.105 109.87 566.355 109.83 566.555 109.75C566.762 109.67 566.919 109.547 567.025 109.38C567.132 109.213 567.185 109 567.185 108.74C567.185 108.387 567.069 108.12 566.835 107.94C566.602 107.753 566.242 107.66 565.755 107.66C565.569 107.66 565.375 107.68 565.175 107.72C564.975 107.753 564.809 107.787 564.675 107.82L564.075 107.5L564.345 103.86H568.215V105.14H565.665L565.535 106.54C565.649 106.52 565.769 106.5 565.895 106.48C566.029 106.453 566.212 106.44 566.445 106.44Z" fill="#4284D8"/>
<rect x="539" y="256" width="41" height="41" rx="2" transform="rotate(90 539 256)" fill="#4284D8"/>
<circle cx="518.5" cy="276.5" r="7.5" fill="white"/>
<path d="M517.887 274.46C517.887 274.787 517.817 275.07 517.677 275.31C517.544 275.55 517.361 275.747 517.127 275.9C516.901 276.053 516.641 276.167 516.347 276.24V276.27C516.921 276.337 517.354 276.51 517.647 276.79C517.947 277.07 518.097 277.447 518.097 277.92C518.097 278.333 517.994 278.707 517.787 279.04C517.587 279.367 517.274 279.627 516.847 279.82C516.427 280.007 515.884 280.1 515.217 280.1C514.824 280.1 514.457 280.067 514.117 280C513.777 279.933 513.457 279.837 513.157 279.71V278.43C513.464 278.583 513.784 278.7 514.117 278.78C514.457 278.86 514.771 278.9 515.057 278.9C515.597 278.9 515.974 278.807 516.187 278.62C516.407 278.433 516.517 278.17 516.517 277.83C516.517 277.63 516.467 277.463 516.367 277.33C516.267 277.19 516.091 277.087 515.837 277.02C515.591 276.947 515.244 276.91 514.797 276.91H514.257V275.75H514.807C515.247 275.75 515.581 275.71 515.807 275.63C516.041 275.543 516.197 275.43 516.277 275.29C516.364 275.143 516.407 274.977 516.407 274.79C516.407 274.537 516.327 274.34 516.167 274.2C516.014 274.053 515.754 273.98 515.387 273.98C515.161 273.98 514.954 274.01 514.767 274.07C514.581 274.123 514.411 274.19 514.257 274.27C514.111 274.35 513.981 274.427 513.867 274.5L513.167 273.46C513.354 273.327 513.561 273.207 513.787 273.1C514.021 272.993 514.277 272.91 514.557 272.85C514.837 272.79 515.151 272.76 515.497 272.76C516.231 272.76 516.811 272.91 517.237 273.21C517.671 273.503 517.887 273.92 517.887 274.46ZM518.85 276.97C518.85 276.557 518.88 276.15 518.94 275.75C519 275.35 519.103 274.973 519.25 274.62C519.403 274.26 519.613 273.943 519.88 273.67C520.153 273.39 520.497 273.173 520.91 273.02C521.33 272.86 521.837 272.78 522.43 272.78C522.57 272.78 522.733 272.787 522.92 272.8C523.107 272.807 523.263 272.823 523.39 272.85V274.06C523.263 274.027 523.123 274.003 522.97 273.99C522.823 273.97 522.677 273.96 522.53 273.96C522.083 273.96 521.713 274.013 521.42 274.12C521.133 274.227 520.907 274.38 520.74 274.58C520.573 274.78 520.45 275.017 520.37 275.29C520.297 275.557 520.253 275.857 520.24 276.19H520.3C520.393 276.03 520.507 275.89 520.64 275.77C520.78 275.643 520.95 275.543 521.15 275.47C521.35 275.397 521.583 275.36 521.85 275.36C522.27 275.36 522.63 275.45 522.93 275.63C523.237 275.803 523.473 276.06 523.64 276.4C523.807 276.733 523.89 277.14 523.89 277.62C523.89 278.133 523.79 278.577 523.59 278.95C523.397 279.323 523.117 279.61 522.75 279.81C522.39 280.003 521.96 280.1 521.46 280.1C521.093 280.1 520.75 280.037 520.43 279.91C520.117 279.783 519.84 279.593 519.6 279.34C519.367 279.08 519.183 278.753 519.05 278.36C518.917 277.967 518.85 277.503 518.85 276.97ZM521.43 278.89C521.723 278.89 521.963 278.79 522.15 278.59C522.337 278.383 522.43 278.067 522.43 277.64C522.43 277.293 522.35 277.02 522.19 276.82C522.03 276.62 521.787 276.52 521.46 276.52C521.24 276.52 521.047 276.57 520.88 276.67C520.713 276.763 520.583 276.887 520.49 277.04C520.397 277.193 520.35 277.35 520.35 277.51C520.35 277.677 520.373 277.843 520.42 278.01C520.467 278.17 520.533 278.317 520.62 278.45C520.713 278.583 520.827 278.69 520.96 278.77C521.093 278.85 521.25 278.89 521.43 278.89Z" fill="#4284D8"/>
<rect x="488" y="144" width="42" height="17" rx="2" fill="#4284D8"/>
<circle cx="509" cy="152.5" r="7.5" fill="white"/>
<path d="M508.387 150.46C508.387 150.787 508.317 151.07 508.177 151.31C508.044 151.55 507.861 151.747 507.627 151.9C507.401 152.053 507.141 152.167 506.847 152.24V152.27C507.421 152.337 507.854 152.51 508.147 152.79C508.447 153.07 508.597 153.447 508.597 153.92C508.597 154.333 508.494 154.707 508.287 155.04C508.087 155.367 507.774 155.627 507.347 155.82C506.927 156.007 506.384 156.1 505.717 156.1C505.324 156.1 504.957 156.067 504.617 156C504.277 155.933 503.957 155.837 503.657 155.71V154.43C503.964 154.583 504.284 154.7 504.617 154.78C504.957 154.86 505.271 154.9 505.557 154.9C506.097 154.9 506.474 154.807 506.687 154.62C506.907 154.433 507.017 154.17 507.017 153.83C507.017 153.63 506.967 153.463 506.867 153.33C506.767 153.19 506.591 153.087 506.337 153.02C506.091 152.947 505.744 152.91 505.297 152.91H504.757V151.75H505.307C505.747 151.75 506.081 151.71 506.307 151.63C506.541 151.543 506.697 151.43 506.777 151.29C506.864 151.143 506.907 150.977 506.907 150.79C506.907 150.537 506.827 150.34 506.667 150.2C506.514 150.053 506.254 149.98 505.887 149.98C505.661 149.98 505.454 150.01 505.267 150.07C505.081 150.123 504.911 150.19 504.757 150.27C504.611 150.35 504.481 150.427 504.367 150.5L503.667 149.46C503.854 149.327 504.061 149.207 504.287 149.1C504.521 148.993 504.777 148.91 505.057 148.85C505.337 148.79 505.651 148.76 505.997 148.76C506.731 148.76 507.311 148.91 507.737 149.21C508.171 149.503 508.387 149.92 508.387 150.46ZM514.55 154.52H513.69V156H512.22V154.52H509.17V153.47L512.3 148.86H513.69V153.35H514.55V154.52ZM512.22 152.14C512.22 152.027 512.22 151.893 512.22 151.74C512.227 151.58 512.233 151.423 512.24 151.27C512.247 151.11 512.253 150.97 512.26 150.85C512.267 150.723 512.273 150.637 512.28 150.59H512.24C512.18 150.723 512.117 150.853 512.05 150.98C511.983 151.107 511.903 151.237 511.81 151.37L510.5 153.35H512.22V152.14Z" fill="#4284D8"/>
<rect x="488" y="103" width="42" height="17" rx="2" fill="#4284D8"/>
<circle cx="509" cy="111.5" r="7.5" fill="white"/>
<path d="M508.387 109.46C508.387 109.787 508.317 110.07 508.177 110.31C508.044 110.55 507.861 110.747 507.627 110.9C507.401 111.053 507.141 111.167 506.847 111.24V111.27C507.421 111.337 507.854 111.51 508.147 111.79C508.447 112.07 508.597 112.447 508.597 112.92C508.597 113.333 508.494 113.707 508.287 114.04C508.087 114.367 507.774 114.627 507.347 114.82C506.927 115.007 506.384 115.1 505.717 115.1C505.324 115.1 504.957 115.067 504.617 115C504.277 114.933 503.957 114.837 503.657 114.71V113.43C503.964 113.583 504.284 113.7 504.617 113.78C504.957 113.86 505.271 113.9 505.557 113.9C506.097 113.9 506.474 113.807 506.687 113.62C506.907 113.433 507.017 113.17 507.017 112.83C507.017 112.63 506.967 112.463 506.867 112.33C506.767 112.19 506.591 112.087 506.337 112.02C506.091 111.947 505.744 111.91 505.297 111.91H504.757V110.75H505.307C505.747 110.75 506.081 110.71 506.307 110.63C506.541 110.543 506.697 110.43 506.777 110.29C506.864 110.143 506.907 109.977 506.907 109.79C506.907 109.537 506.827 109.34 506.667 109.2C506.514 109.053 506.254 108.98 505.887 108.98C505.661 108.98 505.454 109.01 505.267 109.07C505.081 109.123 504.911 109.19 504.757 109.27C504.611 109.35 504.481 109.427 504.367 109.5L503.667 108.46C503.854 108.327 504.061 108.207 504.287 108.1C504.521 107.993 504.777 107.91 505.057 107.85C505.337 107.79 505.651 107.76 505.997 107.76C506.731 107.76 507.311 107.91 507.737 108.21C508.171 108.503 508.387 108.92 508.387 109.46ZM514.11 109.46C514.11 109.787 514.04 110.07 513.9 110.31C513.767 110.55 513.583 110.747 513.35 110.9C513.123 111.053 512.863 111.167 512.57 111.24V111.27C513.143 111.337 513.577 111.51 513.87 111.79C514.17 112.07 514.32 112.447 514.32 112.92C514.32 113.333 514.217 113.707 514.01 114.04C513.81 114.367 513.497 114.627 513.07 114.82C512.65 115.007 512.107 115.1 511.44 115.1C511.047 115.1 510.68 115.067 510.34 115C510 114.933 509.68 114.837 509.38 114.71V113.43C509.687 113.583 510.007 113.7 510.34 113.78C510.68 113.86 510.993 113.9 511.28 113.9C511.82 113.9 512.197 113.807 512.41 113.62C512.63 113.433 512.74 113.17 512.74 112.83C512.74 112.63 512.69 112.463 512.59 112.33C512.49 112.19 512.313 112.087 512.06 112.02C511.813 111.947 511.467 111.91 511.02 111.91H510.48V110.75H511.03C511.47 110.75 511.803 110.71 512.03 110.63C512.263 110.543 512.42 110.43 512.5 110.29C512.587 110.143 512.63 109.977 512.63 109.79C512.63 109.537 512.55 109.34 512.39 109.2C512.237 109.053 511.977 108.98 511.61 108.98C511.383 108.98 511.177 109.01 510.99 109.07C510.803 109.123 510.633 109.19 510.48 109.27C510.333 109.35 510.203 109.427 510.09 109.5L509.39 108.46C509.577 108.327 509.783 108.207 510.01 108.1C510.243 107.993 510.5 107.91 510.78 107.85C511.06 107.79 511.373 107.76 511.72 107.76C512.453 107.76 513.033 107.91 513.46 108.21C513.893 108.503 514.11 108.92 514.11 109.46Z" fill="#4284D8"/>
<rect x="488" y="84" width="42" height="17" rx="2" fill="#4284D8"/>
<circle cx="509" cy="92.5" r="7.5" fill="white"/>
<path d="M508.387 90.46C508.387 90.7867 508.317 91.07 508.177 91.31C508.044 91.55 507.861 91.7467 507.627 91.9C507.401 92.0533 507.141 92.1667 506.847 92.24V92.27C507.421 92.3367 507.854 92.51 508.147 92.79C508.447 93.07 508.597 93.4467 508.597 93.92C508.597 94.3333 508.494 94.7067 508.287 95.04C508.087 95.3667 507.774 95.6267 507.347 95.82C506.927 96.0067 506.384 96.1 505.717 96.1C505.324 96.1 504.957 96.0667 504.617 96C504.277 95.9333 503.957 95.8367 503.657 95.71V94.43C503.964 94.5833 504.284 94.7 504.617 94.78C504.957 94.86 505.271 94.9 505.557 94.9C506.097 94.9 506.474 94.8067 506.687 94.62C506.907 94.4333 507.017 94.17 507.017 93.83C507.017 93.63 506.967 93.4633 506.867 93.33C506.767 93.19 506.591 93.0867 506.337 93.02C506.091 92.9467 505.744 92.91 505.297 92.91H504.757V91.75H505.307C505.747 91.75 506.081 91.71 506.307 91.63C506.541 91.5433 506.697 91.43 506.777 91.29C506.864 91.1433 506.907 90.9767 506.907 90.79C506.907 90.5367 506.827 90.34 506.667 90.2C506.514 90.0533 506.254 89.98 505.887 89.98C505.661 89.98 505.454 90.01 505.267 90.07C505.081 90.1233 504.911 90.19 504.757 90.27C504.611 90.35 504.481 90.4267 504.367 90.5L503.667 89.46C503.854 89.3267 504.061 89.2067 504.287 89.1C504.521 88.9933 504.777 88.91 505.057 88.85C505.337 88.79 505.651 88.76 505.997 88.76C506.731 88.76 507.311 88.91 507.737 89.21C508.171 89.5033 508.387 89.92 508.387 90.46ZM514.39 96H509.4V94.95L511.19 93.14C511.55 92.7667 511.84 92.4567 512.06 92.21C512.28 91.9567 512.44 91.73 512.54 91.53C512.64 91.3233 512.69 91.1033 512.69 90.87C512.69 90.5833 512.61 90.37 512.45 90.23C512.297 90.09 512.087 90.02 511.82 90.02C511.547 90.02 511.28 90.0833 511.02 90.21C510.76 90.3367 510.487 90.5167 510.2 90.75L509.38 89.78C509.587 89.6 509.803 89.4333 510.03 89.28C510.263 89.1267 510.53 89.0033 510.83 88.91C511.137 88.81 511.503 88.76 511.93 88.76C512.397 88.76 512.797 88.8467 513.13 89.02C513.47 89.1867 513.73 89.4167 513.91 89.71C514.097 89.9967 514.19 90.3233 514.19 90.69C514.19 90.99 514.143 91.2667 514.05 91.52C513.963 91.7733 513.833 92.02 513.66 92.26C513.493 92.4933 513.287 92.7367 513.04 92.99C512.793 93.2367 512.513 93.5067 512.2 93.8L511.28 94.66V94.73H514.39V96Z" fill="#4284D8"/>
<rect x="488" y="65" width="42" height="17" rx="2" fill="#4284D8"/>
<circle cx="509" cy="73.5" r="7.5" fill="white"/>
<path d="M508.387 71.46C508.387 71.7867 508.317 72.07 508.177 72.31C508.044 72.55 507.861 72.7467 507.627 72.9C507.401 73.0533 507.141 73.1667 506.847 73.24V73.27C507.421 73.3367 507.854 73.51 508.147 73.79C508.447 74.07 508.597 74.4467 508.597 74.92C508.597 75.3333 508.494 75.7067 508.287 76.04C508.087 76.3667 507.774 76.6267 507.347 76.82C506.927 77.0067 506.384 77.1 505.717 77.1C505.324 77.1 504.957 77.0667 504.617 77C504.277 76.9333 503.957 76.8367 503.657 76.71V75.43C503.964 75.5833 504.284 75.7 504.617 75.78C504.957 75.86 505.271 75.9 505.557 75.9C506.097 75.9 506.474 75.8067 506.687 75.62C506.907 75.4333 507.017 75.17 507.017 74.83C507.017 74.63 506.967 74.4633 506.867 74.33C506.767 74.19 506.591 74.0867 506.337 74.02C506.091 73.9467 505.744 73.91 505.297 73.91H504.757V72.75H505.307C505.747 72.75 506.081 72.71 506.307 72.63C506.541 72.5433 506.697 72.43 506.777 72.29C506.864 72.1433 506.907 71.9767 506.907 71.79C506.907 71.5367 506.827 71.34 506.667 71.2C506.514 71.0533 506.254 70.98 505.887 70.98C505.661 70.98 505.454 71.01 505.267 71.07C505.081 71.1233 504.911 71.19 504.757 71.27C504.611 71.35 504.481 71.4267 504.367 71.5L503.667 70.46C503.854 70.3267 504.061 70.2067 504.287 70.1C504.521 69.9933 504.777 69.91 505.057 69.85C505.337 69.79 505.651 69.76 505.997 69.76C506.731 69.76 507.311 69.91 507.737 70.21C508.171 70.5033 508.387 70.92 508.387 71.46ZM513.13 77H511.62V72.87C511.62 72.7567 511.62 72.6167 511.62 72.45C511.627 72.2833 511.633 72.11 511.64 71.93C511.647 71.75 511.653 71.59 511.66 71.45C511.627 71.49 511.553 71.5633 511.44 71.67C511.333 71.77 511.233 71.86 511.14 71.94L510.32 72.6L509.59 71.69L511.89 69.86H513.13V77Z" fill="#4284D8"/>
<rect x="488" y="46" width="42" height="17" rx="2" fill="#4284D8"/>
<circle cx="509" cy="54.5" r="7.5" fill="white"/>
<path d="M508.387 52.46C508.387 52.7867 508.317 53.07 508.177 53.31C508.044 53.55 507.861 53.7467 507.627 53.9C507.401 54.0533 507.141 54.1667 506.847 54.24V54.27C507.421 54.3367 507.854 54.51 508.147 54.79C508.447 55.07 508.597 55.4467 508.597 55.92C508.597 56.3333 508.494 56.7067 508.287 57.04C508.087 57.3667 507.774 57.6267 507.347 57.82C506.927 58.0067 506.384 58.1 505.717 58.1C505.324 58.1 504.957 58.0667 504.617 58C504.277 57.9333 503.957 57.8367 503.657 57.71V56.43C503.964 56.5833 504.284 56.7 504.617 56.78C504.957 56.86 505.271 56.9 505.557 56.9C506.097 56.9 506.474 56.8067 506.687 56.62C506.907 56.4333 507.017 56.17 507.017 55.83C507.017 55.63 506.967 55.4633 506.867 55.33C506.767 55.19 506.591 55.0867 506.337 55.02C506.091 54.9467 505.744 54.91 505.297 54.91H504.757V53.75H505.307C505.747 53.75 506.081 53.71 506.307 53.63C506.541 53.5433 506.697 53.43 506.777 53.29C506.864 53.1433 506.907 52.9767 506.907 52.79C506.907 52.5367 506.827 52.34 506.667 52.2C506.514 52.0533 506.254 51.98 505.887 51.98C505.661 51.98 505.454 52.01 505.267 52.07C505.081 52.1233 504.911 52.19 504.757 52.27C504.611 52.35 504.481 52.4267 504.367 52.5L503.667 51.46C503.854 51.3267 504.061 51.2067 504.287 51.1C504.521 50.9933 504.777 50.91 505.057 50.85C505.337 50.79 505.651 50.76 505.997 50.76C506.731 50.76 507.311 50.91 507.737 51.21C508.171 51.5033 508.387 51.92 508.387 52.46ZM514.35 54.43C514.35 55.0033 514.303 55.5167 514.21 55.97C514.123 56.4233 513.98 56.81 513.78 57.13C513.587 57.4433 513.33 57.6833 513.01 57.85C512.697 58.0167 512.31 58.1 511.85 58.1C511.277 58.1 510.807 57.9533 510.44 57.66C510.073 57.3667 509.8 56.9467 509.62 56.4C509.447 55.8533 509.36 55.1967 509.36 54.43C509.36 53.6567 509.44 52.9967 509.6 52.45C509.76 51.9033 510.023 51.4833 510.39 51.19C510.757 50.8967 511.243 50.75 511.85 50.75C512.423 50.75 512.893 50.8967 513.26 51.19C513.627 51.4767 513.9 51.8967 514.08 52.45C514.26 52.9967 514.35 53.6567 514.35 54.43ZM510.86 54.43C510.86 54.97 510.89 55.4233 510.95 55.79C511.01 56.15 511.11 56.4233 511.25 56.61C511.397 56.79 511.597 56.88 511.85 56.88C512.103 56.88 512.3 56.79 512.44 56.61C512.587 56.43 512.69 56.16 512.75 55.8C512.817 55.4333 512.85 54.9767 512.85 54.43C512.85 53.8833 512.817 53.43 512.75 53.07C512.69 52.7033 512.587 52.43 512.44 52.25C512.3 52.0633 512.103 51.97 511.85 51.97C511.597 51.97 511.397 52.0633 511.25 52.25C511.11 52.43 511.01 52.7033 510.95 53.07C510.89 53.43 510.86 53.8833 510.86 54.43Z" fill="#4284D8"/>
<rect x="488" y="27" width="42" height="17" rx="2" fill="#4284D8"/>
<circle cx="509" cy="35.5" r="7.5" fill="white"/>
<path d="M508.667 39H503.677V37.95L505.467 36.14C505.827 35.7667 506.117 35.4567 506.337 35.21C506.557 34.9567 506.717 34.73 506.817 34.53C506.917 34.3233 506.967 34.1033 506.967 33.87C506.967 33.5833 506.887 33.37 506.727 33.23C506.574 33.09 506.364 33.02 506.097 33.02C505.824 33.02 505.557 33.0833 505.297 33.21C505.037 33.3367 504.764 33.5167 504.477 33.75L503.657 32.78C503.864 32.6 504.081 32.4333 504.307 32.28C504.541 32.1267 504.807 32.0033 505.107 31.91C505.414 31.81 505.781 31.76 506.207 31.76C506.674 31.76 507.074 31.8467 507.407 32.02C507.747 32.1867 508.007 32.4167 508.187 32.71C508.374 32.9967 508.467 33.3233 508.467 33.69C508.467 33.99 508.421 34.2667 508.327 34.52C508.241 34.7733 508.111 35.02 507.937 35.26C507.771 35.4933 507.564 35.7367 507.317 35.99C507.071 36.2367 506.791 36.5067 506.477 36.8L505.557 37.66V37.73H508.667V39ZM514.36 34.91C514.36 35.3167 514.33 35.7233 514.27 36.13C514.21 36.53 514.103 36.91 513.95 37.27C513.803 37.6233 513.593 37.94 513.32 38.22C513.053 38.4933 512.71 38.71 512.29 38.87C511.877 39.0233 511.373 39.1 510.78 39.1C510.64 39.1 510.477 39.0933 510.29 39.08C510.103 39.0733 509.947 39.0567 509.82 39.03V37.82C509.953 37.8467 510.093 37.87 510.24 37.89C510.387 37.91 510.533 37.92 510.68 37.92C511.127 37.92 511.493 37.8667 511.78 37.76C512.073 37.6533 512.303 37.5 512.47 37.3C512.637 37.1 512.757 36.8633 512.83 36.59C512.91 36.3167 512.957 36.0167 512.97 35.69H512.91C512.817 35.8433 512.703 35.9833 512.57 36.11C512.443 36.2367 512.28 36.3367 512.08 36.41C511.887 36.4833 511.637 36.52 511.33 36.52C510.923 36.52 510.57 36.4333 510.27 36.26C509.97 36.08 509.737 35.8233 509.57 35.49C509.403 35.15 509.32 34.74 509.32 34.26C509.32 33.74 509.417 33.2967 509.61 32.93C509.81 32.5567 510.093 32.2733 510.46 32.08C510.827 31.88 511.257 31.78 511.75 31.78C512.117 31.78 512.457 31.8433 512.77 31.97C513.09 32.0967 513.367 32.29 513.6 32.55C513.84 32.8033 514.027 33.1267 514.16 33.52C514.293 33.9133 514.36 34.3767 514.36 34.91ZM511.78 32.99C511.487 32.99 511.247 33.09 511.06 33.29C510.873 33.49 510.78 33.8067 510.78 34.24C510.78 34.5867 510.86 34.86 511.02 35.06C511.18 35.26 511.423 35.36 511.75 35.36C511.977 35.36 512.17 35.31 512.33 35.21C512.497 35.11 512.627 34.9867 512.72 34.84C512.813 34.6867 512.86 34.53 512.86 34.37C512.86 34.2033 512.837 34.04 512.79 33.88C512.743 33.7133 512.673 33.5633 512.58 33.43C512.493 33.2967 512.383 33.19 512.25 33.11C512.117 33.03 511.96 32.99 511.78 32.99Z" fill="#4284D8"/>
<rect x="488" y="8" width="42" height="17" rx="2" fill="#4284D8"/>
<circle cx="509" cy="16.5" r="7.5" fill="white"/>
<path d="M508.667 20H503.677V18.95L505.467 17.14C505.827 16.7667 506.117 16.4567 506.337 16.21C506.557 15.9567 506.717 15.73 506.817 15.53C506.917 15.3233 506.967 15.1033 506.967 14.87C506.967 14.5833 506.887 14.37 506.727 14.23C506.574 14.09 506.364 14.02 506.097 14.02C505.824 14.02 505.557 14.0833 505.297 14.21C505.037 14.3367 504.764 14.5167 504.477 14.75L503.657 13.78C503.864 13.6 504.081 13.4333 504.307 13.28C504.541 13.1267 504.807 13.0033 505.107 12.91C505.414 12.81 505.781 12.76 506.207 12.76C506.674 12.76 507.074 12.8467 507.407 13.02C507.747 13.1867 508.007 13.4167 508.187 13.71C508.374 13.9967 508.467 14.3233 508.467 14.69C508.467 14.99 508.421 15.2667 508.327 15.52C508.241 15.7733 508.111 16.02 507.937 16.26C507.771 16.4933 507.564 16.7367 507.317 16.99C507.071 17.2367 506.791 17.5067 506.477 17.8L505.557 18.66V18.73H508.667V20ZM511.86 12.77C512.273 12.77 512.65 12.8333 512.99 12.96C513.337 13.0867 513.613 13.2767 513.82 13.53C514.033 13.7833 514.14 14.1033 514.14 14.49C514.14 14.7767 514.083 15.03 513.97 15.25C513.857 15.4633 513.703 15.65 513.51 15.81C513.323 15.97 513.107 16.11 512.86 16.23C513.113 16.3633 513.353 16.52 513.58 16.7C513.813 16.8733 514 17.08 514.14 17.32C514.287 17.5533 514.36 17.83 514.36 18.15C514.36 18.5433 514.253 18.8867 514.04 19.18C513.833 19.4733 513.54 19.7 513.16 19.86C512.787 20.02 512.353 20.1 511.86 20.1C511.327 20.1 510.873 20.0233 510.5 19.87C510.127 19.7167 509.84 19.4967 509.64 19.21C509.447 18.9233 509.35 18.5833 509.35 18.19C509.35 17.8633 509.41 17.58 509.53 17.34C509.657 17.1 509.823 16.8933 510.03 16.72C510.237 16.54 510.467 16.39 510.72 16.27C510.507 16.1367 510.313 15.9867 510.14 15.82C509.967 15.6467 509.827 15.4533 509.72 15.24C509.62 15.02 509.57 14.7667 509.57 14.48C509.57 14.1 509.677 13.7833 509.89 13.53C510.103 13.2767 510.383 13.0867 510.73 12.96C511.083 12.8333 511.46 12.77 511.86 12.77ZM510.75 18.1C510.75 18.36 510.84 18.5733 511.02 18.74C511.207 18.9067 511.48 18.99 511.84 18.99C512.093 18.99 512.3 18.9533 512.46 18.88C512.627 18.8067 512.75 18.7033 512.83 18.57C512.917 18.4367 512.96 18.2833 512.96 18.11C512.96 17.93 512.907 17.7733 512.8 17.64C512.693 17.5 512.56 17.3767 512.4 17.27C512.247 17.1567 512.087 17.0533 511.92 16.96L511.79 16.89C511.583 16.9833 511.4 17.09 511.24 17.21C511.087 17.33 510.967 17.4633 510.88 17.61C510.793 17.75 510.75 17.9133 510.75 18.1ZM511.85 13.87C511.603 13.87 511.397 13.9333 511.23 14.06C511.07 14.1867 510.99 14.3667 510.99 14.6C510.99 14.76 511.03 14.9033 511.11 15.03C511.19 15.15 511.297 15.2567 511.43 15.35C511.563 15.4367 511.707 15.52 511.86 15.6C512.013 15.5267 512.153 15.4467 512.28 15.36C512.413 15.2733 512.52 15.17 512.6 15.05C512.68 14.9233 512.72 14.7733 512.72 14.6C512.72 14.3667 512.637 14.1867 512.47 14.06C512.31 13.9333 512.103 13.87 511.85 13.87Z" fill="#4284D8"/>
<rect x="529" y="459.857" width="25" height="47.8584" rx="2" transform="rotate(-180 529 459.857)" fill="#4284D8"/>
<ellipse cx="516.5" cy="436.407" rx="7.5" ry="7.17876" fill="white"/>
<path d="M516.327 438.749H515.467V440.229H513.997V438.749H510.947V437.699L514.077 433.089H515.467V437.579H516.327V438.749ZM513.997 436.369C513.997 436.255 513.997 436.122 513.997 435.969C514.004 435.809 514.011 435.652 514.017 435.499C514.024 435.339 514.031 435.199 514.037 435.079C514.044 434.952 514.051 434.865 514.057 434.819H514.017C513.957 434.952 513.894 435.082 513.827 435.209C513.761 435.335 513.681 435.465 513.587 435.599L512.277 437.579H513.997V436.369ZM521.85 436.659C521.85 437.232 521.803 437.745 521.71 438.199C521.623 438.652 521.48 439.039 521.28 439.359C521.087 439.672 520.83 439.912 520.51 440.079C520.197 440.245 519.81 440.329 519.35 440.329C518.777 440.329 518.307 440.182 517.94 439.889C517.573 439.595 517.3 439.175 517.12 438.629C516.947 438.082 516.86 437.425 516.86 436.659C516.86 435.885 516.94 435.225 517.1 434.679C517.26 434.132 517.523 433.712 517.89 433.419C518.257 433.125 518.743 432.979 519.35 432.979C519.923 432.979 520.393 433.125 520.76 433.419C521.127 433.705 521.4 434.125 521.58 434.679C521.76 435.225 521.85 435.885 521.85 436.659ZM518.36 436.659C518.36 437.199 518.39 437.652 518.45 438.019C518.51 438.379 518.61 438.652 518.75 438.839C518.897 439.019 519.097 439.109 519.35 439.109C519.603 439.109 519.8 439.019 519.94 438.839C520.087 438.659 520.19 438.389 520.25 438.029C520.317 437.662 520.35 437.205 520.35 436.659C520.35 436.112 520.317 435.659 520.25 435.299C520.19 434.932 520.087 434.659 519.94 434.479C519.8 434.292 519.603 434.199 519.35 434.199C519.097 434.199 518.897 434.292 518.75 434.479C518.61 434.659 518.51 434.932 518.45 435.299C518.39 435.659 518.36 436.112 518.36 436.659Z" fill="#4284D8"/>
<path d="M518.01 310.568C518.01 310.829 517.954 311.056 517.842 311.248C517.735 311.44 517.589 311.597 517.402 311.72C517.221 311.843 517.013 311.933 516.778 311.992V312.016C517.237 312.069 517.583 312.208 517.818 312.432C518.058 312.656 518.178 312.957 518.178 313.336C518.178 313.667 518.095 313.965 517.93 314.232C517.77 314.493 517.519 314.701 517.178 314.856C516.842 315.005 516.407 315.08 515.874 315.08C515.559 315.08 515.266 315.053 514.994 315C514.722 314.947 514.466 314.869 514.226 314.768V313.744C514.471 313.867 514.727 313.96 514.994 314.024C515.266 314.088 515.517 314.12 515.746 314.12C516.178 314.12 516.479 314.045 516.65 313.896C516.826 313.747 516.914 313.536 516.914 313.264C516.914 313.104 516.874 312.971 516.794 312.864C516.714 312.752 516.573 312.669 516.37 312.616C516.173 312.557 515.895 312.528 515.538 312.528H515.106V311.6H515.546C515.898 311.6 516.165 311.568 516.346 311.504C516.533 311.435 516.658 311.344 516.722 311.232C516.791 311.115 516.826 310.981 516.826 310.832C516.826 310.629 516.762 310.472 516.634 310.36C516.511 310.243 516.303 310.184 516.01 310.184C515.829 310.184 515.663 310.208 515.514 310.256C515.365 310.299 515.229 310.352 515.106 310.416C514.989 310.48 514.885 310.541 514.794 310.6L514.234 309.768C514.383 309.661 514.549 309.565 514.73 309.48C514.917 309.395 515.122 309.328 515.346 309.28C515.57 309.232 515.821 309.208 516.098 309.208C516.685 309.208 517.149 309.328 517.49 309.568C517.837 309.803 518.01 310.136 518.01 310.568ZM519.388 315L521.532 310.304H518.716V309.288H522.812V310.048L520.652 315H519.388Z" fill="#4284D8"/>
<path d="M518.01 332.568C518.01 332.829 517.954 333.056 517.842 333.248C517.735 333.44 517.589 333.597 517.402 333.72C517.221 333.843 517.013 333.933 516.778 333.992V334.016C517.237 334.069 517.583 334.208 517.818 334.432C518.058 334.656 518.178 334.957 518.178 335.336C518.178 335.667 518.095 335.965 517.93 336.232C517.77 336.493 517.519 336.701 517.178 336.856C516.842 337.005 516.407 337.08 515.874 337.08C515.559 337.08 515.266 337.053 514.994 337C514.722 336.947 514.466 336.869 514.226 336.768V335.744C514.471 335.867 514.727 335.96 514.994 336.024C515.266 336.088 515.517 336.12 515.746 336.12C516.178 336.12 516.479 336.045 516.65 335.896C516.826 335.747 516.914 335.536 516.914 335.264C516.914 335.104 516.874 334.971 516.794 334.864C516.714 334.752 516.573 334.669 516.37 334.616C516.173 334.557 515.895 334.528 515.538 334.528H515.106V333.6H515.546C515.898 333.6 516.165 333.568 516.346 333.504C516.533 333.435 516.658 333.344 516.722 333.232C516.791 333.115 516.826 332.981 516.826 332.832C516.826 332.629 516.762 332.472 516.634 332.36C516.511 332.243 516.303 332.184 516.01 332.184C515.829 332.184 515.663 332.208 515.514 332.256C515.365 332.299 515.229 332.352 515.106 332.416C514.989 332.48 514.885 332.541 514.794 332.6L514.234 331.768C514.383 331.661 514.549 331.565 514.73 331.48C514.917 331.395 515.122 331.328 515.346 331.28C515.57 331.232 515.821 331.208 516.098 331.208C516.685 331.208 517.149 331.328 517.49 331.568C517.837 331.803 518.01 332.136 518.01 332.568ZM520.788 331.216C521.119 331.216 521.42 331.267 521.692 331.368C521.969 331.469 522.191 331.621 522.356 331.824C522.527 332.027 522.612 332.283 522.612 332.592C522.612 332.821 522.567 333.024 522.476 333.2C522.385 333.371 522.263 333.52 522.108 333.648C521.959 333.776 521.785 333.888 521.588 333.984C521.791 334.091 521.983 334.216 522.164 334.36C522.351 334.499 522.5 334.664 522.612 334.856C522.729 335.043 522.788 335.264 522.788 335.52C522.788 335.835 522.703 336.109 522.532 336.344C522.367 336.579 522.132 336.76 521.828 336.888C521.529 337.016 521.183 337.08 520.788 337.08C520.361 337.08 519.999 337.019 519.7 336.896C519.401 336.773 519.172 336.597 519.012 336.368C518.857 336.139 518.78 335.867 518.78 335.552C518.78 335.291 518.828 335.064 518.924 334.872C519.025 334.68 519.159 334.515 519.324 334.376C519.489 334.232 519.673 334.112 519.876 334.016C519.705 333.909 519.551 333.789 519.412 333.656C519.273 333.517 519.161 333.363 519.076 333.192C518.996 333.016 518.956 332.813 518.956 332.584C518.956 332.28 519.041 332.027 519.212 331.824C519.383 331.621 519.607 331.469 519.884 331.368C520.167 331.267 520.468 331.216 520.788 331.216ZM519.9 335.48C519.9 335.688 519.972 335.859 520.116 335.992C520.265 336.125 520.484 336.192 520.772 336.192C520.975 336.192 521.14 336.163 521.268 336.104C521.401 336.045 521.5 335.963 521.564 335.856C521.633 335.749 521.668 335.627 521.668 335.488C521.668 335.344 521.625 335.219 521.54 335.112C521.455 335 521.348 334.901 521.22 334.816C521.097 334.725 520.969 334.643 520.836 334.568L520.732 334.512C520.567 334.587 520.42 334.672 520.292 334.768C520.169 334.864 520.073 334.971 520.004 335.088C519.935 335.2 519.9 335.331 519.9 335.48ZM520.78 332.096C520.583 332.096 520.417 332.147 520.284 332.248C520.156 332.349 520.092 332.493 520.092 332.68C520.092 332.808 520.124 332.923 520.188 333.024C520.252 333.12 520.337 333.205 520.444 333.28C520.551 333.349 520.665 333.416 520.788 333.48C520.911 333.421 521.023 333.357 521.124 333.288C521.231 333.219 521.316 333.136 521.38 333.04C521.444 332.939 521.476 332.819 521.476 332.68C521.476 332.493 521.409 332.349 521.276 332.248C521.148 332.147 520.983 332.096 520.78 332.096Z" fill="#4284D8"/>
<path d="M518.01 354.568C518.01 354.829 517.954 355.056 517.842 355.248C517.735 355.44 517.589 355.597 517.402 355.72C517.221 355.843 517.013 355.933 516.778 355.992V356.016C517.237 356.069 517.583 356.208 517.818 356.432C518.058 356.656 518.178 356.957 518.178 357.336C518.178 357.667 518.095 357.965 517.93 358.232C517.77 358.493 517.519 358.701 517.178 358.856C516.842 359.005 516.407 359.08 515.874 359.08C515.559 359.08 515.266 359.053 514.994 359C514.722 358.947 514.466 358.869 514.226 358.768V357.744C514.471 357.867 514.727 357.96 514.994 358.024C515.266 358.088 515.517 358.12 515.746 358.12C516.178 358.12 516.479 358.045 516.65 357.896C516.826 357.747 516.914 357.536 516.914 357.264C516.914 357.104 516.874 356.971 516.794 356.864C516.714 356.752 516.573 356.669 516.37 356.616C516.173 356.557 515.895 356.528 515.538 356.528H515.106V355.6H515.546C515.898 355.6 516.165 355.568 516.346 355.504C516.533 355.435 516.658 355.344 516.722 355.232C516.791 355.115 516.826 354.981 516.826 354.832C516.826 354.629 516.762 354.472 516.634 354.36C516.511 354.243 516.303 354.184 516.01 354.184C515.829 354.184 515.663 354.208 515.514 354.256C515.365 354.299 515.229 354.352 515.106 354.416C514.989 354.48 514.885 354.541 514.794 354.6L514.234 353.768C514.383 353.661 514.549 353.565 514.73 353.48C514.917 353.395 515.122 353.328 515.346 353.28C515.57 353.232 515.821 353.208 516.098 353.208C516.685 353.208 517.149 353.328 517.49 353.568C517.837 353.803 518.01 354.136 518.01 354.568ZM522.788 355.728C522.788 356.053 522.764 356.379 522.716 356.704C522.668 357.024 522.583 357.328 522.46 357.616C522.343 357.899 522.175 358.152 521.956 358.376C521.743 358.595 521.468 358.768 521.132 358.896C520.801 359.019 520.399 359.08 519.924 359.08C519.812 359.08 519.681 359.075 519.532 359.064C519.383 359.059 519.257 359.045 519.156 359.024V358.056C519.263 358.077 519.375 358.096 519.492 358.112C519.609 358.128 519.727 358.136 519.844 358.136C520.201 358.136 520.495 358.093 520.724 358.008C520.959 357.923 521.143 357.8 521.276 357.64C521.409 357.48 521.505 357.291 521.564 357.072C521.628 356.853 521.665 356.613 521.676 356.352H521.628C521.553 356.475 521.463 356.587 521.356 356.688C521.255 356.789 521.124 356.869 520.964 356.928C520.809 356.987 520.609 357.016 520.364 357.016C520.039 357.016 519.756 356.947 519.516 356.808C519.276 356.664 519.089 356.459 518.956 356.192C518.823 355.92 518.756 355.592 518.756 355.208C518.756 354.792 518.833 354.437 518.988 354.144C519.148 353.845 519.375 353.619 519.668 353.464C519.961 353.304 520.305 353.224 520.7 353.224C520.993 353.224 521.265 353.275 521.516 353.376C521.772 353.477 521.993 353.632 522.18 353.84C522.372 354.043 522.521 354.301 522.628 354.616C522.735 354.931 522.788 355.301 522.788 355.728ZM520.724 354.192C520.489 354.192 520.297 354.272 520.148 354.432C519.999 354.592 519.924 354.845 519.924 355.192C519.924 355.469 519.988 355.688 520.116 355.848C520.244 356.008 520.439 356.088 520.7 356.088C520.881 356.088 521.036 356.048 521.164 355.968C521.297 355.888 521.401 355.789 521.476 355.672C521.551 355.549 521.588 355.424 521.588 355.296C521.588 355.163 521.569 355.032 521.532 354.904C521.495 354.771 521.439 354.651 521.364 354.544C521.295 354.437 521.207 354.352 521.1 354.288C520.993 354.224 520.868 354.192 520.724 354.192Z" fill="#4284D8"/>
<rect x="583" y="483" width="25" height="25" rx="2" transform="rotate(-180 583 483)" fill="#4284D8"/>
<circle cx="570.5" cy="470.5" r="7.5" fill="white"/>
<path d="M570.327 472.52H569.467V474H567.997V472.52H564.947V471.47L568.077 466.86H569.467V471.35H570.327V472.52ZM567.997 470.14C567.997 470.027 567.997 469.893 567.997 469.74C568.004 469.58 568.011 469.423 568.017 469.27C568.024 469.11 568.031 468.97 568.037 468.85C568.044 468.723 568.051 468.637 568.057 468.59H568.017C567.957 468.723 567.894 468.853 567.827 468.98C567.761 469.107 567.681 469.237 567.587 469.37L566.277 471.35H567.997V470.14ZM574.63 474H573.12V469.87C573.12 469.757 573.12 469.617 573.12 469.45C573.127 469.283 573.133 469.11 573.14 468.93C573.147 468.75 573.153 468.59 573.16 468.45C573.127 468.49 573.053 468.563 572.94 468.67C572.833 468.77 572.733 468.86 572.64 468.94L571.82 469.6L571.09 468.69L573.39 466.86H574.63V474Z" fill="#4284D8"/>
<rect x="608" y="483" width="25" height="25" rx="2" transform="rotate(-180 608 483)" fill="#4284D8"/>
<circle cx="595.5" cy="470.5" r="7.5" fill="white"/>
<path d="M595.327 472.52H594.467V474H592.997V472.52H589.947V471.47L593.077 466.86H594.467V471.35H595.327V472.52ZM592.997 470.14C592.997 470.027 592.997 469.893 592.997 469.74C593.004 469.58 593.011 469.423 593.017 469.27C593.024 469.11 593.031 468.97 593.037 468.85C593.044 468.723 593.051 468.637 593.057 468.59H593.017C592.957 468.723 592.894 468.853 592.827 468.98C592.761 469.107 592.681 469.237 592.587 469.37L591.277 471.35H592.997V470.14ZM600.89 474H595.9V472.95L597.69 471.14C598.05 470.767 598.34 470.457 598.56 470.21C598.78 469.957 598.94 469.73 599.04 469.53C599.14 469.323 599.19 469.103 599.19 468.87C599.19 468.583 599.11 468.37 598.95 468.23C598.797 468.09 598.587 468.02 598.32 468.02C598.047 468.02 597.78 468.083 597.52 468.21C597.26 468.337 596.987 468.517 596.7 468.75L595.88 467.78C596.087 467.6 596.303 467.433 596.53 467.28C596.763 467.127 597.03 467.003 597.33 466.91C597.637 466.81 598.003 466.76 598.43 466.76C598.897 466.76 599.297 466.847 599.63 467.02C599.97 467.187 600.23 467.417 600.41 467.71C600.597 467.997 600.69 468.323 600.69 468.69C600.69 468.99 600.643 469.267 600.55 469.52C600.463 469.773 600.333 470.02 600.16 470.26C599.993 470.493 599.787 470.737 599.54 470.99C599.293 471.237 599.013 471.507 598.7 471.8L597.78 472.66V472.73H600.89V474Z" fill="#4284D8"/>
<rect x="647" y="483" width="25" height="25" rx="2" transform="rotate(-180 647 483)" fill="#4284D8"/>
<circle cx="634.5" cy="470.5" r="7.5" fill="white"/>
<path d="M634.327 472.52H633.467V474H631.997V472.52H628.947V471.47L632.077 466.86H633.467V471.35H634.327V472.52ZM631.997 470.14C631.997 470.027 631.997 469.893 631.997 469.74C632.004 469.58 632.011 469.423 632.017 469.27C632.024 469.11 632.031 468.97 632.037 468.85C632.044 468.723 632.051 468.637 632.057 468.59H632.017C631.957 468.723 631.894 468.853 631.827 468.98C631.761 469.107 631.681 469.237 631.587 469.37L630.277 471.35H631.997V470.14ZM639.61 468.46C639.61 468.787 639.54 469.07 639.4 469.31C639.267 469.55 639.083 469.747 638.85 469.9C638.623 470.053 638.363 470.167 638.07 470.24V470.27C638.643 470.337 639.077 470.51 639.37 470.79C639.67 471.07 639.82 471.447 639.82 471.92C639.82 472.333 639.717 472.707 639.51 473.04C639.31 473.367 638.997 473.627 638.57 473.82C638.15 474.007 637.607 474.1 636.94 474.1C636.547 474.1 636.18 474.067 635.84 474C635.5 473.933 635.18 473.837 634.88 473.71V472.43C635.187 472.583 635.507 472.7 635.84 472.78C636.18 472.86 636.493 472.9 636.78 472.9C637.32 472.9 637.697 472.807 637.91 472.62C638.13 472.433 638.24 472.17 638.24 471.83C638.24 471.63 638.19 471.463 638.09 471.33C637.99 471.19 637.813 471.087 637.56 471.02C637.313 470.947 636.967 470.91 636.52 470.91H635.98V469.75H636.53C636.97 469.75 637.303 469.71 637.53 469.63C637.763 469.543 637.92 469.43 638 469.29C638.087 469.143 638.13 468.977 638.13 468.79C638.13 468.537 638.05 468.34 637.89 468.2C637.737 468.053 637.477 467.98 637.11 467.98C636.883 467.98 636.677 468.01 636.49 468.07C636.303 468.123 636.133 468.19 635.98 468.27C635.833 468.35 635.703 468.427 635.59 468.5L634.89 467.46C635.077 467.327 635.283 467.207 635.51 467.1C635.743 466.993 636 466.91 636.28 466.85C636.56 466.79 636.873 466.76 637.22 466.76C637.953 466.76 638.533 466.91 638.96 467.21C639.393 467.503 639.61 467.92 639.61 468.46Z" fill="#4284D8"/>
<rect x="743" y="656" width="25" height="25" rx="2" transform="rotate(-180 743 656)" fill="#4284D8"/>
<circle cx="730.5" cy="643.5" r="7.5" fill="white"/>
<path d="M730.327 645.52H729.467V647H727.997V645.52H724.947V644.47L728.077 639.86H729.467V644.35H730.327V645.52ZM727.997 643.14C727.997 643.027 727.997 642.893 727.997 642.74C728.004 642.58 728.011 642.423 728.017 642.27C728.024 642.11 728.031 641.97 728.037 641.85C728.044 641.723 728.051 641.637 728.057 641.59H728.017C727.957 641.723 727.894 641.853 727.827 641.98C727.761 642.107 727.681 642.237 727.587 642.37L726.277 644.35H727.997V643.14ZM733.36 639.77C733.773 639.77 734.15 639.833 734.49 639.96C734.837 640.087 735.113 640.277 735.32 640.53C735.533 640.783 735.64 641.103 735.64 641.49C735.64 641.777 735.583 642.03 735.47 642.25C735.357 642.463 735.203 642.65 735.01 642.81C734.823 642.97 734.607 643.11 734.36 643.23C734.613 643.363 734.853 643.52 735.08 643.7C735.313 643.873 735.5 644.08 735.64 644.32C735.787 644.553 735.86 644.83 735.86 645.15C735.86 645.543 735.753 645.887 735.54 646.18C735.333 646.473 735.04 646.7 734.66 646.86C734.287 647.02 733.853 647.1 733.36 647.1C732.827 647.1 732.373 647.023 732 646.87C731.627 646.717 731.34 646.497 731.14 646.21C730.947 645.923 730.85 645.583 730.85 645.19C730.85 644.863 730.91 644.58 731.03 644.34C731.157 644.1 731.323 643.893 731.53 643.72C731.737 643.54 731.967 643.39 732.22 643.27C732.007 643.137 731.813 642.987 731.64 642.82C731.467 642.647 731.327 642.453 731.22 642.24C731.12 642.02 731.07 641.767 731.07 641.48C731.07 641.1 731.177 640.783 731.39 640.53C731.603 640.277 731.883 640.087 732.23 639.96C732.583 639.833 732.96 639.77 733.36 639.77ZM732.25 645.1C732.25 645.36 732.34 645.573 732.52 645.74C732.707 645.907 732.98 645.99 733.34 645.99C733.593 645.99 733.8 645.953 733.96 645.88C734.127 645.807 734.25 645.703 734.33 645.57C734.417 645.437 734.46 645.283 734.46 645.11C734.46 644.93 734.407 644.773 734.3 644.64C734.193 644.5 734.06 644.377 733.9 644.27C733.747 644.157 733.587 644.053 733.42 643.96L733.29 643.89C733.083 643.983 732.9 644.09 732.74 644.21C732.587 644.33 732.467 644.463 732.38 644.61C732.293 644.75 732.25 644.913 732.25 645.1ZM733.35 640.87C733.103 640.87 732.897 640.933 732.73 641.06C732.57 641.187 732.49 641.367 732.49 641.6C732.49 641.76 732.53 641.903 732.61 642.03C732.69 642.15 732.797 642.257 732.93 642.35C733.063 642.437 733.207 642.52 733.36 642.6C733.513 642.527 733.653 642.447 733.78 642.36C733.913 642.273 734.02 642.17 734.1 642.05C734.18 641.923 734.22 641.773 734.22 641.6C734.22 641.367 734.137 641.187 733.97 641.06C733.81 640.933 733.603 640.87 733.35 640.87Z" fill="#4284D8"/>
<rect x="672" y="483" width="25" height="25" rx="2" transform="rotate(-180 672 483)" fill="#4284D8"/>
<circle cx="659.5" cy="470.5" r="7.5" fill="white"/>
<path d="M659.327 472.52H658.467V474H656.997V472.52H653.947V471.47L657.077 466.86H658.467V471.35H659.327V472.52ZM656.997 470.14C656.997 470.027 656.997 469.893 656.997 469.74C657.004 469.58 657.011 469.423 657.017 469.27C657.024 469.11 657.031 468.97 657.037 468.85C657.044 468.723 657.051 468.637 657.057 468.59H657.017C656.957 468.723 656.894 468.853 656.827 468.98C656.761 469.107 656.681 469.237 656.587 469.37L655.277 471.35H656.997V470.14ZM665.05 472.52H664.19V474H662.72V472.52H659.67V471.47L662.8 466.86H664.19V471.35H665.05V472.52ZM662.72 470.14C662.72 470.027 662.72 469.893 662.72 469.74C662.727 469.58 662.733 469.423 662.74 469.27C662.747 469.11 662.753 468.97 662.76 468.85C662.767 468.723 662.773 468.637 662.78 468.59H662.74C662.68 468.723 662.617 468.853 662.55 468.98C662.483 469.107 662.403 469.237 662.31 469.37L661 471.35H662.72V470.14Z" fill="#4284D8"/>
<rect x="770" y="656" width="25" height="25" rx="2" transform="rotate(-180 770 656)" fill="#4284D8"/>
<circle cx="757.5" cy="643.5" r="7.5" fill="white"/>
<path d="M757.327 645.52H756.467V647H754.997V645.52H751.947V644.47L755.077 639.86H756.467V644.35H757.327V645.52ZM754.997 643.14C754.997 643.027 754.997 642.893 754.997 642.74C755.004 642.58 755.011 642.423 755.017 642.27C755.024 642.11 755.031 641.97 755.037 641.85C755.044 641.723 755.051 641.637 755.057 641.59H755.017C754.957 641.723 754.894 641.853 754.827 641.98C754.761 642.107 754.681 642.237 754.587 642.37L753.277 644.35H754.997V643.14ZM762.86 642.91C762.86 643.317 762.83 643.723 762.77 644.13C762.71 644.53 762.603 644.91 762.45 645.27C762.303 645.623 762.093 645.94 761.82 646.22C761.553 646.493 761.21 646.71 760.79 646.87C760.377 647.023 759.873 647.1 759.28 647.1C759.14 647.1 758.977 647.093 758.79 647.08C758.603 647.073 758.447 647.057 758.32 647.03V645.82C758.453 645.847 758.593 645.87 758.74 645.89C758.887 645.91 759.033 645.92 759.18 645.92C759.627 645.92 759.993 645.867 760.28 645.76C760.573 645.653 760.803 645.5 760.97 645.3C761.137 645.1 761.257 644.863 761.33 644.59C761.41 644.317 761.457 644.017 761.47 643.69H761.41C761.317 643.843 761.203 643.983 761.07 644.11C760.943 644.237 760.78 644.337 760.58 644.41C760.387 644.483 760.137 644.52 759.83 644.52C759.423 644.52 759.07 644.433 758.77 644.26C758.47 644.08 758.237 643.823 758.07 643.49C757.903 643.15 757.82 642.74 757.82 642.26C757.82 641.74 757.917 641.297 758.11 640.93C758.31 640.557 758.593 640.273 758.96 640.08C759.327 639.88 759.757 639.78 760.25 639.78C760.617 639.78 760.957 639.843 761.27 639.97C761.59 640.097 761.867 640.29 762.1 640.55C762.34 640.803 762.527 641.127 762.66 641.52C762.793 641.913 762.86 642.377 762.86 642.91ZM760.28 640.99C759.987 640.99 759.747 641.09 759.56 641.29C759.373 641.49 759.28 641.807 759.28 642.24C759.28 642.587 759.36 642.86 759.52 643.06C759.68 643.26 759.923 643.36 760.25 643.36C760.477 643.36 760.67 643.31 760.83 643.21C760.997 643.11 761.127 642.987 761.22 642.84C761.313 642.687 761.36 642.53 761.36 642.37C761.36 642.203 761.337 642.04 761.29 641.88C761.243 641.713 761.173 641.563 761.08 641.43C760.993 641.297 760.883 641.19 760.75 641.11C760.617 641.03 760.46 640.99 760.28 640.99Z" fill="#4284D8"/>
<rect x="697" y="483" width="25" height="25" rx="2" transform="rotate(-180 697 483)" fill="#4284D8"/>
<circle cx="684.5" cy="470.5" r="7.5" fill="white"/>
<path d="M684.327 472.52H683.467V474H681.997V472.52H678.947V471.47L682.077 466.86H683.467V471.35H684.327V472.52ZM681.997 470.14C681.997 470.027 681.997 469.893 681.997 469.74C682.004 469.58 682.011 469.423 682.017 469.27C682.024 469.11 682.031 468.97 682.037 468.85C682.044 468.723 682.051 468.637 682.057 468.59H682.017C681.957 468.723 681.894 468.853 681.827 468.98C681.761 469.107 681.681 469.237 681.587 469.37L680.277 471.35H681.997V470.14ZM687.5 469.44C687.933 469.44 688.32 469.523 688.66 469.69C689 469.857 689.267 470.1 689.46 470.42C689.66 470.74 689.76 471.137 689.76 471.61C689.76 472.123 689.653 472.567 689.44 472.94C689.227 473.313 688.907 473.6 688.48 473.8C688.06 474 687.537 474.1 686.91 474.1C686.537 474.1 686.183 474.067 685.85 474C685.523 473.933 685.237 473.837 684.99 473.71V472.41C685.237 472.537 685.533 472.647 685.88 472.74C686.227 472.827 686.553 472.87 686.86 472.87C687.16 472.87 687.41 472.83 687.61 472.75C687.817 472.67 687.973 472.547 688.08 472.38C688.187 472.213 688.24 472 688.24 471.74C688.24 471.387 688.123 471.12 687.89 470.94C687.657 470.753 687.297 470.66 686.81 470.66C686.623 470.66 686.43 470.68 686.23 470.72C686.03 470.753 685.863 470.787 685.73 470.82L685.13 470.5L685.4 466.86H689.27V468.14H686.72L686.59 469.54C686.703 469.52 686.823 469.5 686.95 469.48C687.083 469.453 687.267 469.44 687.5 469.44Z" fill="#4284D8"/>
<rect x="797" y="656" width="25" height="25" rx="2" transform="rotate(-180 797 656)" fill="#4284D8"/>
<circle cx="784.5" cy="643.5" r="7.5" fill="white"/>
<path d="M781.777 642.44C782.211 642.44 782.597 642.523 782.937 642.69C783.277 642.857 783.544 643.1 783.737 643.42C783.937 643.74 784.037 644.137 784.037 644.61C784.037 645.123 783.931 645.567 783.717 645.94C783.504 646.313 783.184 646.6 782.757 646.8C782.337 647 781.814 647.1 781.187 647.1C780.814 647.1 780.461 647.067 780.127 647C779.801 646.933 779.514 646.837 779.267 646.71V645.41C779.514 645.537 779.811 645.647 780.157 645.74C780.504 645.827 780.831 645.87 781.137 645.87C781.437 645.87 781.687 645.83 781.887 645.75C782.094 645.67 782.251 645.547 782.357 645.38C782.464 645.213 782.517 645 782.517 644.74C782.517 644.387 782.401 644.12 782.167 643.94C781.934 643.753 781.574 643.66 781.087 643.66C780.901 643.66 780.707 643.68 780.507 643.72C780.307 643.753 780.141 643.787 780.007 643.82L779.407 643.5L779.677 639.86H783.547V641.14H780.997L780.867 642.54C780.981 642.52 781.101 642.5 781.227 642.48C781.361 642.453 781.544 642.44 781.777 642.44ZM789.85 643.43C789.85 644.003 789.803 644.517 789.71 644.97C789.623 645.423 789.48 645.81 789.28 646.13C789.087 646.443 788.83 646.683 788.51 646.85C788.197 647.017 787.81 647.1 787.35 647.1C786.777 647.1 786.307 646.953 785.94 646.66C785.573 646.367 785.3 645.947 785.12 645.4C784.947 644.853 784.86 644.197 784.86 643.43C784.86 642.657 784.94 641.997 785.1 641.45C785.26 640.903 785.523 640.483 785.89 640.19C786.257 639.897 786.743 639.75 787.35 639.75C787.923 639.75 788.393 639.897 788.76 640.19C789.127 640.477 789.4 640.897 789.58 641.45C789.76 641.997 789.85 642.657 789.85 643.43ZM786.36 643.43C786.36 643.97 786.39 644.423 786.45 644.79C786.51 645.15 786.61 645.423 786.75 645.61C786.897 645.79 787.097 645.88 787.35 645.88C787.603 645.88 787.8 645.79 787.94 645.61C788.087 645.43 788.19 645.16 788.25 644.8C788.317 644.433 788.35 643.977 788.35 643.43C788.35 642.883 788.317 642.43 788.25 642.07C788.19 641.703 788.087 641.43 787.94 641.25C787.8 641.063 787.603 640.97 787.35 640.97C787.097 640.97 786.897 641.063 786.75 641.25C786.61 641.43 786.51 641.703 786.45 642.07C786.39 642.43 786.36 642.883 786.36 643.43Z" fill="#4284D8"/>
<rect x="824" y="656" width="25" height="25" rx="2" transform="rotate(-180 824 656)" fill="#4284D8"/>
<circle cx="811.5" cy="643.5" r="7.5" fill="white"/>
<path d="M808.777 642.44C809.211 642.44 809.597 642.523 809.937 642.69C810.277 642.857 810.544 643.1 810.737 643.42C810.937 643.74 811.037 644.137 811.037 644.61C811.037 645.123 810.931 645.567 810.717 645.94C810.504 646.313 810.184 646.6 809.757 646.8C809.337 647 808.814 647.1 808.187 647.1C807.814 647.1 807.461 647.067 807.127 647C806.801 646.933 806.514 646.837 806.267 646.71V645.41C806.514 645.537 806.811 645.647 807.157 645.74C807.504 645.827 807.831 645.87 808.137 645.87C808.437 645.87 808.687 645.83 808.887 645.75C809.094 645.67 809.251 645.547 809.357 645.38C809.464 645.213 809.517 645 809.517 644.74C809.517 644.387 809.401 644.12 809.167 643.94C808.934 643.753 808.574 643.66 808.087 643.66C807.901 643.66 807.707 643.68 807.507 643.72C807.307 643.753 807.141 643.787 807.007 643.82L806.407 643.5L806.677 639.86H810.547V641.14H807.997L807.867 642.54C807.981 642.52 808.101 642.5 808.227 642.48C808.361 642.453 808.544 642.44 808.777 642.44ZM815.63 647H814.12V642.87C814.12 642.757 814.12 642.617 814.12 642.45C814.127 642.283 814.133 642.11 814.14 641.93C814.147 641.75 814.153 641.59 814.16 641.45C814.127 641.49 814.053 641.563 813.94 641.67C813.833 641.77 813.733 641.86 813.64 641.94L812.82 642.6L812.09 641.69L814.39 639.86H815.63V647Z" fill="#4284D8"/>
<rect x="851" y="656" width="25" height="25" rx="2" transform="rotate(-180 851 656)" fill="#4284D8"/>
<circle cx="838.5" cy="643.5" r="7.5" fill="white"/>
<path d="M835.777 642.44C836.211 642.44 836.597 642.523 836.937 642.69C837.277 642.857 837.544 643.1 837.737 643.42C837.937 643.74 838.037 644.137 838.037 644.61C838.037 645.123 837.931 645.567 837.717 645.94C837.504 646.313 837.184 646.6 836.757 646.8C836.337 647 835.814 647.1 835.187 647.1C834.814 647.1 834.461 647.067 834.127 647C833.801 646.933 833.514 646.837 833.267 646.71V645.41C833.514 645.537 833.811 645.647 834.157 645.74C834.504 645.827 834.831 645.87 835.137 645.87C835.437 645.87 835.687 645.83 835.887 645.75C836.094 645.67 836.251 645.547 836.357 645.38C836.464 645.213 836.517 645 836.517 644.74C836.517 644.387 836.401 644.12 836.167 643.94C835.934 643.753 835.574 643.66 835.087 643.66C834.901 643.66 834.707 643.68 834.507 643.72C834.307 643.753 834.141 643.787 834.007 643.82L833.407 643.5L833.677 639.86H837.547V641.14H834.997L834.867 642.54C834.981 642.52 835.101 642.5 835.227 642.48C835.361 642.453 835.544 642.44 835.777 642.44ZM843.89 647H838.9V645.95L840.69 644.14C841.05 643.767 841.34 643.457 841.56 643.21C841.78 642.957 841.94 642.73 842.04 642.53C842.14 642.323 842.19 642.103 842.19 641.87C842.19 641.583 842.11 641.37 841.95 641.23C841.797 641.09 841.587 641.02 841.32 641.02C841.047 641.02 840.78 641.083 840.52 641.21C840.26 641.337 839.987 641.517 839.7 641.75L838.88 640.78C839.087 640.6 839.303 640.433 839.53 640.28C839.763 640.127 840.03 640.003 840.33 639.91C840.637 639.81 841.003 639.76 841.43 639.76C841.897 639.76 842.297 639.847 842.63 640.02C842.97 640.187 843.23 640.417 843.41 640.71C843.597 640.997 843.69 641.323 843.69 641.69C843.69 641.99 843.643 642.267 843.55 642.52C843.463 642.773 843.333 643.02 843.16 643.26C842.993 643.493 842.787 643.737 842.54 643.99C842.293 644.237 842.013 644.507 841.7 644.8L840.78 645.66V645.73H843.89V647Z" fill="#4284D8"/>
<rect x="878" y="656" width="25" height="25" rx="2" transform="rotate(-180 878 656)" fill="#4284D8"/>
<circle cx="865.5" cy="643.5" r="7.5" fill="white"/>
<path d="M862.777 642.44C863.211 642.44 863.597 642.523 863.937 642.69C864.277 642.857 864.544 643.1 864.737 643.42C864.937 643.74 865.037 644.137 865.037 644.61C865.037 645.123 864.931 645.567 864.717 645.94C864.504 646.313 864.184 646.6 863.757 646.8C863.337 647 862.814 647.1 862.187 647.1C861.814 647.1 861.461 647.067 861.127 647C860.801 646.933 860.514 646.837 860.267 646.71V645.41C860.514 645.537 860.811 645.647 861.157 645.74C861.504 645.827 861.831 645.87 862.137 645.87C862.437 645.87 862.687 645.83 862.887 645.75C863.094 645.67 863.251 645.547 863.357 645.38C863.464 645.213 863.517 645 863.517 644.74C863.517 644.387 863.401 644.12 863.167 643.94C862.934 643.753 862.574 643.66 862.087 643.66C861.901 643.66 861.707 643.68 861.507 643.72C861.307 643.753 861.141 643.787 861.007 643.82L860.407 643.5L860.677 639.86H864.547V641.14H861.997L861.867 642.54C861.981 642.52 862.101 642.5 862.227 642.48C862.361 642.453 862.544 642.44 862.777 642.44ZM870.61 641.46C870.61 641.787 870.54 642.07 870.4 642.31C870.267 642.55 870.083 642.747 869.85 642.9C869.623 643.053 869.363 643.167 869.07 643.24V643.27C869.643 643.337 870.077 643.51 870.37 643.79C870.67 644.07 870.82 644.447 870.82 644.92C870.82 645.333 870.717 645.707 870.51 646.04C870.31 646.367 869.997 646.627 869.57 646.82C869.15 647.007 868.607 647.1 867.94 647.1C867.547 647.1 867.18 647.067 866.84 647C866.5 646.933 866.18 646.837 865.88 646.71V645.43C866.187 645.583 866.507 645.7 866.84 645.78C867.18 645.86 867.493 645.9 867.78 645.9C868.32 645.9 868.697 645.807 868.91 645.62C869.13 645.433 869.24 645.17 869.24 644.83C869.24 644.63 869.19 644.463 869.09 644.33C868.99 644.19 868.813 644.087 868.56 644.02C868.313 643.947 867.967 643.91 867.52 643.91H866.98V642.75H867.53C867.97 642.75 868.303 642.71 868.53 642.63C868.763 642.543 868.92 642.43 869 642.29C869.087 642.143 869.13 641.977 869.13 641.79C869.13 641.537 869.05 641.34 868.89 641.2C868.737 641.053 868.477 640.98 868.11 640.98C867.883 640.98 867.677 641.01 867.49 641.07C867.303 641.123 867.133 641.19 866.98 641.27C866.833 641.35 866.703 641.427 866.59 641.5L865.89 640.46C866.077 640.327 866.283 640.207 866.51 640.1C866.743 639.993 867 639.91 867.28 639.85C867.56 639.79 867.873 639.76 868.22 639.76C868.953 639.76 869.533 639.91 869.96 640.21C870.393 640.503 870.61 640.92 870.61 641.46Z" fill="#4284D8"/>
<rect x="729" y="456" width="25" height="25" rx="2" transform="rotate(-180 729 456)" fill="#4284D8"/>
<circle cx="716.5" cy="443.5" r="7.5" fill="white"/>
<path d="M716.327 445.52H715.467V447H713.997V445.52H710.947V444.47L714.077 439.86H715.467V444.35H716.327V445.52ZM713.997 443.14C713.997 443.027 713.997 442.893 713.997 442.74C714.004 442.58 714.011 442.423 714.017 442.27C714.024 442.11 714.031 441.97 714.037 441.85C714.044 441.723 714.051 441.637 714.057 441.59H714.017C713.957 441.723 713.894 441.853 713.827 441.98C713.761 442.107 713.681 442.237 713.587 442.37L712.277 444.35H713.997V443.14ZM716.85 443.97C716.85 443.557 716.88 443.15 716.94 442.75C717 442.35 717.103 441.973 717.25 441.62C717.403 441.26 717.613 440.943 717.88 440.67C718.153 440.39 718.497 440.173 718.91 440.02C719.33 439.86 719.837 439.78 720.43 439.78C720.57 439.78 720.733 439.787 720.92 439.8C721.107 439.807 721.263 439.823 721.39 439.85V441.06C721.263 441.027 721.123 441.003 720.97 440.99C720.823 440.97 720.677 440.96 720.53 440.96C720.083 440.96 719.713 441.013 719.42 441.12C719.133 441.227 718.907 441.38 718.74 441.58C718.573 441.78 718.45 442.017 718.37 442.29C718.297 442.557 718.253 442.857 718.24 443.19H718.3C718.393 443.03 718.507 442.89 718.64 442.77C718.78 442.643 718.95 442.543 719.15 442.47C719.35 442.397 719.583 442.36 719.85 442.36C720.27 442.36 720.63 442.45 720.93 442.63C721.237 442.803 721.473 443.06 721.64 443.4C721.807 443.733 721.89 444.14 721.89 444.62C721.89 445.133 721.79 445.577 721.59 445.95C721.397 446.323 721.117 446.61 720.75 446.81C720.39 447.003 719.96 447.1 719.46 447.1C719.093 447.1 718.75 447.037 718.43 446.91C718.117 446.783 717.84 446.593 717.6 446.34C717.367 446.08 717.183 445.753 717.05 445.36C716.917 444.967 716.85 444.503 716.85 443.97ZM719.43 445.89C719.723 445.89 719.963 445.79 720.15 445.59C720.337 445.383 720.43 445.067 720.43 444.64C720.43 444.293 720.35 444.02 720.19 443.82C720.03 443.62 719.787 443.52 719.46 443.52C719.24 443.52 719.047 443.57 718.88 443.67C718.713 443.763 718.583 443.887 718.49 444.04C718.397 444.193 718.35 444.35 718.35 444.51C718.35 444.677 718.373 444.843 718.42 445.01C718.467 445.17 718.533 445.317 718.62 445.45C718.713 445.583 718.827 445.69 718.96 445.77C719.093 445.85 719.25 445.89 719.43 445.89Z" fill="#4284D8"/>
<rect x="816" y="526" width="78" height="25" rx="2" transform="rotate(-180 816 526)" fill="#4284D8"/>
<circle cx="777.5" cy="513.5" r="7.5" fill="white"/>
<path d="M777.327 515.52H776.467V517H774.997V515.52H771.947V514.47L775.077 509.86H776.467V514.35H777.327V515.52ZM774.997 513.14C774.997 513.027 774.997 512.893 774.997 512.74C775.004 512.58 775.011 512.423 775.017 512.27C775.024 512.11 775.031 511.97 775.037 511.85C775.044 511.723 775.051 511.637 775.057 511.59H775.017C774.957 511.723 774.894 511.853 774.827 511.98C774.761 512.107 774.681 512.237 774.587 512.37L773.277 514.35H774.997V513.14ZM778.61 517L781.29 511.13H777.77V509.86H782.89V510.81L780.19 517H778.61Z" fill="#4284D8"/>
<defs>
<filter id="filter0_d_7495_4427" x="580" y="0" width="82" height="123" filterUnits="userSpaceOnUse" color-interpolation-filters="sRGB">
<feFlood flood-opacity="0" result="BackgroundImageFix"/>
<feColorMatrix in="SourceAlpha" type="matrix" values="0 0 0 0 0 0 0 0 0 0 0 0 0 0 0 0 0 0 127 0" result="hardAlpha"/>
<feOffset dy="3"/>
<feComposite in2="hardAlpha" operator="out"/>
<feColorMatrix type="matrix" values="0 0 0 0 0.258824 0 0 0 0 0.517647 0 0 0 0 0.847059 0 0 0 0.5 0"/>
<feBlend mode="normal" in2="BackgroundImageFix" result="effect1_dropShadow_7495_4427"/>
<feBlend mode="normal" in="SourceGraphic" in2="effect1_dropShadow_7495_4427" result="shape"/>
</filter>
</defs>
</svg>
