<svg width="774" height="238" viewBox="0 0 774 238" fill="none" xmlns="http://www.w3.org/2000/svg">
<rect width="25" height="25" rx="2" fill="#042284"/>
<circle cx="12.5" cy="12.5" r="7.5" fill="white"/>
<path d="M14.9987 11.91C14.9987 12.3167 14.9687 12.7233 14.9087 13.13C14.8487 13.53 14.742 13.91 14.5887 14.27C14.442 14.6233 14.232 14.94 13.9587 15.22C13.692 15.4933 13.3487 15.71 12.9287 15.87C12.5153 16.0233 12.012 16.1 11.4187 16.1C11.2787 16.1 11.1153 16.0933 10.9287 16.08C10.742 16.0733 10.5853 16.0567 10.4587 16.03V14.82C10.592 14.8467 10.732 14.87 10.8787 14.89C11.0253 14.91 11.172 14.92 11.3187 14.92C11.7653 14.92 12.132 14.8667 12.4187 14.76C12.712 14.6533 12.942 14.5 13.1087 14.3C13.2753 14.1 13.3953 13.8633 13.4687 13.59C13.5487 13.3167 13.5953 13.0167 13.6087 12.69H13.5487C13.4553 12.8433 13.342 12.9833 13.2087 13.11C13.082 13.2367 12.9187 13.3367 12.7187 13.41C12.5253 13.4833 12.2753 13.52 11.9687 13.52C11.562 13.52 11.2087 13.4333 10.9087 13.26C10.6087 13.08 10.3753 12.8233 10.2087 12.49C10.042 12.15 9.95867 11.74 9.95867 11.26C9.95867 10.74 10.0553 10.2967 10.2487 9.93C10.4487 9.55667 10.732 9.27333 11.0987 9.08C11.4653 8.88 11.8953 8.78 12.3887 8.78C12.7553 8.78 13.0953 8.84333 13.4087 8.97C13.7287 9.09667 14.0053 9.29 14.2387 9.55C14.4787 9.80333 14.6653 10.1267 14.7987 10.52C14.932 10.9133 14.9987 11.3767 14.9987 11.91ZM12.4187 9.99C12.1253 9.99 11.8853 10.09 11.6987 10.29C11.512 10.49 11.4187 10.8067 11.4187 11.24C11.4187 11.5867 11.4987 11.86 11.6587 12.06C11.8187 12.26 12.062 12.36 12.3887 12.36C12.6153 12.36 12.8087 12.31 12.9687 12.21C13.1353 12.11 13.2653 11.9867 13.3587 11.84C13.452 11.6867 13.4987 11.53 13.4987 11.37C13.4987 11.2033 13.4753 11.04 13.4287 10.88C13.382 10.7133 13.312 10.5633 13.2187 10.43C13.132 10.2967 13.022 10.19 12.8887 10.11C12.7553 10.03 12.5987 9.99 12.4187 9.99Z" fill="#042284"/>
<rect x="31" width="25" height="25" rx="2" fill="#042284"/>
<circle cx="43.5" cy="12.5" r="7.5" fill="white"/>
<path d="M41.9073 16H40.3973V11.87C40.3973 11.7567 40.3973 11.6167 40.3973 11.45C40.404 11.2833 40.4107 11.11 40.4173 10.93C40.424 10.75 40.4307 10.59 40.4373 10.45C40.404 10.49 40.3307 10.5633 40.2173 10.67C40.1107 10.77 40.0107 10.86 39.9173 10.94L39.0973 11.6L38.3673 10.69L40.6673 8.86H41.9073V16ZM48.85 12.43C48.85 13.0033 48.8033 13.5167 48.71 13.97C48.6233 14.4233 48.48 14.81 48.28 15.13C48.0867 15.4433 47.83 15.6833 47.51 15.85C47.1967 16.0167 46.81 16.1 46.35 16.1C45.7767 16.1 45.3067 15.9533 44.94 15.66C44.5733 15.3667 44.3 14.9467 44.12 14.4C43.9467 13.8533 43.86 13.1967 43.86 12.43C43.86 11.6567 43.94 10.9967 44.1 10.45C44.26 9.90333 44.5233 9.48333 44.89 9.19C45.2567 8.89667 45.7433 8.75 46.35 8.75C46.9233 8.75 47.3933 8.89667 47.76 9.19C48.1267 9.47667 48.4 9.89667 48.58 10.45C48.76 10.9967 48.85 11.6567 48.85 12.43ZM45.36 12.43C45.36 12.97 45.39 13.4233 45.45 13.79C45.51 14.15 45.61 14.4233 45.75 14.61C45.8967 14.79 46.0967 14.88 46.35 14.88C46.6033 14.88 46.8 14.79 46.94 14.61C47.0867 14.43 47.19 14.16 47.25 13.8C47.3167 13.4333 47.35 12.9767 47.35 12.43C47.35 11.8833 47.3167 11.43 47.25 11.07C47.19 10.7033 47.0867 10.43 46.94 10.25C46.8 10.0633 46.6033 9.97 46.35 9.97C46.0967 9.97 45.8967 10.0633 45.75 10.25C45.61 10.43 45.51 10.7033 45.45 11.07C45.39 11.43 45.36 11.8833 45.36 12.43Z" fill="#042284"/>
<rect x="62" width="25" height="25" rx="2" fill="#042284"/>
<circle cx="74.5" cy="12.5" r="7.5" fill="white"/>
<path d="M72.9073 16H71.3973V11.87C71.3973 11.7567 71.3973 11.6167 71.3973 11.45C71.404 11.2833 71.4107 11.11 71.4173 10.93C71.424 10.75 71.4307 10.59 71.4373 10.45C71.404 10.49 71.3307 10.5633 71.2173 10.67C71.1107 10.77 71.0107 10.86 70.9173 10.94L70.0973 11.6L69.3673 10.69L71.6673 8.86H72.9073V16ZM78.63 16H77.12V11.87C77.12 11.7567 77.12 11.6167 77.12 11.45C77.1267 11.2833 77.1333 11.11 77.14 10.93C77.1467 10.75 77.1533 10.59 77.16 10.45C77.1267 10.49 77.0533 10.5633 76.94 10.67C76.8333 10.77 76.7333 10.86 76.64 10.94L75.82 11.6L75.09 10.69L77.39 8.86H78.63V16Z" fill="#042284"/>
<rect x="774" y="238" width="182" height="21" rx="2" transform="rotate(-180 774 238)" fill="#042284"/>
<circle cx="682.5" cy="227.5" r="7.5" fill="white"/>
<path d="M680.907 231H679.397V226.87C679.397 226.757 679.397 226.617 679.397 226.45C679.404 226.283 679.411 226.11 679.417 225.93C679.424 225.75 679.431 225.59 679.437 225.45C679.404 225.49 679.331 225.563 679.217 225.67C679.111 225.77 679.011 225.86 678.917 225.94L678.097 226.6L677.367 225.69L679.667 223.86H680.907V231ZM687.89 231H682.9V229.95L684.69 228.14C685.05 227.767 685.34 227.457 685.56 227.21C685.78 226.957 685.94 226.73 686.04 226.53C686.14 226.323 686.19 226.103 686.19 225.87C686.19 225.583 686.11 225.37 685.95 225.23C685.797 225.09 685.587 225.02 685.32 225.02C685.047 225.02 684.78 225.083 684.52 225.21C684.26 225.337 683.987 225.517 683.7 225.75L682.88 224.78C683.087 224.6 683.303 224.433 683.53 224.28C683.763 224.127 684.03 224.003 684.33 223.91C684.637 223.81 685.003 223.76 685.43 223.76C685.897 223.76 686.297 223.847 686.63 224.02C686.97 224.187 687.23 224.417 687.41 224.71C687.597 224.997 687.69 225.323 687.69 225.69C687.69 225.99 687.643 226.267 687.55 226.52C687.463 226.773 687.333 227.02 687.16 227.26C686.993 227.493 686.787 227.737 686.54 227.99C686.293 228.237 686.013 228.507 685.7 228.8L684.78 229.66V229.73H687.89V231Z" fill="#0C453E"/>
</svg>
