<svg width="518" height="432" viewBox="0 0 518 432" fill="none" xmlns="http://www.w3.org/2000/svg">
<rect x="485" y="391" width="33" height="41" rx="2" fill="#E5C675"/>
<circle cx="501.5" cy="411.5" r="7.5" fill="white"/>
<path d="M496.127 411.97C496.127 411.557 496.157 411.15 496.217 410.75C496.277 410.35 496.381 409.973 496.527 409.62C496.681 409.26 496.891 408.943 497.157 408.67C497.431 408.39 497.774 408.173 498.187 408.02C498.607 407.86 499.114 407.78 499.707 407.78C499.847 407.78 500.011 407.787 500.197 407.8C500.384 407.807 500.541 407.823 500.667 407.85V409.06C500.541 409.027 500.401 409.003 500.247 408.99C500.101 408.97 499.954 408.96 499.807 408.96C499.361 408.96 498.991 409.013 498.697 409.12C498.411 409.227 498.184 409.38 498.017 409.58C497.851 409.78 497.727 410.017 497.647 410.29C497.574 410.557 497.531 410.857 497.517 411.19H497.577C497.671 411.03 497.784 410.89 497.917 410.77C498.057 410.643 498.227 410.543 498.427 410.47C498.627 410.397 498.861 410.36 499.127 410.36C499.547 410.36 499.907 410.45 500.207 410.63C500.514 410.803 500.751 411.06 500.917 411.4C501.084 411.733 501.167 412.14 501.167 412.62C501.167 413.133 501.067 413.577 500.867 413.95C500.674 414.323 500.394 414.61 500.027 414.81C499.667 415.003 499.237 415.1 498.737 415.1C498.371 415.1 498.027 415.037 497.707 414.91C497.394 414.783 497.117 414.593 496.877 414.34C496.644 414.08 496.461 413.753 496.327 413.36C496.194 412.967 496.127 412.503 496.127 411.97ZM498.707 413.89C499.001 413.89 499.241 413.79 499.427 413.59C499.614 413.383 499.707 413.067 499.707 412.64C499.707 412.293 499.627 412.02 499.467 411.82C499.307 411.62 499.064 411.52 498.737 411.52C498.517 411.52 498.324 411.57 498.157 411.67C497.991 411.763 497.861 411.887 497.767 412.04C497.674 412.193 497.627 412.35 497.627 412.51C497.627 412.677 497.651 412.843 497.697 413.01C497.744 413.17 497.811 413.317 497.897 413.45C497.991 413.583 498.104 413.69 498.237 413.77C498.371 413.85 498.527 413.89 498.707 413.89ZM506.61 409.46C506.61 409.787 506.54 410.07 506.4 410.31C506.267 410.55 506.083 410.747 505.85 410.9C505.623 411.053 505.363 411.167 505.07 411.24V411.27C505.643 411.337 506.077 411.51 506.37 411.79C506.67 412.07 506.82 412.447 506.82 412.92C506.82 413.333 506.717 413.707 506.51 414.04C506.31 414.367 505.997 414.627 505.57 414.82C505.15 415.007 504.607 415.1 503.94 415.1C503.547 415.1 503.18 415.067 502.84 415C502.5 414.933 502.18 414.837 501.88 414.71V413.43C502.187 413.583 502.507 413.7 502.84 413.78C503.18 413.86 503.493 413.9 503.78 413.9C504.32 413.9 504.697 413.807 504.91 413.62C505.13 413.433 505.24 413.17 505.24 412.83C505.24 412.63 505.19 412.463 505.09 412.33C504.99 412.19 504.813 412.087 504.56 412.02C504.313 411.947 503.967 411.91 503.52 411.91H502.98V410.75H503.53C503.97 410.75 504.303 410.71 504.53 410.63C504.763 410.543 504.92 410.43 505 410.29C505.087 410.143 505.13 409.977 505.13 409.79C505.13 409.537 505.05 409.34 504.89 409.2C504.737 409.053 504.477 408.98 504.11 408.98C503.883 408.98 503.677 409.01 503.49 409.07C503.303 409.123 503.133 409.19 502.98 409.27C502.833 409.35 502.703 409.427 502.59 409.5L501.89 408.46C502.077 408.327 502.283 408.207 502.51 408.1C502.743 407.993 503 407.91 503.28 407.85C503.56 407.79 503.873 407.76 504.22 407.76C504.953 407.76 505.533 407.91 505.96 408.21C506.393 408.503 506.61 408.92 506.61 409.46Z" fill="#B58537"/>
<rect x="482" y="345" width="25" height="25" rx="2" transform="rotate(-180 482 345)" fill="#E5C675"/>
<circle cx="469.5" cy="332.5" r="7.5" fill="white"/>
<path d="M464.127 332.97C464.127 332.557 464.157 332.15 464.217 331.75C464.277 331.35 464.381 330.973 464.527 330.62C464.681 330.26 464.891 329.943 465.157 329.67C465.431 329.39 465.774 329.173 466.187 329.02C466.607 328.86 467.114 328.78 467.707 328.78C467.847 328.78 468.011 328.787 468.197 328.8C468.384 328.807 468.541 328.823 468.667 328.85V330.06C468.541 330.027 468.401 330.003 468.247 329.99C468.101 329.97 467.954 329.96 467.807 329.96C467.361 329.96 466.991 330.013 466.697 330.12C466.411 330.227 466.184 330.38 466.017 330.58C465.851 330.78 465.727 331.017 465.647 331.29C465.574 331.557 465.531 331.857 465.517 332.19H465.577C465.671 332.03 465.784 331.89 465.917 331.77C466.057 331.643 466.227 331.543 466.427 331.47C466.627 331.397 466.861 331.36 467.127 331.36C467.547 331.36 467.907 331.45 468.207 331.63C468.514 331.803 468.751 332.06 468.917 332.4C469.084 332.733 469.167 333.14 469.167 333.62C469.167 334.133 469.067 334.577 468.867 334.95C468.674 335.323 468.394 335.61 468.027 335.81C467.667 336.003 467.237 336.1 466.737 336.1C466.371 336.1 466.027 336.037 465.707 335.91C465.394 335.783 465.117 335.593 464.877 335.34C464.644 335.08 464.461 334.753 464.327 334.36C464.194 333.967 464.127 333.503 464.127 332.97ZM466.707 334.89C467.001 334.89 467.241 334.79 467.427 334.59C467.614 334.383 467.707 334.067 467.707 333.64C467.707 333.293 467.627 333.02 467.467 332.82C467.307 332.62 467.064 332.52 466.737 332.52C466.517 332.52 466.324 332.57 466.157 332.67C465.991 332.763 465.861 332.887 465.767 333.04C465.674 333.193 465.627 333.35 465.627 333.51C465.627 333.677 465.651 333.843 465.697 334.01C465.744 334.17 465.811 334.317 465.897 334.45C465.991 334.583 466.104 334.69 466.237 334.77C466.371 334.85 466.527 334.89 466.707 334.89ZM473.63 336H472.12V331.87C472.12 331.757 472.12 331.617 472.12 331.45C472.127 331.283 472.133 331.11 472.14 330.93C472.147 330.75 472.153 330.59 472.16 330.45C472.127 330.49 472.053 330.563 471.94 330.67C471.833 330.77 471.733 330.86 471.64 330.94L470.82 331.6L470.09 330.69L472.39 328.86H473.63V336Z" fill="#B58537"/>
<rect x="457" y="345" width="25" height="25" rx="2" transform="rotate(-180 457 345)" fill="#E5C675"/>
<circle cx="444.5" cy="332.5" r="7.5" fill="white"/>
<path d="M439.127 332.97C439.127 332.557 439.157 332.15 439.217 331.75C439.277 331.35 439.381 330.973 439.527 330.62C439.681 330.26 439.891 329.943 440.157 329.67C440.431 329.39 440.774 329.173 441.187 329.02C441.607 328.86 442.114 328.78 442.707 328.78C442.847 328.78 443.011 328.787 443.197 328.8C443.384 328.807 443.541 328.823 443.667 328.85V330.06C443.541 330.027 443.401 330.003 443.247 329.99C443.101 329.97 442.954 329.96 442.807 329.96C442.361 329.96 441.991 330.013 441.697 330.12C441.411 330.227 441.184 330.38 441.017 330.58C440.851 330.78 440.727 331.017 440.647 331.29C440.574 331.557 440.531 331.857 440.517 332.19H440.577C440.671 332.03 440.784 331.89 440.917 331.77C441.057 331.643 441.227 331.543 441.427 331.47C441.627 331.397 441.861 331.36 442.127 331.36C442.547 331.36 442.907 331.45 443.207 331.63C443.514 331.803 443.751 332.06 443.917 332.4C444.084 332.733 444.167 333.14 444.167 333.62C444.167 334.133 444.067 334.577 443.867 334.95C443.674 335.323 443.394 335.61 443.027 335.81C442.667 336.003 442.237 336.1 441.737 336.1C441.371 336.1 441.027 336.037 440.707 335.91C440.394 335.783 440.117 335.593 439.877 335.34C439.644 335.08 439.461 334.753 439.327 334.36C439.194 333.967 439.127 333.503 439.127 332.97ZM441.707 334.89C442.001 334.89 442.241 334.79 442.427 334.59C442.614 334.383 442.707 334.067 442.707 333.64C442.707 333.293 442.627 333.02 442.467 332.82C442.307 332.62 442.064 332.52 441.737 332.52C441.517 332.52 441.324 332.57 441.157 332.67C440.991 332.763 440.861 332.887 440.767 333.04C440.674 333.193 440.627 333.35 440.627 333.51C440.627 333.677 440.651 333.843 440.697 334.01C440.744 334.17 440.811 334.317 440.897 334.45C440.991 334.583 441.104 334.69 441.237 334.77C441.371 334.85 441.527 334.89 441.707 334.89ZM449.85 332.43C449.85 333.003 449.803 333.517 449.71 333.97C449.623 334.423 449.48 334.81 449.28 335.13C449.087 335.443 448.83 335.683 448.51 335.85C448.197 336.017 447.81 336.1 447.35 336.1C446.777 336.1 446.307 335.953 445.94 335.66C445.573 335.367 445.3 334.947 445.12 334.4C444.947 333.853 444.86 333.197 444.86 332.43C444.86 331.657 444.94 330.997 445.1 330.45C445.26 329.903 445.523 329.483 445.89 329.19C446.257 328.897 446.743 328.75 447.35 328.75C447.923 328.75 448.393 328.897 448.76 329.19C449.127 329.477 449.4 329.897 449.58 330.45C449.76 330.997 449.85 331.657 449.85 332.43ZM446.36 332.43C446.36 332.97 446.39 333.423 446.45 333.79C446.51 334.15 446.61 334.423 446.75 334.61C446.897 334.79 447.097 334.88 447.35 334.88C447.603 334.88 447.8 334.79 447.94 334.61C448.087 334.43 448.19 334.16 448.25 333.8C448.317 333.433 448.35 332.977 448.35 332.43C448.35 331.883 448.317 331.43 448.25 331.07C448.19 330.703 448.087 330.43 447.94 330.25C447.8 330.063 447.603 329.97 447.35 329.97C447.097 329.97 446.897 330.063 446.75 330.25C446.61 330.43 446.51 330.703 446.45 331.07C446.39 331.43 446.36 331.883 446.36 332.43Z" fill="#B58537"/>
<rect x="432" y="345" width="25" height="25" rx="2" transform="rotate(-180 432 345)" fill="#E5C675"/>
<circle cx="419.5" cy="332.5" r="7.5" fill="white"/>
<path d="M416.777 331.44C417.211 331.44 417.597 331.523 417.937 331.69C418.277 331.857 418.544 332.1 418.737 332.42C418.937 332.74 419.037 333.137 419.037 333.61C419.037 334.123 418.931 334.567 418.717 334.94C418.504 335.313 418.184 335.6 417.757 335.8C417.337 336 416.814 336.1 416.187 336.1C415.814 336.1 415.461 336.067 415.127 336C414.801 335.933 414.514 335.837 414.267 335.71V334.41C414.514 334.537 414.811 334.647 415.157 334.74C415.504 334.827 415.831 334.87 416.137 334.87C416.437 334.87 416.687 334.83 416.887 334.75C417.094 334.67 417.251 334.547 417.357 334.38C417.464 334.213 417.517 334 417.517 333.74C417.517 333.387 417.401 333.12 417.167 332.94C416.934 332.753 416.574 332.66 416.087 332.66C415.901 332.66 415.707 332.68 415.507 332.72C415.307 332.753 415.141 332.787 415.007 332.82L414.407 332.5L414.677 328.86H418.547V330.14H415.997L415.867 331.54C415.981 331.52 416.101 331.5 416.227 331.48C416.361 331.453 416.544 331.44 416.777 331.44ZM424.86 331.91C424.86 332.317 424.83 332.723 424.77 333.13C424.71 333.53 424.603 333.91 424.45 334.27C424.303 334.623 424.093 334.94 423.82 335.22C423.553 335.493 423.21 335.71 422.79 335.87C422.377 336.023 421.873 336.1 421.28 336.1C421.14 336.1 420.977 336.093 420.79 336.08C420.603 336.073 420.447 336.057 420.32 336.03V334.82C420.453 334.847 420.593 334.87 420.74 334.89C420.887 334.91 421.033 334.92 421.18 334.92C421.627 334.92 421.993 334.867 422.28 334.76C422.573 334.653 422.803 334.5 422.97 334.3C423.137 334.1 423.257 333.863 423.33 333.59C423.41 333.317 423.457 333.017 423.47 332.69H423.41C423.317 332.843 423.203 332.983 423.07 333.11C422.943 333.237 422.78 333.337 422.58 333.41C422.387 333.483 422.137 333.52 421.83 333.52C421.423 333.52 421.07 333.433 420.77 333.26C420.47 333.08 420.237 332.823 420.07 332.49C419.903 332.15 419.82 331.74 419.82 331.26C419.82 330.74 419.917 330.297 420.11 329.93C420.31 329.557 420.593 329.273 420.96 329.08C421.327 328.88 421.757 328.78 422.25 328.78C422.617 328.78 422.957 328.843 423.27 328.97C423.59 329.097 423.867 329.29 424.1 329.55C424.34 329.803 424.527 330.127 424.66 330.52C424.793 330.913 424.86 331.377 424.86 331.91ZM422.28 329.99C421.987 329.99 421.747 330.09 421.56 330.29C421.373 330.49 421.28 330.807 421.28 331.24C421.28 331.587 421.36 331.86 421.52 332.06C421.68 332.26 421.923 332.36 422.25 332.36C422.477 332.36 422.67 332.31 422.83 332.21C422.997 332.11 423.127 331.987 423.22 331.84C423.313 331.687 423.36 331.53 423.36 331.37C423.36 331.203 423.337 331.04 423.29 330.88C423.243 330.713 423.173 330.563 423.08 330.43C422.993 330.297 422.883 330.19 422.75 330.11C422.617 330.03 422.46 329.99 422.28 329.99Z" fill="#B58537"/>
<rect x="393" y="345" width="25" height="25" rx="2" transform="rotate(-180 393 345)" fill="#E5C675"/>
<circle cx="380.5" cy="332.5" r="7.5" fill="white"/>
<path d="M377.777 331.44C378.211 331.44 378.597 331.523 378.937 331.69C379.277 331.857 379.544 332.1 379.737 332.42C379.937 332.74 380.037 333.137 380.037 333.61C380.037 334.123 379.931 334.567 379.717 334.94C379.504 335.313 379.184 335.6 378.757 335.8C378.337 336 377.814 336.1 377.187 336.1C376.814 336.1 376.461 336.067 376.127 336C375.801 335.933 375.514 335.837 375.267 335.71V334.41C375.514 334.537 375.811 334.647 376.157 334.74C376.504 334.827 376.831 334.87 377.137 334.87C377.437 334.87 377.687 334.83 377.887 334.75C378.094 334.67 378.251 334.547 378.357 334.38C378.464 334.213 378.517 334 378.517 333.74C378.517 333.387 378.401 333.12 378.167 332.94C377.934 332.753 377.574 332.66 377.087 332.66C376.901 332.66 376.707 332.68 376.507 332.72C376.307 332.753 376.141 332.787 376.007 332.82L375.407 332.5L375.677 328.86H379.547V330.14H376.997L376.867 331.54C376.981 331.52 377.101 331.5 377.227 331.48C377.361 331.453 377.544 331.44 377.777 331.44ZM383.36 328.77C383.773 328.77 384.15 328.833 384.49 328.96C384.837 329.087 385.113 329.277 385.32 329.53C385.533 329.783 385.64 330.103 385.64 330.49C385.64 330.777 385.583 331.03 385.47 331.25C385.357 331.463 385.203 331.65 385.01 331.81C384.823 331.97 384.607 332.11 384.36 332.23C384.613 332.363 384.853 332.52 385.08 332.7C385.313 332.873 385.5 333.08 385.64 333.32C385.787 333.553 385.86 333.83 385.86 334.15C385.86 334.543 385.753 334.887 385.54 335.18C385.333 335.473 385.04 335.7 384.66 335.86C384.287 336.02 383.853 336.1 383.36 336.1C382.827 336.1 382.373 336.023 382 335.87C381.627 335.717 381.34 335.497 381.14 335.21C380.947 334.923 380.85 334.583 380.85 334.19C380.85 333.863 380.91 333.58 381.03 333.34C381.157 333.1 381.323 332.893 381.53 332.72C381.737 332.54 381.967 332.39 382.22 332.27C382.007 332.137 381.813 331.987 381.64 331.82C381.467 331.647 381.327 331.453 381.22 331.24C381.12 331.02 381.07 330.767 381.07 330.48C381.07 330.1 381.177 329.783 381.39 329.53C381.603 329.277 381.883 329.087 382.23 328.96C382.583 328.833 382.96 328.77 383.36 328.77ZM382.25 334.1C382.25 334.36 382.34 334.573 382.52 334.74C382.707 334.907 382.98 334.99 383.34 334.99C383.593 334.99 383.8 334.953 383.96 334.88C384.127 334.807 384.25 334.703 384.33 334.57C384.417 334.437 384.46 334.283 384.46 334.11C384.46 333.93 384.407 333.773 384.3 333.64C384.193 333.5 384.06 333.377 383.9 333.27C383.747 333.157 383.587 333.053 383.42 332.96L383.29 332.89C383.083 332.983 382.9 333.09 382.74 333.21C382.587 333.33 382.467 333.463 382.38 333.61C382.293 333.75 382.25 333.913 382.25 334.1ZM383.35 329.87C383.103 329.87 382.897 329.933 382.73 330.06C382.57 330.187 382.49 330.367 382.49 330.6C382.49 330.76 382.53 330.903 382.61 331.03C382.69 331.15 382.797 331.257 382.93 331.35C383.063 331.437 383.207 331.52 383.36 331.6C383.513 331.527 383.653 331.447 383.78 331.36C383.913 331.273 384.02 331.17 384.1 331.05C384.18 330.923 384.22 330.773 384.22 330.6C384.22 330.367 384.137 330.187 383.97 330.06C383.81 329.933 383.603 329.87 383.35 329.87Z" fill="#B58537"/>
<rect x="368" y="345" width="25" height="25" rx="2" transform="rotate(-180 368 345)" fill="#E5C675"/>
<circle cx="355.5" cy="332.5" r="7.5" fill="white"/>
<path d="M352.777 331.44C353.211 331.44 353.597 331.523 353.937 331.69C354.277 331.857 354.544 332.1 354.737 332.42C354.937 332.74 355.037 333.137 355.037 333.61C355.037 334.123 354.931 334.567 354.717 334.94C354.504 335.313 354.184 335.6 353.757 335.8C353.337 336 352.814 336.1 352.187 336.1C351.814 336.1 351.461 336.067 351.127 336C350.801 335.933 350.514 335.837 350.267 335.71V334.41C350.514 334.537 350.811 334.647 351.157 334.74C351.504 334.827 351.831 334.87 352.137 334.87C352.437 334.87 352.687 334.83 352.887 334.75C353.094 334.67 353.251 334.547 353.357 334.38C353.464 334.213 353.517 334 353.517 333.74C353.517 333.387 353.401 333.12 353.167 332.94C352.934 332.753 352.574 332.66 352.087 332.66C351.901 332.66 351.707 332.68 351.507 332.72C351.307 332.753 351.141 332.787 351.007 332.82L350.407 332.5L350.677 328.86H354.547V330.14H351.997L351.867 331.54C351.981 331.52 352.101 331.5 352.227 331.48C352.361 331.453 352.544 331.44 352.777 331.44ZM356.61 336L359.29 330.13H355.77V328.86H360.89V329.81L358.19 336H356.61Z" fill="#B58537"/>
<rect x="343" y="345" width="25" height="25" rx="2" transform="rotate(-180 343 345)" fill="#E5C675"/>
<circle cx="330.5" cy="332.5" r="7.5" fill="white"/>
<path d="M327.777 331.44C328.211 331.44 328.597 331.523 328.937 331.69C329.277 331.857 329.544 332.1 329.737 332.42C329.937 332.74 330.037 333.137 330.037 333.61C330.037 334.123 329.931 334.567 329.717 334.94C329.504 335.313 329.184 335.6 328.757 335.8C328.337 336 327.814 336.1 327.187 336.1C326.814 336.1 326.461 336.067 326.127 336C325.801 335.933 325.514 335.837 325.267 335.71V334.41C325.514 334.537 325.811 334.647 326.157 334.74C326.504 334.827 326.831 334.87 327.137 334.87C327.437 334.87 327.687 334.83 327.887 334.75C328.094 334.67 328.251 334.547 328.357 334.38C328.464 334.213 328.517 334 328.517 333.74C328.517 333.387 328.401 333.12 328.167 332.94C327.934 332.753 327.574 332.66 327.087 332.66C326.901 332.66 326.707 332.68 326.507 332.72C326.307 332.753 326.141 332.787 326.007 332.82L325.407 332.5L325.677 328.86H329.547V330.14H326.997L326.867 331.54C326.981 331.52 327.101 331.5 327.227 331.48C327.361 331.453 327.544 331.44 327.777 331.44ZM330.85 332.97C330.85 332.557 330.88 332.15 330.94 331.75C331 331.35 331.103 330.973 331.25 330.62C331.403 330.26 331.613 329.943 331.88 329.67C332.153 329.39 332.497 329.173 332.91 329.02C333.33 328.86 333.837 328.78 334.43 328.78C334.57 328.78 334.733 328.787 334.92 328.8C335.107 328.807 335.263 328.823 335.39 328.85V330.06C335.263 330.027 335.123 330.003 334.97 329.99C334.823 329.97 334.677 329.96 334.53 329.96C334.083 329.96 333.713 330.013 333.42 330.12C333.133 330.227 332.907 330.38 332.74 330.58C332.573 330.78 332.45 331.017 332.37 331.29C332.297 331.557 332.253 331.857 332.24 332.19H332.3C332.393 332.03 332.507 331.89 332.64 331.77C332.78 331.643 332.95 331.543 333.15 331.47C333.35 331.397 333.583 331.36 333.85 331.36C334.27 331.36 334.63 331.45 334.93 331.63C335.237 331.803 335.473 332.06 335.64 332.4C335.807 332.733 335.89 333.14 335.89 333.62C335.89 334.133 335.79 334.577 335.59 334.95C335.397 335.323 335.117 335.61 334.75 335.81C334.39 336.003 333.96 336.1 333.46 336.1C333.093 336.1 332.75 336.037 332.43 335.91C332.117 335.783 331.84 335.593 331.6 335.34C331.367 335.08 331.183 334.753 331.05 334.36C330.917 333.967 330.85 333.503 330.85 332.97ZM333.43 334.89C333.723 334.89 333.963 334.79 334.15 334.59C334.337 334.383 334.43 334.067 334.43 333.64C334.43 333.293 334.35 333.02 334.19 332.82C334.03 332.62 333.787 332.52 333.46 332.52C333.24 332.52 333.047 332.57 332.88 332.67C332.713 332.763 332.583 332.887 332.49 333.04C332.397 333.193 332.35 333.35 332.35 333.51C332.35 333.677 332.373 333.843 332.42 334.01C332.467 334.17 332.533 334.317 332.62 334.45C332.713 334.583 332.827 334.69 332.96 334.77C333.093 334.85 333.25 334.89 333.43 334.89Z" fill="#B58537"/>
<rect x="25" y="322" width="25" height="25" rx="2" transform="rotate(-180 25 322)" fill="#E5C675"/>
<circle cx="12.5" cy="309.5" r="7.5" fill="white"/>
<path d="M9.77734 308.44C10.2107 308.44 10.5973 308.523 10.9373 308.69C11.2773 308.857 11.544 309.1 11.7373 309.42C11.9373 309.74 12.0373 310.137 12.0373 310.61C12.0373 311.123 11.9307 311.567 11.7173 311.94C11.504 312.313 11.184 312.6 10.7573 312.8C10.3373 313 9.81401 313.1 9.18734 313.1C8.81401 313.1 8.46068 313.067 8.12734 313C7.80068 312.933 7.51401 312.837 7.26734 312.71V311.41C7.51401 311.537 7.81068 311.647 8.15734 311.74C8.50401 311.827 8.83068 311.87 9.13734 311.87C9.43734 311.87 9.68734 311.83 9.88734 311.75C10.094 311.67 10.2507 311.547 10.3573 311.38C10.464 311.213 10.5173 311 10.5173 310.74C10.5173 310.387 10.4007 310.12 10.1673 309.94C9.93401 309.753 9.57401 309.66 9.08734 309.66C8.90068 309.66 8.70734 309.68 8.50734 309.72C8.30734 309.753 8.14068 309.787 8.00734 309.82L7.40734 309.5L7.67734 305.86H11.5473V307.14H8.99734L8.86734 308.54C8.98068 308.52 9.10068 308.5 9.22734 308.48C9.36068 308.453 9.54401 308.44 9.77734 308.44ZM18.05 311.52H17.19V313H15.72V311.52H12.67V310.47L15.8 305.86H17.19V310.35H18.05V311.52ZM15.72 309.14C15.72 309.027 15.72 308.893 15.72 308.74C15.7267 308.58 15.7333 308.423 15.74 308.27C15.7467 308.11 15.7533 307.97 15.76 307.85C15.7667 307.723 15.7733 307.637 15.78 307.59H15.74C15.68 307.723 15.6167 307.853 15.55 307.98C15.4833 308.107 15.4033 308.237 15.31 308.37L14 310.35H15.72V309.14Z" fill="#B58537"/>
<rect x="343" y="416" width="25" height="25" rx="2" transform="rotate(-180 343 416)" fill="#E5C675"/>
<circle cx="330.5" cy="403.5" r="7.5" fill="white"/>
<path d="M325.127 403.97C325.127 403.557 325.157 403.15 325.217 402.75C325.277 402.35 325.381 401.973 325.527 401.62C325.681 401.26 325.891 400.943 326.157 400.67C326.431 400.39 326.774 400.173 327.187 400.02C327.607 399.86 328.114 399.78 328.707 399.78C328.847 399.78 329.011 399.787 329.197 399.8C329.384 399.807 329.541 399.823 329.667 399.85V401.06C329.541 401.027 329.401 401.003 329.247 400.99C329.101 400.97 328.954 400.96 328.807 400.96C328.361 400.96 327.991 401.013 327.697 401.12C327.411 401.227 327.184 401.38 327.017 401.58C326.851 401.78 326.727 402.017 326.647 402.29C326.574 402.557 326.531 402.857 326.517 403.19H326.577C326.671 403.03 326.784 402.89 326.917 402.77C327.057 402.643 327.227 402.543 327.427 402.47C327.627 402.397 327.861 402.36 328.127 402.36C328.547 402.36 328.907 402.45 329.207 402.63C329.514 402.803 329.751 403.06 329.917 403.4C330.084 403.733 330.167 404.14 330.167 404.62C330.167 405.133 330.067 405.577 329.867 405.95C329.674 406.323 329.394 406.61 329.027 406.81C328.667 407.003 328.237 407.1 327.737 407.1C327.371 407.1 327.027 407.037 326.707 406.91C326.394 406.783 326.117 406.593 325.877 406.34C325.644 406.08 325.461 405.753 325.327 405.36C325.194 404.967 325.127 404.503 325.127 403.97ZM327.707 405.89C328.001 405.89 328.241 405.79 328.427 405.59C328.614 405.383 328.707 405.067 328.707 404.64C328.707 404.293 328.627 404.02 328.467 403.82C328.307 403.62 328.064 403.52 327.737 403.52C327.517 403.52 327.324 403.57 327.157 403.67C326.991 403.763 326.861 403.887 326.767 404.04C326.674 404.193 326.627 404.35 326.627 404.51C326.627 404.677 326.651 404.843 326.697 405.01C326.744 405.17 326.811 405.317 326.897 405.45C326.991 405.583 327.104 405.69 327.237 405.77C327.371 405.85 327.527 405.89 327.707 405.89ZM335.89 407H330.9V405.95L332.69 404.14C333.05 403.767 333.34 403.457 333.56 403.21C333.78 402.957 333.94 402.73 334.04 402.53C334.14 402.323 334.19 402.103 334.19 401.87C334.19 401.583 334.11 401.37 333.95 401.23C333.797 401.09 333.587 401.02 333.32 401.02C333.047 401.02 332.78 401.083 332.52 401.21C332.26 401.337 331.987 401.517 331.7 401.75L330.88 400.78C331.087 400.6 331.303 400.433 331.53 400.28C331.763 400.127 332.03 400.003 332.33 399.91C332.637 399.81 333.003 399.76 333.43 399.76C333.897 399.76 334.297 399.847 334.63 400.02C334.97 400.187 335.23 400.417 335.41 400.71C335.597 400.997 335.69 401.323 335.69 401.69C335.69 401.99 335.643 402.267 335.55 402.52C335.463 402.773 335.333 403.02 335.16 403.26C334.993 403.493 334.787 403.737 334.54 403.99C334.293 404.237 334.013 404.507 333.7 404.8L332.78 405.66V405.73H335.89V407Z" fill="#B58537"/>
<rect x="360.945" width="25" height="25" rx="2" transform="rotate(90 360.945 0)" fill="#E5C675"/>
<circle cx="348.445" cy="12.5" r="7.5" fill="white"/>
<path d="M345.723 11.44C346.156 11.44 346.543 11.5233 346.883 11.69C347.223 11.8567 347.489 12.1 347.683 12.42C347.883 12.74 347.983 13.1367 347.983 13.61C347.983 14.1233 347.876 14.5667 347.663 14.94C347.449 15.3133 347.129 15.6 346.703 15.8C346.283 16 345.759 16.1 345.133 16.1C344.759 16.1 344.406 16.0667 344.073 16C343.746 15.9333 343.459 15.8367 343.213 15.71V14.41C343.459 14.5367 343.756 14.6467 344.103 14.74C344.449 14.8267 344.776 14.87 345.083 14.87C345.383 14.87 345.633 14.83 345.833 14.75C346.039 14.67 346.196 14.5467 346.303 14.38C346.409 14.2133 346.463 14 346.463 13.74C346.463 13.3867 346.346 13.12 346.113 12.94C345.879 12.7533 345.519 12.66 345.033 12.66C344.846 12.66 344.653 12.68 344.453 12.72C344.253 12.7533 344.086 12.7867 343.953 12.82L343.353 12.5L343.623 8.86H347.493V10.14H344.943L344.813 11.54C344.926 11.52 345.046 11.5 345.173 11.48C345.306 11.4533 345.489 11.44 345.723 11.44ZM351.445 11.44C351.879 11.44 352.265 11.5233 352.605 11.69C352.945 11.8567 353.212 12.1 353.405 12.42C353.605 12.74 353.705 13.1367 353.705 13.61C353.705 14.1233 353.599 14.5667 353.385 14.94C353.172 15.3133 352.852 15.6 352.425 15.8C352.005 16 351.482 16.1 350.855 16.1C350.482 16.1 350.129 16.0667 349.795 16C349.469 15.9333 349.182 15.8367 348.935 15.71V14.41C349.182 14.5367 349.479 14.6467 349.825 14.74C350.172 14.8267 350.499 14.87 350.805 14.87C351.105 14.87 351.355 14.83 351.555 14.75C351.762 14.67 351.919 14.5467 352.025 14.38C352.132 14.2133 352.185 14 352.185 13.74C352.185 13.3867 352.069 13.12 351.835 12.94C351.602 12.7533 351.242 12.66 350.755 12.66C350.569 12.66 350.375 12.68 350.175 12.72C349.975 12.7533 349.809 12.7867 349.675 12.82L349.075 12.5L349.345 8.86H353.215V10.14H350.665L350.535 11.54C350.649 11.52 350.769 11.5 350.895 11.48C351.029 11.4533 351.212 11.44 351.445 11.44Z" fill="#B58537"/>
</svg>
