<svg width="233" height="155" viewBox="0 0 233 155" fill="none" xmlns="http://www.w3.org/2000/svg">
<rect x="232.949" y="134.66" width="17.9492" height="17.9492" rx="5" transform="rotate(90 232.949 134.66)" fill="#C5A064"/>
<circle cx="223.975" cy="143.635" r="5.38469" fill="white"/>
<rect x="232.949" y="116.66" width="17.9492" height="17.9492" rx="5" transform="rotate(90 232.949 116.66)" fill="#C5A064"/>
<circle cx="223.975" cy="125.635" r="5.38469" fill="white"/>
<rect x="232.949" y="98.6602" width="17.9492" height="17.9492" rx="5" transform="rotate(90 232.949 98.6602)" fill="#C5A064"/>
<circle cx="223.975" cy="107.635" r="5.38469" fill="white"/>
<rect x="232.949" y="80.6602" width="17.9492" height="17.9492" rx="5" transform="rotate(90 232.949 80.6602)" fill="#C5A064"/>
<circle cx="223.975" cy="89.6347" r="5.38469" fill="white"/>
<rect x="232.949" y="62.6602" width="17.9492" height="17.9492" rx="5" transform="rotate(90 232.949 62.6602)" fill="#C5A064"/>
<circle cx="223.975" cy="71.6347" r="5.38469" fill="white"/>
<rect x="25" width="25" height="25" rx="2" transform="rotate(90 25 0)" fill="#C5A064"/>
<circle cx="12.5" cy="12.5" r="7.5" fill="white"/>
<path d="M7.12734 12.97C7.12734 12.5567 7.15734 12.15 7.21734 11.75C7.27734 11.35 7.38068 10.9733 7.52734 10.62C7.68068 10.26 7.89068 9.94333 8.15734 9.67C8.43068 9.39 8.77401 9.17333 9.18734 9.02C9.60734 8.86 10.114 8.78 10.7073 8.78C10.8473 8.78 11.0107 8.78667 11.1973 8.8C11.384 8.80667 11.5407 8.82333 11.6673 8.85V10.06C11.5407 10.0267 11.4007 10.0033 11.2473 9.99C11.1007 9.97 10.954 9.96 10.8073 9.96C10.3607 9.96 9.99068 10.0133 9.69734 10.12C9.41068 10.2267 9.18401 10.38 9.01734 10.58C8.85068 10.78 8.72734 11.0167 8.64734 11.29C8.57401 11.5567 8.53068 11.8567 8.51734 12.19H8.57734C8.67068 12.03 8.78401 11.89 8.91734 11.77C9.05734 11.6433 9.22734 11.5433 9.42734 11.47C9.62734 11.3967 9.86068 11.36 10.1273 11.36C10.5473 11.36 10.9073 11.45 11.2073 11.63C11.514 11.8033 11.7507 12.06 11.9173 12.4C12.084 12.7333 12.1673 13.14 12.1673 13.62C12.1673 14.1333 12.0673 14.5767 11.8673 14.95C11.674 15.3233 11.394 15.61 11.0273 15.81C10.6673 16.0033 10.2373 16.1 9.73734 16.1C9.37068 16.1 9.02734 16.0367 8.70734 15.91C8.39401 15.7833 8.11734 15.5933 7.87734 15.34C7.64401 15.08 7.46068 14.7533 7.32734 14.36C7.19401 13.9667 7.12734 13.5033 7.12734 12.97ZM9.70734 14.89C10.0007 14.89 10.2407 14.79 10.4273 14.59C10.614 14.3833 10.7073 14.0667 10.7073 13.64C10.7073 13.2933 10.6273 13.02 10.4673 12.82C10.3073 12.62 10.064 12.52 9.73734 12.52C9.51734 12.52 9.32401 12.57 9.15734 12.67C8.99068 12.7633 8.86068 12.8867 8.76734 13.04C8.67401 13.1933 8.62734 13.35 8.62734 13.51C8.62734 13.6767 8.65068 13.8433 8.69734 14.01C8.74401 14.17 8.81068 14.3167 8.89734 14.45C8.99068 14.5833 9.10401 14.69 9.23734 14.77C9.37068 14.85 9.52734 14.89 9.70734 14.89ZM18.05 14.52H17.19V16H15.72V14.52H12.67V13.47L15.8 8.86H17.19V13.35H18.05V14.52ZM15.72 12.14C15.72 12.0267 15.72 11.8933 15.72 11.74C15.7267 11.58 15.7333 11.4233 15.74 11.27C15.7467 11.11 15.7533 10.97 15.76 10.85C15.7667 10.7233 15.7733 10.6367 15.78 10.59H15.74C15.68 10.7233 15.6167 10.8533 15.55 10.98C15.4833 11.1067 15.4033 11.2367 15.31 11.37L14 13.35H15.72V12.14Z" fill="#9B6F27"/>
<rect x="38" y="71.6602" width="25" height="25" rx="2" transform="rotate(90 38 71.6602)" fill="#C5A064"/>
<circle cx="25.5" cy="84.1602" r="7.5" fill="white"/>
<path d="M20.1273 84.6302C20.1273 84.2168 20.1573 83.8102 20.2173 83.4102C20.2773 83.0102 20.3807 82.6335 20.5273 82.2802C20.6807 81.9202 20.8907 81.6035 21.1573 81.3302C21.4307 81.0502 21.774 80.8335 22.1873 80.6802C22.6073 80.5202 23.114 80.4402 23.7073 80.4402C23.8473 80.4402 24.0107 80.4468 24.1973 80.4602C24.384 80.4668 24.5407 80.4835 24.6673 80.5102V81.7202C24.5407 81.6868 24.4007 81.6635 24.2473 81.6502C24.1007 81.6302 23.954 81.6202 23.8073 81.6202C23.3607 81.6202 22.9907 81.6735 22.6973 81.7802C22.4107 81.8868 22.184 82.0402 22.0173 82.2402C21.8507 82.4402 21.7273 82.6768 21.6473 82.9502C21.574 83.2168 21.5307 83.5168 21.5173 83.8502H21.5773C21.6707 83.6902 21.784 83.5502 21.9173 83.4302C22.0573 83.3035 22.2273 83.2035 22.4273 83.1302C22.6273 83.0568 22.8607 83.0202 23.1273 83.0202C23.5473 83.0202 23.9073 83.1102 24.2073 83.2902C24.514 83.4635 24.7507 83.7202 24.9173 84.0602C25.084 84.3935 25.1673 84.8002 25.1673 85.2802C25.1673 85.7935 25.0673 86.2368 24.8673 86.6102C24.674 86.9835 24.394 87.2702 24.0273 87.4702C23.6673 87.6635 23.2373 87.7602 22.7373 87.7602C22.3707 87.7602 22.0273 87.6968 21.7073 87.5702C21.394 87.4435 21.1173 87.2535 20.8773 87.0002C20.644 86.7402 20.4607 86.4135 20.3273 86.0202C20.194 85.6268 20.1273 85.1635 20.1273 84.6302ZM22.7073 86.5502C23.0007 86.5502 23.2407 86.4502 23.4273 86.2502C23.614 86.0435 23.7073 85.7268 23.7073 85.3002C23.7073 84.9535 23.6273 84.6802 23.4673 84.4802C23.3073 84.2802 23.064 84.1802 22.7373 84.1802C22.5173 84.1802 22.324 84.2302 22.1573 84.3302C21.9907 84.4235 21.8607 84.5468 21.7673 84.7002C21.674 84.8535 21.6273 85.0102 21.6273 85.1702C21.6273 85.3368 21.6507 85.5035 21.6973 85.6702C21.744 85.8302 21.8107 85.9768 21.8973 86.1102C21.9907 86.2435 22.104 86.3502 22.2373 86.4302C22.3707 86.5102 22.5273 86.5502 22.7073 86.5502ZM26.61 87.6602L29.29 81.7902H25.77V80.5202H30.89V81.4702L28.19 87.6602H26.61Z" fill="#9B6F27"/>
<rect x="53.5" width="25" height="25" rx="2" transform="rotate(90 53.5 0)" fill="#C5A064"/>
<circle cx="41" cy="12.5" r="7.5" fill="white"/>
<path d="M35.6273 12.97C35.6273 12.5567 35.6573 12.15 35.7173 11.75C35.7773 11.35 35.8807 10.9733 36.0273 10.62C36.1807 10.26 36.3907 9.94333 36.6573 9.67C36.9307 9.39 37.274 9.17333 37.6873 9.02C38.1073 8.86 38.614 8.78 39.2073 8.78C39.3473 8.78 39.5107 8.78667 39.6973 8.8C39.884 8.80667 40.0407 8.82333 40.1673 8.85V10.06C40.0407 10.0267 39.9007 10.0033 39.7473 9.99C39.6007 9.97 39.454 9.96 39.3073 9.96C38.8607 9.96 38.4907 10.0133 38.1973 10.12C37.9107 10.2267 37.684 10.38 37.5173 10.58C37.3507 10.78 37.2273 11.0167 37.1473 11.29C37.074 11.5567 37.0307 11.8567 37.0173 12.19H37.0773C37.1707 12.03 37.284 11.89 37.4173 11.77C37.5573 11.6433 37.7273 11.5433 37.9273 11.47C38.1273 11.3967 38.3607 11.36 38.6273 11.36C39.0473 11.36 39.4073 11.45 39.7073 11.63C40.014 11.8033 40.2507 12.06 40.4173 12.4C40.584 12.7333 40.6673 13.14 40.6673 13.62C40.6673 14.1333 40.5673 14.5767 40.3673 14.95C40.174 15.3233 39.894 15.61 39.5273 15.81C39.1673 16.0033 38.7373 16.1 38.2373 16.1C37.8707 16.1 37.5273 16.0367 37.2073 15.91C36.894 15.7833 36.6173 15.5933 36.3773 15.34C36.144 15.08 35.9607 14.7533 35.8273 14.36C35.694 13.9667 35.6273 13.5033 35.6273 12.97ZM38.2073 14.89C38.5007 14.89 38.7407 14.79 38.9273 14.59C39.114 14.3833 39.2073 14.0667 39.2073 13.64C39.2073 13.2933 39.1273 13.02 38.9673 12.82C38.8073 12.62 38.564 12.52 38.2373 12.52C38.0173 12.52 37.824 12.57 37.6573 12.67C37.4907 12.7633 37.3607 12.8867 37.2673 13.04C37.174 13.1933 37.1273 13.35 37.1273 13.51C37.1273 13.6767 37.1507 13.8433 37.1973 14.01C37.244 14.17 37.3107 14.3167 37.3973 14.45C37.4907 14.5833 37.604 14.69 37.7373 14.77C37.8707 14.85 38.0273 14.89 38.2073 14.89ZM44 11.44C44.4333 11.44 44.82 11.5233 45.16 11.69C45.5 11.8567 45.7667 12.1 45.96 12.42C46.16 12.74 46.26 13.1367 46.26 13.61C46.26 14.1233 46.1533 14.5667 45.94 14.94C45.7267 15.3133 45.4067 15.6 44.98 15.8C44.56 16 44.0367 16.1 43.41 16.1C43.0367 16.1 42.6833 16.0667 42.35 16C42.0233 15.9333 41.7367 15.8367 41.49 15.71V14.41C41.7367 14.5367 42.0333 14.6467 42.38 14.74C42.7267 14.8267 43.0533 14.87 43.36 14.87C43.66 14.87 43.91 14.83 44.11 14.75C44.3167 14.67 44.4733 14.5467 44.58 14.38C44.6867 14.2133 44.74 14 44.74 13.74C44.74 13.3867 44.6233 13.12 44.39 12.94C44.1567 12.7533 43.7967 12.66 43.31 12.66C43.1233 12.66 42.93 12.68 42.73 12.72C42.53 12.7533 42.3633 12.7867 42.23 12.82L41.63 12.5L41.9 8.86H45.77V10.14H43.22L43.09 11.54C43.2033 11.52 43.3233 11.5 43.45 11.48C43.5833 11.4533 43.7667 11.44 44 11.44Z" fill="#9B6F27"/>
<rect x="65" y="71.6602" width="25" height="25" rx="2" transform="rotate(90 65 71.6602)" fill="#C5A064"/>
<circle cx="52.5" cy="84.1602" r="7.5" fill="white"/>
<path d="M47.1273 84.6302C47.1273 84.2168 47.1573 83.8102 47.2173 83.4102C47.2773 83.0102 47.3807 82.6335 47.5273 82.2802C47.6807 81.9202 47.8907 81.6035 48.1573 81.3302C48.4307 81.0502 48.774 80.8335 49.1873 80.6802C49.6073 80.5202 50.114 80.4402 50.7073 80.4402C50.8473 80.4402 51.0107 80.4468 51.1973 80.4602C51.384 80.4668 51.5407 80.4835 51.6673 80.5102V81.7202C51.5407 81.6868 51.4007 81.6635 51.2473 81.6502C51.1007 81.6302 50.954 81.6202 50.8073 81.6202C50.3607 81.6202 49.9907 81.6735 49.6973 81.7802C49.4107 81.8868 49.184 82.0402 49.0173 82.2402C48.8507 82.4402 48.7273 82.6768 48.6473 82.9502C48.574 83.2168 48.5307 83.5168 48.5173 83.8502H48.5773C48.6707 83.6902 48.784 83.5502 48.9173 83.4302C49.0573 83.3035 49.2273 83.2035 49.4273 83.1302C49.6273 83.0568 49.8607 83.0202 50.1273 83.0202C50.5473 83.0202 50.9073 83.1102 51.2073 83.2902C51.514 83.4635 51.7507 83.7202 51.9173 84.0602C52.084 84.3935 52.1673 84.8002 52.1673 85.2802C52.1673 85.7935 52.0673 86.2368 51.8673 86.6102C51.674 86.9835 51.394 87.2702 51.0273 87.4702C50.6673 87.6635 50.2373 87.7602 49.7373 87.7602C49.3707 87.7602 49.0273 87.6968 48.7073 87.5702C48.394 87.4435 48.1173 87.2535 47.8773 87.0002C47.644 86.7402 47.4607 86.4135 47.3273 86.0202C47.194 85.6268 47.1273 85.1635 47.1273 84.6302ZM49.7073 86.5502C50.0007 86.5502 50.2407 86.4502 50.4273 86.2502C50.614 86.0435 50.7073 85.7268 50.7073 85.3002C50.7073 84.9535 50.6273 84.6802 50.4673 84.4802C50.3073 84.2802 50.064 84.1802 49.7373 84.1802C49.5173 84.1802 49.324 84.2302 49.1573 84.3302C48.9907 84.4235 48.8607 84.5468 48.7673 84.7002C48.674 84.8535 48.6273 85.0102 48.6273 85.1702C48.6273 85.3368 48.6507 85.5035 48.6973 85.6702C48.744 85.8302 48.8107 85.9768 48.8973 86.1102C48.9907 86.2435 49.104 86.3502 49.2373 86.4302C49.3707 86.5102 49.5273 86.5502 49.7073 86.5502ZM55.36 80.4302C55.7733 80.4302 56.15 80.4935 56.49 80.6202C56.8367 80.7468 57.1133 80.9368 57.32 81.1902C57.5333 81.4435 57.64 81.7635 57.64 82.1502C57.64 82.4368 57.5833 82.6902 57.47 82.9102C57.3567 83.1235 57.2033 83.3102 57.01 83.4702C56.8233 83.6302 56.6067 83.7702 56.36 83.8902C56.6133 84.0235 56.8533 84.1802 57.08 84.3602C57.3133 84.5335 57.5 84.7402 57.64 84.9802C57.7867 85.2135 57.86 85.4902 57.86 85.8102C57.86 86.2035 57.7533 86.5468 57.54 86.8402C57.3333 87.1335 57.04 87.3602 56.66 87.5202C56.2867 87.6802 55.8533 87.7602 55.36 87.7602C54.8267 87.7602 54.3733 87.6835 54 87.5302C53.6267 87.3768 53.34 87.1568 53.14 86.8702C52.9467 86.5835 52.85 86.2435 52.85 85.8502C52.85 85.5235 52.91 85.2402 53.03 85.0002C53.1567 84.7602 53.3233 84.5535 53.53 84.3802C53.7367 84.2002 53.9667 84.0502 54.22 83.9302C54.0067 83.7968 53.8133 83.6468 53.64 83.4802C53.4667 83.3068 53.3267 83.1135 53.22 82.9002C53.12 82.6802 53.07 82.4268 53.07 82.1402C53.07 81.7602 53.1767 81.4435 53.39 81.1902C53.6033 80.9368 53.8833 80.7468 54.23 80.6202C54.5833 80.4935 54.96 80.4302 55.36 80.4302ZM54.25 85.7602C54.25 86.0202 54.34 86.2335 54.52 86.4002C54.7067 86.5668 54.98 86.6502 55.34 86.6502C55.5933 86.6502 55.8 86.6135 55.96 86.5402C56.1267 86.4668 56.25 86.3635 56.33 86.2302C56.4167 86.0968 56.46 85.9435 56.46 85.7702C56.46 85.5902 56.4067 85.4335 56.3 85.3002C56.1933 85.1602 56.06 85.0368 55.9 84.9302C55.7467 84.8168 55.5867 84.7135 55.42 84.6202L55.29 84.5502C55.0833 84.6435 54.9 84.7502 54.74 84.8702C54.5867 84.9902 54.4667 85.1235 54.38 85.2702C54.2933 85.4102 54.25 85.5735 54.25 85.7602ZM55.35 81.5302C55.1033 81.5302 54.8967 81.5935 54.73 81.7202C54.57 81.8468 54.49 82.0268 54.49 82.2602C54.49 82.4202 54.53 82.5635 54.61 82.6902C54.69 82.8102 54.7967 82.9168 54.93 83.0102C55.0633 83.0968 55.2067 83.1802 55.36 83.2602C55.5133 83.1868 55.6533 83.1068 55.78 83.0202C55.9133 82.9335 56.02 82.8302 56.1 82.7102C56.18 82.5835 56.22 82.4335 56.22 82.2602C56.22 82.0268 56.1367 81.8468 55.97 81.7202C55.81 81.5935 55.6033 81.5302 55.35 81.5302Z" fill="#9B6F27"/>
<rect x="92" y="71.6602" width="25" height="25" rx="2" transform="rotate(90 92 71.6602)" fill="#C5A064"/>
<circle cx="79.5" cy="84.1602" r="7.5" fill="white"/>
<path d="M74.1273 84.6302C74.1273 84.2168 74.1573 83.8102 74.2173 83.4102C74.2773 83.0102 74.3807 82.6335 74.5273 82.2802C74.6807 81.9202 74.8907 81.6035 75.1573 81.3302C75.4307 81.0502 75.774 80.8335 76.1873 80.6802C76.6073 80.5202 77.114 80.4402 77.7073 80.4402C77.8473 80.4402 78.0107 80.4468 78.1973 80.4602C78.384 80.4668 78.5407 80.4835 78.6673 80.5102V81.7202C78.5407 81.6868 78.4007 81.6635 78.2473 81.6502C78.1007 81.6302 77.954 81.6202 77.8073 81.6202C77.3607 81.6202 76.9907 81.6735 76.6973 81.7802C76.4107 81.8868 76.184 82.0402 76.0173 82.2402C75.8507 82.4402 75.7273 82.6768 75.6473 82.9502C75.574 83.2168 75.5307 83.5168 75.5173 83.8502H75.5773C75.6707 83.6902 75.784 83.5502 75.9173 83.4302C76.0573 83.3035 76.2273 83.2035 76.4273 83.1302C76.6273 83.0568 76.8607 83.0202 77.1273 83.0202C77.5473 83.0202 77.9073 83.1102 78.2073 83.2902C78.514 83.4635 78.7507 83.7202 78.9173 84.0602C79.084 84.3935 79.1673 84.8002 79.1673 85.2802C79.1673 85.7935 79.0673 86.2368 78.8673 86.6102C78.674 86.9835 78.394 87.2702 78.0273 87.4702C77.6673 87.6635 77.2373 87.7602 76.7373 87.7602C76.3707 87.7602 76.0273 87.6968 75.7073 87.5702C75.394 87.4435 75.1173 87.2535 74.8773 87.0002C74.644 86.7402 74.4607 86.4135 74.3273 86.0202C74.194 85.6268 74.1273 85.1635 74.1273 84.6302ZM76.7073 86.5502C77.0007 86.5502 77.2407 86.4502 77.4273 86.2502C77.614 86.0435 77.7073 85.7268 77.7073 85.3002C77.7073 84.9535 77.6273 84.6802 77.4673 84.4802C77.3073 84.2802 77.064 84.1802 76.7373 84.1802C76.5173 84.1802 76.324 84.2302 76.1573 84.3302C75.9907 84.4235 75.8607 84.5468 75.7673 84.7002C75.674 84.8535 75.6273 85.0102 75.6273 85.1702C75.6273 85.3368 75.6507 85.5035 75.6973 85.6702C75.744 85.8302 75.8107 85.9768 75.8973 86.1102C75.9907 86.2435 76.104 86.3502 76.2373 86.4302C76.3707 86.5102 76.5273 86.5502 76.7073 86.5502ZM84.86 83.5702C84.86 83.9768 84.83 84.3835 84.77 84.7902C84.71 85.1902 84.6033 85.5702 84.45 85.9302C84.3033 86.2835 84.0933 86.6002 83.82 86.8802C83.5533 87.1535 83.21 87.3702 82.79 87.5302C82.3767 87.6835 81.8733 87.7602 81.28 87.7602C81.14 87.7602 80.9767 87.7535 80.79 87.7402C80.6033 87.7335 80.4467 87.7168 80.32 87.6902V86.4802C80.4533 86.5068 80.5933 86.5302 80.74 86.5502C80.8867 86.5702 81.0333 86.5802 81.18 86.5802C81.6267 86.5802 81.9933 86.5268 82.28 86.4202C82.5733 86.3135 82.8033 86.1602 82.97 85.9602C83.1367 85.7602 83.2567 85.5235 83.33 85.2502C83.41 84.9768 83.4567 84.6768 83.47 84.3502H83.41C83.3167 84.5035 83.2033 84.6435 83.07 84.7702C82.9433 84.8968 82.78 84.9968 82.58 85.0702C82.3867 85.1435 82.1367 85.1802 81.83 85.1802C81.4233 85.1802 81.07 85.0935 80.77 84.9202C80.47 84.7402 80.2367 84.4835 80.07 84.1502C79.9033 83.8102 79.82 83.4002 79.82 82.9202C79.82 82.4002 79.9167 81.9568 80.11 81.5902C80.31 81.2168 80.5933 80.9335 80.96 80.7402C81.3267 80.5402 81.7567 80.4402 82.25 80.4402C82.6167 80.4402 82.9567 80.5035 83.27 80.6302C83.59 80.7568 83.8667 80.9502 84.1 81.2102C84.34 81.4635 84.5267 81.7868 84.66 82.1802C84.7933 82.5735 84.86 83.0368 84.86 83.5702ZM82.28 81.6502C81.9867 81.6502 81.7467 81.7502 81.56 81.9502C81.3733 82.1502 81.28 82.4668 81.28 82.9002C81.28 83.2468 81.36 83.5202 81.52 83.7202C81.68 83.9202 81.9233 84.0202 82.25 84.0202C82.4767 84.0202 82.67 83.9702 82.83 83.8702C82.9967 83.7702 83.1267 83.6468 83.22 83.5002C83.3133 83.3468 83.36 83.1902 83.36 83.0302C83.36 82.8635 83.3367 82.7002 83.29 82.5402C83.2433 82.3735 83.1733 82.2235 83.08 82.0902C82.9933 81.9568 82.8833 81.8502 82.75 81.7702C82.6167 81.6902 82.46 81.6502 82.28 81.6502Z" fill="#9B6F27"/>
<rect x="82" width="25" height="25" rx="2" transform="rotate(90 82 0)" fill="#C5A064"/>
<circle cx="69.5" cy="12.5" r="7.5" fill="white"/>
<path d="M64.1273 12.97C64.1273 12.5567 64.1573 12.15 64.2173 11.75C64.2773 11.35 64.3807 10.9733 64.5273 10.62C64.6807 10.26 64.8907 9.94333 65.1573 9.67C65.4307 9.39 65.774 9.17333 66.1873 9.02C66.6073 8.86 67.114 8.78 67.7073 8.78C67.8473 8.78 68.0107 8.78667 68.1973 8.8C68.384 8.80667 68.5407 8.82333 68.6673 8.85V10.06C68.5407 10.0267 68.4007 10.0033 68.2473 9.99C68.1007 9.97 67.954 9.96 67.8073 9.96C67.3607 9.96 66.9907 10.0133 66.6973 10.12C66.4107 10.2267 66.184 10.38 66.0173 10.58C65.8507 10.78 65.7273 11.0167 65.6473 11.29C65.574 11.5567 65.5307 11.8567 65.5173 12.19H65.5773C65.6707 12.03 65.784 11.89 65.9173 11.77C66.0573 11.6433 66.2273 11.5433 66.4273 11.47C66.6273 11.3967 66.8607 11.36 67.1273 11.36C67.5473 11.36 67.9073 11.45 68.2073 11.63C68.514 11.8033 68.7507 12.06 68.9173 12.4C69.084 12.7333 69.1673 13.14 69.1673 13.62C69.1673 14.1333 69.0673 14.5767 68.8673 14.95C68.674 15.3233 68.394 15.61 68.0273 15.81C67.6673 16.0033 67.2373 16.1 66.7373 16.1C66.3707 16.1 66.0273 16.0367 65.7073 15.91C65.394 15.7833 65.1173 15.5933 64.8773 15.34C64.644 15.08 64.4607 14.7533 64.3273 14.36C64.194 13.9667 64.1273 13.5033 64.1273 12.97ZM66.7073 14.89C67.0007 14.89 67.2407 14.79 67.4273 14.59C67.614 14.3833 67.7073 14.0667 67.7073 13.64C67.7073 13.2933 67.6273 13.02 67.4673 12.82C67.3073 12.62 67.064 12.52 66.7373 12.52C66.5173 12.52 66.324 12.57 66.1573 12.67C65.9907 12.7633 65.8607 12.8867 65.7673 13.04C65.674 13.1933 65.6273 13.35 65.6273 13.51C65.6273 13.6767 65.6507 13.8433 65.6973 14.01C65.744 14.17 65.8107 14.3167 65.8973 14.45C65.9907 14.5833 66.104 14.69 66.2373 14.77C66.3707 14.85 66.5273 14.89 66.7073 14.89ZM69.85 12.97C69.85 12.5567 69.88 12.15 69.94 11.75C70 11.35 70.1033 10.9733 70.25 10.62C70.4033 10.26 70.6133 9.94333 70.88 9.67C71.1533 9.39 71.4967 9.17333 71.91 9.02C72.33 8.86 72.8367 8.78 73.43 8.78C73.57 8.78 73.7333 8.78667 73.92 8.8C74.1067 8.80667 74.2633 8.82333 74.39 8.85V10.06C74.2633 10.0267 74.1233 10.0033 73.97 9.99C73.8233 9.97 73.6767 9.96 73.53 9.96C73.0833 9.96 72.7133 10.0133 72.42 10.12C72.1333 10.2267 71.9067 10.38 71.74 10.58C71.5733 10.78 71.45 11.0167 71.37 11.29C71.2967 11.5567 71.2533 11.8567 71.24 12.19H71.3C71.3933 12.03 71.5067 11.89 71.64 11.77C71.78 11.6433 71.95 11.5433 72.15 11.47C72.35 11.3967 72.5833 11.36 72.85 11.36C73.27 11.36 73.63 11.45 73.93 11.63C74.2367 11.8033 74.4733 12.06 74.64 12.4C74.8067 12.7333 74.89 13.14 74.89 13.62C74.89 14.1333 74.79 14.5767 74.59 14.95C74.3967 15.3233 74.1167 15.61 73.75 15.81C73.39 16.0033 72.96 16.1 72.46 16.1C72.0933 16.1 71.75 16.0367 71.43 15.91C71.1167 15.7833 70.84 15.5933 70.6 15.34C70.3667 15.08 70.1833 14.7533 70.05 14.36C69.9167 13.9667 69.85 13.5033 69.85 12.97ZM72.43 14.89C72.7233 14.89 72.9633 14.79 73.15 14.59C73.3367 14.3833 73.43 14.0667 73.43 13.64C73.43 13.2933 73.35 13.02 73.19 12.82C73.03 12.62 72.7867 12.52 72.46 12.52C72.24 12.52 72.0467 12.57 71.88 12.67C71.7133 12.7633 71.5833 12.8867 71.49 13.04C71.3967 13.1933 71.35 13.35 71.35 13.51C71.35 13.6767 71.3733 13.8433 71.42 14.01C71.4667 14.17 71.5333 14.3167 71.62 14.45C71.7133 14.5833 71.8267 14.69 71.96 14.77C72.0933 14.85 72.25 14.89 72.43 14.89Z" fill="#9B6F27"/>
<rect x="135" y="42.6602" width="24" height="24" rx="5" transform="rotate(90 135 42.6602)" fill="#C5A064"/>
<circle cx="123.001" cy="54.66" r="7.2" fill="white"/>
<path d="M118.388 58.46L121.068 52.59H117.548V51.32H122.668V52.27L119.968 58.46H118.388ZM128.351 54.89C128.351 55.4633 128.304 55.9766 128.211 56.43C128.124 56.8833 127.981 57.27 127.781 57.59C127.587 57.9033 127.331 58.1433 127.011 58.31C126.697 58.4766 126.311 58.56 125.851 58.56C125.277 58.56 124.807 58.4133 124.441 58.12C124.074 57.8266 123.801 57.4066 123.621 56.86C123.447 56.3133 123.361 55.6566 123.361 54.89C123.361 54.1166 123.441 53.4566 123.601 52.91C123.761 52.3633 124.024 51.9433 124.391 51.65C124.757 51.3566 125.244 51.21 125.851 51.21C126.424 51.21 126.894 51.3566 127.261 51.65C127.627 51.9366 127.901 52.3566 128.081 52.91C128.261 53.4566 128.351 54.1166 128.351 54.89ZM124.861 54.89C124.861 55.43 124.891 55.8833 124.951 56.25C125.011 56.61 125.111 56.8833 125.251 57.07C125.397 57.25 125.597 57.34 125.851 57.34C126.104 57.34 126.301 57.25 126.441 57.07C126.587 56.89 126.691 56.62 126.751 56.26C126.817 55.8933 126.851 55.4366 126.851 54.89C126.851 54.3433 126.817 53.89 126.751 53.53C126.691 53.1633 126.587 52.89 126.441 52.71C126.301 52.5233 126.104 52.43 125.851 52.43C125.597 52.43 125.397 52.5233 125.251 52.71C125.111 52.89 125.011 53.1633 124.951 53.53C124.891 53.89 124.861 54.3433 124.861 54.89Z" fill="#9B6F27"/>
<rect x="135" y="73.6602" width="24" height="24" rx="5" transform="rotate(90 135 73.6602)" fill="#C5A064"/>
<circle cx="123.001" cy="85.66" r="7.2" fill="white"/>
<path d="M118.388 89.46L121.068 83.59H117.548V82.32H122.668V83.27L119.968 89.46H118.388ZM128.551 87.98H127.691V89.46H126.221V87.98H123.171V86.93L126.301 82.32H127.691V86.81H128.551V87.98ZM126.221 85.6C126.221 85.4866 126.221 85.3533 126.221 85.2C126.227 85.04 126.234 84.8833 126.241 84.73C126.247 84.57 126.254 84.43 126.261 84.31C126.267 84.1833 126.274 84.0966 126.281 84.05H126.241C126.181 84.1833 126.117 84.3133 126.051 84.44C125.984 84.5666 125.904 84.6966 125.811 84.83L124.501 86.81H126.221V85.6Z" fill="#9B6F27"/>
<rect x="135" y="97.6602" width="24" height="24" rx="5" transform="rotate(90 135 97.6602)" fill="#C5A064"/>
<circle cx="123.001" cy="109.66" r="7.2" fill="white"/>
<path d="M118.388 113.46L121.068 107.59H117.548V106.32H122.668V107.27L119.968 113.46H118.388ZM125.861 106.23C126.274 106.23 126.651 106.293 126.991 106.42C127.337 106.547 127.614 106.737 127.821 106.99C128.034 107.243 128.141 107.563 128.141 107.95C128.141 108.237 128.084 108.49 127.971 108.71C127.857 108.923 127.704 109.11 127.511 109.27C127.324 109.43 127.107 109.57 126.861 109.69C127.114 109.823 127.354 109.98 127.581 110.16C127.814 110.333 128.001 110.54 128.141 110.78C128.287 111.013 128.361 111.29 128.361 111.61C128.361 112.003 128.254 112.347 128.041 112.64C127.834 112.933 127.541 113.16 127.161 113.32C126.787 113.48 126.354 113.56 125.861 113.56C125.327 113.56 124.874 113.483 124.501 113.33C124.127 113.177 123.841 112.957 123.641 112.67C123.447 112.383 123.351 112.043 123.351 111.65C123.351 111.323 123.411 111.04 123.531 110.8C123.657 110.56 123.824 110.353 124.031 110.18C124.237 110 124.467 109.85 124.721 109.73C124.507 109.597 124.314 109.447 124.141 109.28C123.967 109.107 123.827 108.913 123.721 108.7C123.621 108.48 123.571 108.227 123.571 107.94C123.571 107.56 123.677 107.243 123.891 106.99C124.104 106.737 124.384 106.547 124.731 106.42C125.084 106.293 125.461 106.23 125.861 106.23ZM124.751 111.56C124.751 111.82 124.841 112.033 125.021 112.2C125.207 112.367 125.481 112.45 125.841 112.45C126.094 112.45 126.301 112.413 126.461 112.34C126.627 112.267 126.751 112.163 126.831 112.03C126.917 111.897 126.961 111.743 126.961 111.57C126.961 111.39 126.907 111.233 126.801 111.1C126.694 110.96 126.561 110.837 126.401 110.73C126.247 110.617 126.087 110.513 125.921 110.42L125.791 110.35C125.584 110.443 125.401 110.55 125.241 110.67C125.087 110.79 124.967 110.923 124.881 111.07C124.794 111.21 124.751 111.373 124.751 111.56ZM125.851 107.33C125.604 107.33 125.397 107.393 125.231 107.52C125.071 107.647 124.991 107.827 124.991 108.06C124.991 108.22 125.031 108.363 125.111 108.49C125.191 108.61 125.297 108.717 125.431 108.81C125.564 108.897 125.707 108.98 125.861 109.06C126.014 108.987 126.154 108.907 126.281 108.82C126.414 108.733 126.521 108.63 126.601 108.51C126.681 108.383 126.721 108.233 126.721 108.06C126.721 107.827 126.637 107.647 126.471 107.52C126.311 107.393 126.104 107.33 125.851 107.33Z" fill="#9B6F27"/>
<rect x="159" y="97.6602" width="24" height="24" rx="5" transform="rotate(90 159 97.6602)" fill="#C5A064"/>
<circle cx="147.001" cy="109.66" r="7.2" fill="white"/>
<path d="M142.388 113.46L145.068 107.59H141.548V106.32H146.668V107.27L143.968 113.46H142.388ZM152.361 109.37C152.361 109.777 152.331 110.183 152.271 110.59C152.211 110.99 152.104 111.37 151.951 111.73C151.804 112.083 151.594 112.4 151.321 112.68C151.054 112.953 150.711 113.17 150.291 113.33C149.877 113.483 149.374 113.56 148.781 113.56C148.641 113.56 148.477 113.553 148.291 113.54C148.104 113.533 147.947 113.517 147.821 113.49V112.28C147.954 112.307 148.094 112.33 148.241 112.35C148.387 112.37 148.534 112.38 148.681 112.38C149.127 112.38 149.494 112.327 149.781 112.22C150.074 112.113 150.304 111.96 150.471 111.76C150.637 111.56 150.757 111.323 150.831 111.05C150.911 110.777 150.957 110.477 150.971 110.15H150.911C150.817 110.303 150.704 110.443 150.571 110.57C150.444 110.697 150.281 110.797 150.081 110.87C149.887 110.943 149.637 110.98 149.331 110.98C148.924 110.98 148.571 110.893 148.271 110.72C147.971 110.54 147.737 110.283 147.571 109.95C147.404 109.61 147.321 109.2 147.321 108.72C147.321 108.2 147.417 107.757 147.611 107.39C147.811 107.017 148.094 106.733 148.461 106.54C148.827 106.34 149.257 106.24 149.751 106.24C150.117 106.24 150.457 106.303 150.771 106.43C151.091 106.557 151.367 106.75 151.601 107.01C151.841 107.263 152.027 107.587 152.161 107.98C152.294 108.373 152.361 108.837 152.361 109.37ZM149.781 107.45C149.487 107.45 149.247 107.55 149.061 107.75C148.874 107.95 148.781 108.267 148.781 108.7C148.781 109.047 148.861 109.32 149.021 109.52C149.181 109.72 149.424 109.82 149.751 109.82C149.977 109.82 150.171 109.77 150.331 109.67C150.497 109.57 150.627 109.447 150.721 109.3C150.814 109.147 150.861 108.99 150.861 108.83C150.861 108.663 150.837 108.5 150.791 108.34C150.744 108.173 150.674 108.023 150.581 107.89C150.494 107.757 150.384 107.65 150.251 107.57C150.117 107.49 149.961 107.45 149.781 107.45Z" fill="#9B6F27"/>
<rect x="183" y="97.6602" width="24" height="24" rx="5" transform="rotate(90 183 97.6602)" fill="#C5A064"/>
<circle cx="171.001" cy="109.66" r="7.2" fill="white"/>
<path d="M168.138 106.23C168.551 106.23 168.928 106.293 169.268 106.42C169.615 106.547 169.891 106.737 170.098 106.99C170.311 107.243 170.418 107.563 170.418 107.95C170.418 108.237 170.361 108.49 170.248 108.71C170.135 108.923 169.981 109.11 169.788 109.27C169.601 109.43 169.385 109.57 169.138 109.69C169.391 109.823 169.631 109.98 169.858 110.16C170.091 110.333 170.278 110.54 170.418 110.78C170.565 111.013 170.638 111.29 170.638 111.61C170.638 112.003 170.531 112.347 170.318 112.64C170.111 112.933 169.818 113.16 169.438 113.32C169.065 113.48 168.631 113.56 168.138 113.56C167.605 113.56 167.151 113.483 166.778 113.33C166.405 113.177 166.118 112.957 165.918 112.67C165.725 112.383 165.628 112.043 165.628 111.65C165.628 111.323 165.688 111.04 165.808 110.8C165.935 110.56 166.101 110.353 166.308 110.18C166.515 110 166.745 109.85 166.998 109.73C166.785 109.597 166.591 109.447 166.418 109.28C166.245 109.107 166.105 108.913 165.998 108.7C165.898 108.48 165.848 108.227 165.848 107.94C165.848 107.56 165.955 107.243 166.168 106.99C166.381 106.737 166.661 106.547 167.008 106.42C167.361 106.293 167.738 106.23 168.138 106.23ZM167.028 111.56C167.028 111.82 167.118 112.033 167.298 112.2C167.485 112.367 167.758 112.45 168.118 112.45C168.371 112.45 168.578 112.413 168.738 112.34C168.905 112.267 169.028 112.163 169.108 112.03C169.195 111.897 169.238 111.743 169.238 111.57C169.238 111.39 169.185 111.233 169.078 111.1C168.971 110.96 168.838 110.837 168.678 110.73C168.525 110.617 168.365 110.513 168.198 110.42L168.068 110.35C167.861 110.443 167.678 110.55 167.518 110.67C167.365 110.79 167.245 110.923 167.158 111.07C167.071 111.21 167.028 111.373 167.028 111.56ZM168.128 107.33C167.881 107.33 167.675 107.393 167.508 107.52C167.348 107.647 167.268 107.827 167.268 108.06C167.268 108.22 167.308 108.363 167.388 108.49C167.468 108.61 167.575 108.717 167.708 108.81C167.841 108.897 167.985 108.98 168.138 109.06C168.291 108.987 168.431 108.907 168.558 108.82C168.691 108.733 168.798 108.63 168.878 108.51C168.958 108.383 168.998 108.233 168.998 108.06C168.998 107.827 168.915 107.647 168.748 107.52C168.588 107.393 168.381 107.33 168.128 107.33ZM176.351 109.89C176.351 110.463 176.304 110.977 176.211 111.43C176.124 111.883 175.981 112.27 175.781 112.59C175.587 112.903 175.331 113.143 175.011 113.31C174.697 113.477 174.311 113.56 173.851 113.56C173.277 113.56 172.807 113.413 172.441 113.12C172.074 112.827 171.801 112.407 171.621 111.86C171.447 111.313 171.361 110.657 171.361 109.89C171.361 109.117 171.441 108.457 171.601 107.91C171.761 107.363 172.024 106.943 172.391 106.65C172.757 106.357 173.244 106.21 173.851 106.21C174.424 106.21 174.894 106.357 175.261 106.65C175.627 106.937 175.901 107.357 176.081 107.91C176.261 108.457 176.351 109.117 176.351 109.89ZM172.861 109.89C172.861 110.43 172.891 110.883 172.951 111.25C173.011 111.61 173.111 111.883 173.251 112.07C173.397 112.25 173.597 112.34 173.851 112.34C174.104 112.34 174.301 112.25 174.441 112.07C174.587 111.89 174.691 111.62 174.751 111.26C174.817 110.893 174.851 110.437 174.851 109.89C174.851 109.343 174.817 108.89 174.751 108.53C174.691 108.163 174.587 107.89 174.441 107.71C174.301 107.523 174.104 107.43 173.851 107.43C173.597 107.43 173.397 107.523 173.251 107.71C173.111 107.89 173.011 108.163 172.951 108.53C172.891 108.89 172.861 109.343 172.861 109.89Z" fill="#9B6F27"/>
<rect x="207" y="97.6602" width="24" height="24" rx="5" transform="rotate(90 207 97.6602)" fill="#C5A064"/>
<circle cx="195.001" cy="109.66" r="7.2" fill="white"/>
<path d="M192.138 106.23C192.551 106.23 192.928 106.293 193.268 106.42C193.615 106.547 193.891 106.737 194.098 106.99C194.311 107.243 194.418 107.563 194.418 107.95C194.418 108.237 194.361 108.49 194.248 108.71C194.135 108.923 193.981 109.11 193.788 109.27C193.601 109.43 193.385 109.57 193.138 109.69C193.391 109.823 193.631 109.98 193.858 110.16C194.091 110.333 194.278 110.54 194.418 110.78C194.565 111.013 194.638 111.29 194.638 111.61C194.638 112.003 194.531 112.347 194.318 112.64C194.111 112.933 193.818 113.16 193.438 113.32C193.065 113.48 192.631 113.56 192.138 113.56C191.605 113.56 191.151 113.483 190.778 113.33C190.405 113.177 190.118 112.957 189.918 112.67C189.725 112.383 189.628 112.043 189.628 111.65C189.628 111.323 189.688 111.04 189.808 110.8C189.935 110.56 190.101 110.353 190.308 110.18C190.515 110 190.745 109.85 190.998 109.73C190.785 109.597 190.591 109.447 190.418 109.28C190.245 109.107 190.105 108.913 189.998 108.7C189.898 108.48 189.848 108.227 189.848 107.94C189.848 107.56 189.955 107.243 190.168 106.99C190.381 106.737 190.661 106.547 191.008 106.42C191.361 106.293 191.738 106.23 192.138 106.23ZM191.028 111.56C191.028 111.82 191.118 112.033 191.298 112.2C191.485 112.367 191.758 112.45 192.118 112.45C192.371 112.45 192.578 112.413 192.738 112.34C192.905 112.267 193.028 112.163 193.108 112.03C193.195 111.897 193.238 111.743 193.238 111.57C193.238 111.39 193.185 111.233 193.078 111.1C192.971 110.96 192.838 110.837 192.678 110.73C192.525 110.617 192.365 110.513 192.198 110.42L192.068 110.35C191.861 110.443 191.678 110.55 191.518 110.67C191.365 110.79 191.245 110.923 191.158 111.07C191.071 111.21 191.028 111.373 191.028 111.56ZM192.128 107.33C191.881 107.33 191.675 107.393 191.508 107.52C191.348 107.647 191.268 107.827 191.268 108.06C191.268 108.22 191.308 108.363 191.388 108.49C191.468 108.61 191.575 108.717 191.708 108.81C191.841 108.897 191.985 108.98 192.138 109.06C192.291 108.987 192.431 108.907 192.558 108.82C192.691 108.733 192.798 108.63 192.878 108.51C192.958 108.383 192.998 108.233 192.998 108.06C192.998 107.827 192.915 107.647 192.748 107.52C192.588 107.393 192.381 107.33 192.128 107.33ZM199.131 113.46H197.621V109.33C197.621 109.217 197.621 109.077 197.621 108.91C197.627 108.743 197.634 108.57 197.641 108.39C197.647 108.21 197.654 108.05 197.661 107.91C197.627 107.95 197.554 108.023 197.441 108.13C197.334 108.23 197.234 108.32 197.141 108.4L196.321 109.06L195.591 108.15L197.891 106.32H199.131V113.46Z" fill="#9B6F27"/>
<rect x="159" y="73.6602" width="24" height="24" rx="5" transform="rotate(90 159 73.6602)" fill="#C5A064"/>
<circle cx="147.001" cy="85.66" r="7.2" fill="white"/>
<path d="M142.388 89.46L145.068 83.59H141.548V82.32H146.668V83.27L143.968 89.46H142.388ZM150.001 84.9C150.434 84.9 150.821 84.9833 151.161 85.15C151.501 85.3166 151.767 85.56 151.961 85.88C152.161 86.2 152.261 86.5966 152.261 87.07C152.261 87.5833 152.154 88.0266 151.941 88.4C151.727 88.7733 151.407 89.06 150.981 89.26C150.561 89.46 150.037 89.56 149.411 89.56C149.037 89.56 148.684 89.5266 148.351 89.46C148.024 89.3933 147.737 89.2966 147.491 89.17V87.87C147.737 87.9966 148.034 88.1066 148.381 88.2C148.727 88.2866 149.054 88.33 149.361 88.33C149.661 88.33 149.911 88.29 150.111 88.21C150.317 88.13 150.474 88.0066 150.581 87.84C150.687 87.6733 150.741 87.46 150.741 87.2C150.741 86.8466 150.624 86.58 150.391 86.4C150.157 86.2133 149.797 86.12 149.311 86.12C149.124 86.12 148.931 86.14 148.731 86.18C148.531 86.2133 148.364 86.2466 148.231 86.28L147.631 85.96L147.901 82.32H151.771V83.6H149.221L149.091 85C149.204 84.98 149.324 84.96 149.451 84.94C149.584 84.9133 149.767 84.9 150.001 84.9Z" fill="#9B6F27"/>
<rect x="183" y="73.6602" width="24" height="24" rx="5" transform="rotate(90 183 73.6602)" fill="#C5A064"/>
<circle cx="171.001" cy="85.66" r="7.2" fill="white"/>
<path d="M166.388 89.46L169.068 83.59H165.548V82.32H170.668V83.27L167.968 89.46H166.388ZM171.351 86.43C171.351 86.0166 171.381 85.61 171.441 85.21C171.501 84.81 171.604 84.4333 171.751 84.08C171.904 83.72 172.114 83.4033 172.381 83.13C172.654 82.85 172.997 82.6333 173.411 82.48C173.831 82.32 174.337 82.24 174.931 82.24C175.071 82.24 175.234 82.2466 175.421 82.26C175.607 82.2666 175.764 82.2833 175.891 82.31V83.52C175.764 83.4866 175.624 83.4633 175.471 83.45C175.324 83.43 175.177 83.42 175.031 83.42C174.584 83.42 174.214 83.4733 173.921 83.58C173.634 83.6866 173.407 83.84 173.241 84.04C173.074 84.24 172.951 84.4766 172.871 84.75C172.797 85.0166 172.754 85.3166 172.741 85.65H172.801C172.894 85.49 173.007 85.35 173.141 85.23C173.281 85.1033 173.451 85.0033 173.651 84.93C173.851 84.8566 174.084 84.82 174.351 84.82C174.771 84.82 175.131 84.91 175.431 85.09C175.737 85.2633 175.974 85.52 176.141 85.86C176.307 86.1933 176.391 86.6 176.391 87.08C176.391 87.5933 176.291 88.0366 176.091 88.41C175.897 88.7833 175.617 89.07 175.251 89.27C174.891 89.4633 174.461 89.56 173.961 89.56C173.594 89.56 173.251 89.4966 172.931 89.37C172.617 89.2433 172.341 89.0533 172.101 88.8C171.867 88.54 171.684 88.2133 171.551 87.82C171.417 87.4266 171.351 86.9633 171.351 86.43ZM173.931 88.35C174.224 88.35 174.464 88.25 174.651 88.05C174.837 87.8433 174.931 87.5266 174.931 87.1C174.931 86.7533 174.851 86.48 174.691 86.28C174.531 86.08 174.287 85.98 173.961 85.98C173.741 85.98 173.547 86.03 173.381 86.13C173.214 86.2233 173.084 86.3466 172.991 86.5C172.897 86.6533 172.851 86.81 172.851 86.97C172.851 87.1366 172.874 87.3033 172.921 87.47C172.967 87.63 173.034 87.7766 173.121 87.91C173.214 88.0433 173.327 88.15 173.461 88.23C173.594 88.31 173.751 88.35 173.931 88.35Z" fill="#9B6F27"/>
<rect x="207" y="73.6602" width="24" height="24" rx="5" transform="rotate(90 207 73.6602)" fill="#C5A064"/>
<circle cx="195.001" cy="85.66" r="7.2" fill="white"/>
<path d="M190.388 89.46L193.068 83.59H189.548V82.32H194.668V83.27L191.968 89.46H190.388ZM196.111 89.46L198.791 83.59H195.271V82.32H200.391V83.27L197.691 89.46H196.111Z" fill="#9B6F27"/>
<rect x="135" y="130.66" width="24" height="24" rx="5" transform="rotate(90 135 130.66)" fill="#C5A064"/>
<circle cx="123.001" cy="142.66" r="7.2" fill="white"/>
<path d="M120.138 139.23C120.551 139.23 120.928 139.293 121.268 139.42C121.615 139.547 121.891 139.737 122.098 139.99C122.311 140.243 122.418 140.563 122.418 140.95C122.418 141.237 122.361 141.49 122.248 141.71C122.135 141.923 121.981 142.11 121.788 142.27C121.601 142.43 121.385 142.57 121.138 142.69C121.391 142.823 121.631 142.98 121.858 143.16C122.091 143.333 122.278 143.54 122.418 143.78C122.565 144.013 122.638 144.29 122.638 144.61C122.638 145.003 122.531 145.347 122.318 145.64C122.111 145.933 121.818 146.16 121.438 146.32C121.065 146.48 120.631 146.56 120.138 146.56C119.605 146.56 119.151 146.483 118.778 146.33C118.405 146.177 118.118 145.957 117.918 145.67C117.725 145.383 117.628 145.043 117.628 144.65C117.628 144.323 117.688 144.04 117.808 143.8C117.935 143.56 118.101 143.353 118.308 143.18C118.515 143 118.745 142.85 118.998 142.73C118.785 142.597 118.591 142.447 118.418 142.28C118.245 142.107 118.105 141.913 117.998 141.7C117.898 141.48 117.848 141.227 117.848 140.94C117.848 140.56 117.955 140.243 118.168 139.99C118.381 139.737 118.661 139.547 119.008 139.42C119.361 139.293 119.738 139.23 120.138 139.23ZM119.028 144.56C119.028 144.82 119.118 145.033 119.298 145.2C119.485 145.367 119.758 145.45 120.118 145.45C120.371 145.45 120.578 145.413 120.738 145.34C120.905 145.267 121.028 145.163 121.108 145.03C121.195 144.897 121.238 144.743 121.238 144.57C121.238 144.39 121.185 144.233 121.078 144.1C120.971 143.96 120.838 143.837 120.678 143.73C120.525 143.617 120.365 143.513 120.198 143.42L120.068 143.35C119.861 143.443 119.678 143.55 119.518 143.67C119.365 143.79 119.245 143.923 119.158 144.07C119.071 144.21 119.028 144.373 119.028 144.56ZM120.128 140.33C119.881 140.33 119.675 140.393 119.508 140.52C119.348 140.647 119.268 140.827 119.268 141.06C119.268 141.22 119.308 141.363 119.388 141.49C119.468 141.61 119.575 141.717 119.708 141.81C119.841 141.897 119.985 141.98 120.138 142.06C120.291 141.987 120.431 141.907 120.558 141.82C120.691 141.733 120.798 141.63 120.878 141.51C120.958 141.383 120.998 141.233 120.998 141.06C120.998 140.827 120.915 140.647 120.748 140.52C120.588 140.393 120.381 140.33 120.128 140.33ZM128.391 146.46H123.401V145.41L125.191 143.6C125.551 143.227 125.841 142.917 126.061 142.67C126.281 142.417 126.441 142.19 126.541 141.99C126.641 141.783 126.691 141.563 126.691 141.33C126.691 141.043 126.611 140.83 126.451 140.69C126.297 140.55 126.087 140.48 125.821 140.48C125.547 140.48 125.281 140.543 125.021 140.67C124.761 140.797 124.487 140.977 124.201 141.21L123.381 140.24C123.587 140.06 123.804 139.893 124.031 139.74C124.264 139.587 124.531 139.463 124.831 139.37C125.137 139.27 125.504 139.22 125.931 139.22C126.397 139.22 126.797 139.307 127.131 139.48C127.471 139.647 127.731 139.877 127.911 140.17C128.097 140.457 128.191 140.783 128.191 141.15C128.191 141.45 128.144 141.727 128.051 141.98C127.964 142.233 127.834 142.48 127.661 142.72C127.494 142.953 127.287 143.197 127.041 143.45C126.794 143.697 126.514 143.967 126.201 144.26L125.281 145.12V145.19H128.391V146.46Z" fill="#9B6F27"/>
<rect x="159" y="130.66" width="24" height="24" rx="5" transform="rotate(90 159 130.66)" fill="#C5A064"/>
<circle cx="147.001" cy="142.66" r="7.2" fill="white"/>
<path d="M144.138 139.23C144.551 139.23 144.928 139.293 145.268 139.42C145.615 139.547 145.891 139.737 146.098 139.99C146.311 140.243 146.418 140.563 146.418 140.95C146.418 141.237 146.361 141.49 146.248 141.71C146.135 141.923 145.981 142.11 145.788 142.27C145.601 142.43 145.385 142.57 145.138 142.69C145.391 142.823 145.631 142.98 145.858 143.16C146.091 143.333 146.278 143.54 146.418 143.78C146.565 144.013 146.638 144.29 146.638 144.61C146.638 145.003 146.531 145.347 146.318 145.64C146.111 145.933 145.818 146.16 145.438 146.32C145.065 146.48 144.631 146.56 144.138 146.56C143.605 146.56 143.151 146.483 142.778 146.33C142.405 146.177 142.118 145.957 141.918 145.67C141.725 145.383 141.628 145.043 141.628 144.65C141.628 144.323 141.688 144.04 141.808 143.8C141.935 143.56 142.101 143.353 142.308 143.18C142.515 143 142.745 142.85 142.998 142.73C142.785 142.597 142.591 142.447 142.418 142.28C142.245 142.107 142.105 141.913 141.998 141.7C141.898 141.48 141.848 141.227 141.848 140.94C141.848 140.56 141.955 140.243 142.168 139.99C142.381 139.737 142.661 139.547 143.008 139.42C143.361 139.293 143.738 139.23 144.138 139.23ZM143.028 144.56C143.028 144.82 143.118 145.033 143.298 145.2C143.485 145.367 143.758 145.45 144.118 145.45C144.371 145.45 144.578 145.413 144.738 145.34C144.905 145.267 145.028 145.163 145.108 145.03C145.195 144.897 145.238 144.743 145.238 144.57C145.238 144.39 145.185 144.233 145.078 144.1C144.971 143.96 144.838 143.837 144.678 143.73C144.525 143.617 144.365 143.513 144.198 143.42L144.068 143.35C143.861 143.443 143.678 143.55 143.518 143.67C143.365 143.79 143.245 143.923 143.158 144.07C143.071 144.21 143.028 144.373 143.028 144.56ZM144.128 140.33C143.881 140.33 143.675 140.393 143.508 140.52C143.348 140.647 143.268 140.827 143.268 141.06C143.268 141.22 143.308 141.363 143.388 141.49C143.468 141.61 143.575 141.717 143.708 141.81C143.841 141.897 143.985 141.98 144.138 142.06C144.291 141.987 144.431 141.907 144.558 141.82C144.691 141.733 144.798 141.63 144.878 141.51C144.958 141.383 144.998 141.233 144.998 141.06C144.998 140.827 144.915 140.647 144.748 140.52C144.588 140.393 144.381 140.33 144.128 140.33ZM152.111 140.92C152.111 141.247 152.041 141.53 151.901 141.77C151.767 142.01 151.584 142.207 151.351 142.36C151.124 142.513 150.864 142.627 150.571 142.7V142.73C151.144 142.797 151.577 142.97 151.871 143.25C152.171 143.53 152.321 143.907 152.321 144.38C152.321 144.793 152.217 145.167 152.011 145.5C151.811 145.827 151.497 146.087 151.071 146.28C150.651 146.467 150.107 146.56 149.441 146.56C149.047 146.56 148.681 146.527 148.341 146.46C148.001 146.393 147.681 146.297 147.381 146.17V144.89C147.687 145.043 148.007 145.16 148.341 145.24C148.681 145.32 148.994 145.36 149.281 145.36C149.821 145.36 150.197 145.267 150.411 145.08C150.631 144.893 150.741 144.63 150.741 144.29C150.741 144.09 150.691 143.923 150.591 143.79C150.491 143.65 150.314 143.547 150.061 143.48C149.814 143.407 149.467 143.37 149.021 143.37H148.481V142.21H149.031C149.471 142.21 149.804 142.17 150.031 142.09C150.264 142.003 150.421 141.89 150.501 141.75C150.587 141.603 150.631 141.437 150.631 141.25C150.631 140.997 150.551 140.8 150.391 140.66C150.237 140.513 149.977 140.44 149.611 140.44C149.384 140.44 149.177 140.47 148.991 140.53C148.804 140.583 148.634 140.65 148.481 140.73C148.334 140.81 148.204 140.887 148.091 140.96L147.391 139.92C147.577 139.787 147.784 139.667 148.011 139.56C148.244 139.453 148.501 139.37 148.781 139.31C149.061 139.25 149.374 139.22 149.721 139.22C150.454 139.22 151.034 139.37 151.461 139.67C151.894 139.963 152.111 140.38 152.111 140.92Z" fill="#9B6F27"/>
<rect x="183" y="130.66" width="24" height="24" rx="5" transform="rotate(90 183 130.66)" fill="#C5A064"/>
<circle cx="171.001" cy="142.66" r="7.2" fill="white"/>
<path d="M168.138 139.23C168.551 139.23 168.928 139.293 169.268 139.42C169.615 139.547 169.891 139.737 170.098 139.99C170.311 140.243 170.418 140.563 170.418 140.95C170.418 141.237 170.361 141.49 170.248 141.71C170.135 141.923 169.981 142.11 169.788 142.27C169.601 142.43 169.385 142.57 169.138 142.69C169.391 142.823 169.631 142.98 169.858 143.16C170.091 143.333 170.278 143.54 170.418 143.78C170.565 144.013 170.638 144.29 170.638 144.61C170.638 145.003 170.531 145.347 170.318 145.64C170.111 145.933 169.818 146.16 169.438 146.32C169.065 146.48 168.631 146.56 168.138 146.56C167.605 146.56 167.151 146.483 166.778 146.33C166.405 146.177 166.118 145.957 165.918 145.67C165.725 145.383 165.628 145.043 165.628 144.65C165.628 144.323 165.688 144.04 165.808 143.8C165.935 143.56 166.101 143.353 166.308 143.18C166.515 143 166.745 142.85 166.998 142.73C166.785 142.597 166.591 142.447 166.418 142.28C166.245 142.107 166.105 141.913 165.998 141.7C165.898 141.48 165.848 141.227 165.848 140.94C165.848 140.56 165.955 140.243 166.168 139.99C166.381 139.737 166.661 139.547 167.008 139.42C167.361 139.293 167.738 139.23 168.138 139.23ZM167.028 144.56C167.028 144.82 167.118 145.033 167.298 145.2C167.485 145.367 167.758 145.45 168.118 145.45C168.371 145.45 168.578 145.413 168.738 145.34C168.905 145.267 169.028 145.163 169.108 145.03C169.195 144.897 169.238 144.743 169.238 144.57C169.238 144.39 169.185 144.233 169.078 144.1C168.971 143.96 168.838 143.837 168.678 143.73C168.525 143.617 168.365 143.513 168.198 143.42L168.068 143.35C167.861 143.443 167.678 143.55 167.518 143.67C167.365 143.79 167.245 143.923 167.158 144.07C167.071 144.21 167.028 144.373 167.028 144.56ZM168.128 140.33C167.881 140.33 167.675 140.393 167.508 140.52C167.348 140.647 167.268 140.827 167.268 141.06C167.268 141.22 167.308 141.363 167.388 141.49C167.468 141.61 167.575 141.717 167.708 141.81C167.841 141.897 167.985 141.98 168.138 142.06C168.291 141.987 168.431 141.907 168.558 141.82C168.691 141.733 168.798 141.63 168.878 141.51C168.958 141.383 168.998 141.233 168.998 141.06C168.998 140.827 168.915 140.647 168.748 140.52C168.588 140.393 168.381 140.33 168.128 140.33ZM176.551 144.98H175.691V146.46H174.221V144.98H171.171V143.93L174.301 139.32H175.691V143.81H176.551V144.98ZM174.221 142.6C174.221 142.487 174.221 142.353 174.221 142.2C174.227 142.04 174.234 141.883 174.241 141.73C174.247 141.57 174.254 141.43 174.261 141.31C174.267 141.183 174.274 141.097 174.281 141.05H174.241C174.181 141.183 174.117 141.313 174.051 141.44C173.984 141.567 173.904 141.697 173.811 141.83L172.501 143.81H174.221V142.6Z" fill="#9B6F27"/>
<rect x="207" y="130.66" width="24" height="24" rx="5" transform="rotate(90 207 130.66)" fill="#C5A064"/>
<circle cx="195.001" cy="142.66" r="7.2" fill="white"/>
<path d="M192.138 139.23C192.551 139.23 192.928 139.293 193.268 139.42C193.615 139.547 193.891 139.737 194.098 139.99C194.311 140.243 194.418 140.563 194.418 140.95C194.418 141.237 194.361 141.49 194.248 141.71C194.135 141.923 193.981 142.11 193.788 142.27C193.601 142.43 193.385 142.57 193.138 142.69C193.391 142.823 193.631 142.98 193.858 143.16C194.091 143.333 194.278 143.54 194.418 143.78C194.565 144.013 194.638 144.29 194.638 144.61C194.638 145.003 194.531 145.347 194.318 145.64C194.111 145.933 193.818 146.16 193.438 146.32C193.065 146.48 192.631 146.56 192.138 146.56C191.605 146.56 191.151 146.483 190.778 146.33C190.405 146.177 190.118 145.957 189.918 145.67C189.725 145.383 189.628 145.043 189.628 144.65C189.628 144.323 189.688 144.04 189.808 143.8C189.935 143.56 190.101 143.353 190.308 143.18C190.515 143 190.745 142.85 190.998 142.73C190.785 142.597 190.591 142.447 190.418 142.28C190.245 142.107 190.105 141.913 189.998 141.7C189.898 141.48 189.848 141.227 189.848 140.94C189.848 140.56 189.955 140.243 190.168 139.99C190.381 139.737 190.661 139.547 191.008 139.42C191.361 139.293 191.738 139.23 192.138 139.23ZM191.028 144.56C191.028 144.82 191.118 145.033 191.298 145.2C191.485 145.367 191.758 145.45 192.118 145.45C192.371 145.45 192.578 145.413 192.738 145.34C192.905 145.267 193.028 145.163 193.108 145.03C193.195 144.897 193.238 144.743 193.238 144.57C193.238 144.39 193.185 144.233 193.078 144.1C192.971 143.96 192.838 143.837 192.678 143.73C192.525 143.617 192.365 143.513 192.198 143.42L192.068 143.35C191.861 143.443 191.678 143.55 191.518 143.67C191.365 143.79 191.245 143.923 191.158 144.07C191.071 144.21 191.028 144.373 191.028 144.56ZM192.128 140.33C191.881 140.33 191.675 140.393 191.508 140.52C191.348 140.647 191.268 140.827 191.268 141.06C191.268 141.22 191.308 141.363 191.388 141.49C191.468 141.61 191.575 141.717 191.708 141.81C191.841 141.897 191.985 141.98 192.138 142.06C192.291 141.987 192.431 141.907 192.558 141.82C192.691 141.733 192.798 141.63 192.878 141.51C192.958 141.383 192.998 141.233 192.998 141.06C192.998 140.827 192.915 140.647 192.748 140.52C192.588 140.393 192.381 140.33 192.128 140.33ZM198.001 141.9C198.434 141.9 198.821 141.983 199.161 142.15C199.501 142.317 199.767 142.56 199.961 142.88C200.161 143.2 200.261 143.597 200.261 144.07C200.261 144.583 200.154 145.027 199.941 145.4C199.727 145.773 199.407 146.06 198.981 146.26C198.561 146.46 198.037 146.56 197.411 146.56C197.037 146.56 196.684 146.527 196.351 146.46C196.024 146.393 195.737 146.297 195.491 146.17V144.87C195.737 144.997 196.034 145.107 196.381 145.2C196.727 145.287 197.054 145.33 197.361 145.33C197.661 145.33 197.911 145.29 198.111 145.21C198.317 145.13 198.474 145.007 198.581 144.84C198.687 144.673 198.741 144.46 198.741 144.2C198.741 143.847 198.624 143.58 198.391 143.4C198.157 143.213 197.797 143.12 197.311 143.12C197.124 143.12 196.931 143.14 196.731 143.18C196.531 143.213 196.364 143.247 196.231 143.28L195.631 142.96L195.901 139.32H199.771V140.6H197.221L197.091 142C197.204 141.98 197.324 141.96 197.451 141.94C197.584 141.913 197.767 141.9 198.001 141.9Z" fill="#9B6F27"/>
<path d="M192.138 139.23C192.551 139.23 192.928 139.293 193.268 139.42C193.615 139.547 193.891 139.737 194.098 139.99C194.311 140.243 194.418 140.563 194.418 140.95C194.418 141.237 194.361 141.49 194.248 141.71C194.135 141.923 193.981 142.11 193.788 142.27C193.601 142.43 193.385 142.57 193.138 142.69C193.391 142.823 193.631 142.98 193.858 143.16C194.091 143.333 194.278 143.54 194.418 143.78C194.565 144.013 194.638 144.29 194.638 144.61C194.638 145.003 194.531 145.347 194.318 145.64C194.111 145.933 193.818 146.16 193.438 146.32C193.065 146.48 192.631 146.56 192.138 146.56C191.605 146.56 191.151 146.483 190.778 146.33C190.405 146.177 190.118 145.957 189.918 145.67C189.725 145.383 189.628 145.043 189.628 144.65C189.628 144.323 189.688 144.04 189.808 143.8C189.935 143.56 190.101 143.353 190.308 143.18C190.515 143 190.745 142.85 190.998 142.73C190.785 142.597 190.591 142.447 190.418 142.28C190.245 142.107 190.105 141.913 189.998 141.7C189.898 141.48 189.848 141.227 189.848 140.94C189.848 140.56 189.955 140.243 190.168 139.99C190.381 139.737 190.661 139.547 191.008 139.42C191.361 139.293 191.738 139.23 192.138 139.23ZM191.028 144.56C191.028 144.82 191.118 145.033 191.298 145.2C191.485 145.367 191.758 145.45 192.118 145.45C192.371 145.45 192.578 145.413 192.738 145.34C192.905 145.267 193.028 145.163 193.108 145.03C193.195 144.897 193.238 144.743 193.238 144.57C193.238 144.39 193.185 144.233 193.078 144.1C192.971 143.96 192.838 143.837 192.678 143.73C192.525 143.617 192.365 143.513 192.198 143.42L192.068 143.35C191.861 143.443 191.678 143.55 191.518 143.67C191.365 143.79 191.245 143.923 191.158 144.07C191.071 144.21 191.028 144.373 191.028 144.56ZM192.128 140.33C191.881 140.33 191.675 140.393 191.508 140.52C191.348 140.647 191.268 140.827 191.268 141.06C191.268 141.22 191.308 141.363 191.388 141.49C191.468 141.61 191.575 141.717 191.708 141.81C191.841 141.897 191.985 141.98 192.138 142.06C192.291 141.987 192.431 141.907 192.558 141.82C192.691 141.733 192.798 141.63 192.878 141.51C192.958 141.383 192.998 141.233 192.998 141.06C192.998 140.827 192.915 140.647 192.748 140.52C192.588 140.393 192.381 140.33 192.128 140.33ZM198.001 141.9C198.434 141.9 198.821 141.983 199.161 142.15C199.501 142.317 199.767 142.56 199.961 142.88C200.161 143.2 200.261 143.597 200.261 144.07C200.261 144.583 200.154 145.027 199.941 145.4C199.727 145.773 199.407 146.06 198.981 146.26C198.561 146.46 198.037 146.56 197.411 146.56C197.037 146.56 196.684 146.527 196.351 146.46C196.024 146.393 195.737 146.297 195.491 146.17V144.87C195.737 144.997 196.034 145.107 196.381 145.2C196.727 145.287 197.054 145.33 197.361 145.33C197.661 145.33 197.911 145.29 198.111 145.21C198.317 145.13 198.474 145.007 198.581 144.84C198.687 144.673 198.741 144.46 198.741 144.2C198.741 143.847 198.624 143.58 198.391 143.4C198.157 143.213 197.797 143.12 197.311 143.12C197.124 143.12 196.931 143.14 196.731 143.18C196.531 143.213 196.364 143.247 196.231 143.28L195.631 142.96L195.901 139.32H199.771V140.6H197.221L197.091 142C197.204 141.98 197.324 141.96 197.451 141.94C197.584 141.913 197.767 141.9 198.001 141.9Z" fill="#9B6F27"/>
<rect x="159" y="42.6602" width="24" height="24" rx="5" transform="rotate(90 159 42.6602)" fill="#C5A064"/>
<circle cx="147.001" cy="54.66" r="7.2" fill="white"/>
<path d="M142.388 58.46L145.068 52.59H141.548V51.32H146.668V52.27L143.968 58.46H142.388ZM151.131 58.46H149.621V54.33C149.621 54.2166 149.621 54.0766 149.621 53.91C149.627 53.7433 149.634 53.57 149.641 53.39C149.647 53.21 149.654 53.05 149.661 52.91C149.627 52.95 149.554 53.0233 149.441 53.13C149.334 53.23 149.234 53.32 149.141 53.4L148.321 54.06L147.591 53.15L149.891 51.32H151.131V58.46Z" fill="#9B6F27"/>
<rect x="183" y="42.6602" width="24" height="24" rx="5" transform="rotate(90 183 42.6602)" fill="#C5A064"/>
<circle cx="171.001" cy="54.66" r="7.2" fill="white"/>
<path d="M166.388 58.46L169.068 52.59H165.548V51.32H170.668V52.27L167.968 58.46H166.388ZM176.391 58.46H171.401V57.41L173.191 55.6C173.551 55.2266 173.841 54.9166 174.061 54.67C174.281 54.4166 174.441 54.19 174.541 53.99C174.641 53.7833 174.691 53.5633 174.691 53.33C174.691 53.0433 174.611 52.83 174.451 52.69C174.297 52.55 174.087 52.48 173.821 52.48C173.547 52.48 173.281 52.5433 173.021 52.67C172.761 52.7966 172.487 52.9766 172.201 53.21L171.381 52.24C171.587 52.06 171.804 51.8933 172.031 51.74C172.264 51.5866 172.531 51.4633 172.831 51.37C173.137 51.27 173.504 51.22 173.931 51.22C174.397 51.22 174.797 51.3066 175.131 51.48C175.471 51.6466 175.731 51.8766 175.911 52.17C176.097 52.4566 176.191 52.7833 176.191 53.15C176.191 53.45 176.144 53.7266 176.051 53.98C175.964 54.2333 175.834 54.48 175.661 54.72C175.494 54.9533 175.287 55.1966 175.041 55.45C174.794 55.6966 174.514 55.9666 174.201 56.26L173.281 57.12V57.19H176.391V58.46Z" fill="#9B6F27"/>
<rect x="207" y="42.6602" width="24" height="24" rx="5" transform="rotate(90 207 42.6602)" fill="#C5A064"/>
<circle cx="195.001" cy="54.66" r="7.2" fill="white"/>
<path d="M190.388 58.46L193.068 52.59H189.548V51.32H194.668V52.27L191.968 58.46H190.388ZM200.111 52.92C200.111 53.2466 200.041 53.53 199.901 53.77C199.767 54.01 199.584 54.2066 199.351 54.36C199.124 54.5133 198.864 54.6266 198.571 54.7V54.73C199.144 54.7966 199.577 54.97 199.871 55.25C200.171 55.53 200.321 55.9066 200.321 56.38C200.321 56.7933 200.217 57.1666 200.011 57.5C199.811 57.8266 199.497 58.0866 199.071 58.28C198.651 58.4666 198.107 58.56 197.441 58.56C197.047 58.56 196.681 58.5266 196.341 58.46C196.001 58.3933 195.681 58.2966 195.381 58.17V56.89C195.687 57.0433 196.007 57.16 196.341 57.24C196.681 57.32 196.994 57.36 197.281 57.36C197.821 57.36 198.197 57.2666 198.411 57.08C198.631 56.8933 198.741 56.63 198.741 56.29C198.741 56.09 198.691 55.9233 198.591 55.79C198.491 55.65 198.314 55.5466 198.061 55.48C197.814 55.4066 197.467 55.37 197.021 55.37H196.481V54.21H197.031C197.471 54.21 197.804 54.17 198.031 54.09C198.264 54.0033 198.421 53.89 198.501 53.75C198.587 53.6033 198.631 53.4366 198.631 53.25C198.631 52.9966 198.551 52.8 198.391 52.66C198.237 52.5133 197.977 52.44 197.611 52.44C197.384 52.44 197.177 52.47 196.991 52.53C196.804 52.5833 196.634 52.65 196.481 52.73C196.334 52.81 196.204 52.8866 196.091 52.96L195.391 51.92C195.577 51.7866 195.784 51.6666 196.011 51.56C196.244 51.4533 196.501 51.37 196.781 51.31C197.061 51.25 197.374 51.22 197.721 51.22C198.454 51.22 199.034 51.37 199.461 51.67C199.894 51.9633 200.111 52.38 200.111 52.92Z" fill="#9B6F27"/>
<rect x="232.949" y="44.6602" width="17.9492" height="17.9492" rx="5" transform="rotate(90 232.949 44.6602)" fill="#C5A064"/>
<circle cx="223.975" cy="53.6347" r="5.38469" fill="white"/>
<path d="M221.91 50.8762C222.241 50.8762 222.542 50.9268 222.814 51.0282C223.091 51.1295 223.313 51.2815 223.478 51.4842C223.649 51.6868 223.734 51.9428 223.734 52.2522C223.734 52.4815 223.689 52.6842 223.598 52.8602C223.507 53.0308 223.385 53.1802 223.23 53.3082C223.081 53.4362 222.907 53.5482 222.71 53.6442C222.913 53.7508 223.105 53.8762 223.286 54.0202C223.473 54.1588 223.622 54.3242 223.734 54.5162C223.851 54.7028 223.91 54.9242 223.91 55.1802C223.91 55.4948 223.825 55.7695 223.654 56.0042C223.489 56.2388 223.254 56.4202 222.95 56.5482C222.651 56.6762 222.305 56.7402 221.91 56.7402C221.483 56.7402 221.121 56.6788 220.822 56.5562C220.523 56.4335 220.294 56.2575 220.134 56.0282C219.979 55.7988 219.902 55.5268 219.902 55.2122C219.902 54.9508 219.95 54.7242 220.046 54.5322C220.147 54.3402 220.281 54.1748 220.446 54.0362C220.611 53.8922 220.795 53.7722 220.998 53.6762C220.827 53.5695 220.673 53.4495 220.534 53.3162C220.395 53.1775 220.283 53.0228 220.198 52.8522C220.118 52.6762 220.078 52.4735 220.078 52.2442C220.078 51.9402 220.163 51.6868 220.334 51.4842C220.505 51.2815 220.729 51.1295 221.006 51.0282C221.289 50.9268 221.59 50.8762 221.91 50.8762ZM221.022 55.1402C221.022 55.3482 221.094 55.5188 221.238 55.6522C221.387 55.7855 221.606 55.8522 221.894 55.8522C222.097 55.8522 222.262 55.8228 222.39 55.7642C222.523 55.7055 222.622 55.6228 222.686 55.5162C222.755 55.4095 222.79 55.2868 222.79 55.1482C222.79 55.0042 222.747 54.8788 222.662 54.7722C222.577 54.6602 222.47 54.5615 222.342 54.4762C222.219 54.3855 222.091 54.3028 221.958 54.2282L221.854 54.1722C221.689 54.2468 221.542 54.3322 221.414 54.4282C221.291 54.5242 221.195 54.6308 221.126 54.7482C221.057 54.8602 221.022 54.9908 221.022 55.1402ZM221.902 51.7562C221.705 51.7562 221.539 51.8068 221.406 51.9082C221.278 52.0095 221.214 52.1535 221.214 52.3402C221.214 52.4682 221.246 52.5828 221.31 52.6842C221.374 52.7802 221.459 52.8655 221.566 52.9402C221.673 53.0095 221.787 53.0762 221.91 53.1402C222.033 53.0815 222.145 53.0175 222.246 52.9482C222.353 52.8788 222.438 52.7962 222.502 52.7002C222.566 52.5988 222.598 52.4788 222.598 52.3402C222.598 52.1535 222.531 52.0095 222.398 51.9082C222.27 51.8068 222.105 51.7562 221.902 51.7562ZM224.48 54.2362C224.48 53.9055 224.504 53.5802 224.552 53.2602C224.6 52.9402 224.683 52.6388 224.8 52.3562C224.923 52.0682 225.091 51.8148 225.304 51.5962C225.523 51.3722 225.797 51.1988 226.128 51.0762C226.464 50.9482 226.869 50.8842 227.344 50.8842C227.456 50.8842 227.587 50.8895 227.736 50.9002C227.885 50.9055 228.011 50.9188 228.112 50.9402V51.9082C228.011 51.8815 227.899 51.8628 227.776 51.8522C227.659 51.8362 227.541 51.8282 227.424 51.8282C227.067 51.8282 226.771 51.8708 226.536 51.9562C226.307 52.0415 226.125 52.1642 225.992 52.3242C225.859 52.4842 225.76 52.6735 225.696 52.8922C225.637 53.1055 225.603 53.3455 225.592 53.6122H225.64C225.715 53.4842 225.805 53.3722 225.912 53.2762C226.024 53.1748 226.16 53.0948 226.32 53.0362C226.48 52.9775 226.667 52.9482 226.88 52.9482C227.216 52.9482 227.504 53.0202 227.744 53.1642C227.989 53.3028 228.179 53.5082 228.312 53.7802C228.445 54.0468 228.512 54.3722 228.512 54.7562C228.512 55.1668 228.432 55.5215 228.272 55.8202C228.117 56.1188 227.893 56.3482 227.6 56.5082C227.312 56.6628 226.968 56.7402 226.568 56.7402C226.275 56.7402 226 56.6895 225.744 56.5882C225.493 56.4868 225.272 56.3348 225.08 56.1322C224.893 55.9242 224.747 55.6628 224.64 55.3482C224.533 55.0335 224.48 54.6628 224.48 54.2362ZM226.544 55.7722C226.779 55.7722 226.971 55.6922 227.12 55.5322C227.269 55.3668 227.344 55.1135 227.344 54.7722C227.344 54.4948 227.28 54.2762 227.152 54.1162C227.024 53.9562 226.829 53.8762 226.568 53.8762C226.392 53.8762 226.237 53.9162 226.104 53.9962C225.971 54.0708 225.867 54.1695 225.792 54.2922C225.717 54.4148 225.68 54.5402 225.68 54.6682C225.68 54.8015 225.699 54.9348 225.736 55.0682C225.773 55.1962 225.827 55.3135 225.896 55.4202C225.971 55.5268 226.061 55.6122 226.168 55.6762C226.275 55.7402 226.4 55.7722 226.544 55.7722Z" fill="#9B6F27"/>
<path d="M221.91 68.8762C222.241 68.8762 222.542 68.9268 222.814 69.0282C223.091 69.1295 223.313 69.2815 223.478 69.4842C223.649 69.6868 223.734 69.9428 223.734 70.2522C223.734 70.4815 223.689 70.6842 223.598 70.8602C223.507 71.0308 223.385 71.1802 223.23 71.3082C223.081 71.4362 222.907 71.5482 222.71 71.6442C222.913 71.7508 223.105 71.8762 223.286 72.0202C223.473 72.1588 223.622 72.3242 223.734 72.5162C223.851 72.7028 223.91 72.9242 223.91 73.1802C223.91 73.4948 223.825 73.7695 223.654 74.0042C223.489 74.2388 223.254 74.4202 222.95 74.5482C222.651 74.6762 222.305 74.7402 221.91 74.7402C221.483 74.7402 221.121 74.6788 220.822 74.5562C220.523 74.4335 220.294 74.2575 220.134 74.0282C219.979 73.7988 219.902 73.5268 219.902 73.2122C219.902 72.9508 219.95 72.7242 220.046 72.5322C220.147 72.3402 220.281 72.1748 220.446 72.0362C220.611 71.8922 220.795 71.7722 220.998 71.6762C220.827 71.5695 220.673 71.4495 220.534 71.3162C220.395 71.1775 220.283 71.0228 220.198 70.8522C220.118 70.6762 220.078 70.4735 220.078 70.2442C220.078 69.9402 220.163 69.6868 220.334 69.4842C220.505 69.2815 220.729 69.1295 221.006 69.0282C221.289 68.9268 221.59 68.8762 221.91 68.8762ZM221.022 73.1402C221.022 73.3482 221.094 73.5188 221.238 73.6522C221.387 73.7855 221.606 73.8522 221.894 73.8522C222.097 73.8522 222.262 73.8228 222.39 73.7642C222.523 73.7055 222.622 73.6228 222.686 73.5162C222.755 73.4095 222.79 73.2868 222.79 73.1482C222.79 73.0042 222.747 72.8788 222.662 72.7722C222.577 72.6602 222.47 72.5615 222.342 72.4762C222.219 72.3855 222.091 72.3028 221.958 72.2282L221.854 72.1722C221.689 72.2468 221.542 72.3322 221.414 72.4282C221.291 72.5242 221.195 72.6308 221.126 72.7482C221.057 72.8602 221.022 72.9908 221.022 73.1402ZM221.902 69.7562C221.705 69.7562 221.539 69.8068 221.406 69.9082C221.278 70.0095 221.214 70.1535 221.214 70.3402C221.214 70.4682 221.246 70.5828 221.31 70.6842C221.374 70.7802 221.459 70.8655 221.566 70.9402C221.673 71.0095 221.787 71.0762 221.91 71.1402C222.033 71.0815 222.145 71.0175 222.246 70.9482C222.353 70.8788 222.438 70.7962 222.502 70.7002C222.566 70.5988 222.598 70.4788 222.598 70.3402C222.598 70.1535 222.531 70.0095 222.398 69.9082C222.27 69.8068 222.105 69.7562 221.902 69.7562ZM225.088 74.6602L227.232 69.9642H224.416V68.9482H228.512V69.7082L226.352 74.6602H225.088Z" fill="#9B6F27"/>
<path d="M221.91 86.8762C222.241 86.8762 222.542 86.9268 222.814 87.0282C223.091 87.1295 223.313 87.2815 223.478 87.4842C223.649 87.6868 223.734 87.9428 223.734 88.2522C223.734 88.4815 223.689 88.6842 223.598 88.8602C223.507 89.0308 223.385 89.1802 223.23 89.3082C223.081 89.4362 222.907 89.5482 222.71 89.6442C222.913 89.7508 223.105 89.8762 223.286 90.0202C223.473 90.1588 223.622 90.3242 223.734 90.5162C223.851 90.7028 223.91 90.9242 223.91 91.1802C223.91 91.4948 223.825 91.7695 223.654 92.0042C223.489 92.2388 223.254 92.4202 222.95 92.5482C222.651 92.6762 222.305 92.7402 221.91 92.7402C221.483 92.7402 221.121 92.6788 220.822 92.5562C220.523 92.4335 220.294 92.2575 220.134 92.0282C219.979 91.7988 219.902 91.5268 219.902 91.2122C219.902 90.9508 219.95 90.7242 220.046 90.5322C220.147 90.3402 220.281 90.1748 220.446 90.0362C220.611 89.8922 220.795 89.7722 220.998 89.6762C220.827 89.5695 220.673 89.4495 220.534 89.3162C220.395 89.1775 220.283 89.0228 220.198 88.8522C220.118 88.6762 220.078 88.4735 220.078 88.2442C220.078 87.9402 220.163 87.6868 220.334 87.4842C220.505 87.2815 220.729 87.1295 221.006 87.0282C221.289 86.9268 221.59 86.8762 221.91 86.8762ZM221.022 91.1402C221.022 91.3482 221.094 91.5188 221.238 91.6522C221.387 91.7855 221.606 91.8522 221.894 91.8522C222.097 91.8522 222.262 91.8228 222.39 91.7642C222.523 91.7055 222.622 91.6228 222.686 91.5162C222.755 91.4095 222.79 91.2868 222.79 91.1482C222.79 91.0042 222.747 90.8788 222.662 90.7722C222.577 90.6602 222.47 90.5615 222.342 90.4762C222.219 90.3855 222.091 90.3028 221.958 90.2282L221.854 90.1722C221.689 90.2468 221.542 90.3322 221.414 90.4282C221.291 90.5242 221.195 90.6308 221.126 90.7482C221.057 90.8602 221.022 90.9908 221.022 91.1402ZM221.902 87.7562C221.705 87.7562 221.539 87.8068 221.406 87.9082C221.278 88.0095 221.214 88.1535 221.214 88.3402C221.214 88.4682 221.246 88.5828 221.31 88.6842C221.374 88.7802 221.459 88.8655 221.566 88.9402C221.673 89.0095 221.787 89.0762 221.91 89.1402C222.033 89.0815 222.145 89.0175 222.246 88.9482C222.353 88.8788 222.438 88.7962 222.502 88.7002C222.566 88.5988 222.598 88.4788 222.598 88.3402C222.598 88.1535 222.531 88.0095 222.398 87.9082C222.27 87.8068 222.105 87.7562 221.902 87.7562ZM226.488 86.8762C226.819 86.8762 227.12 86.9268 227.392 87.0282C227.669 87.1295 227.891 87.2815 228.056 87.4842C228.227 87.6868 228.312 87.9428 228.312 88.2522C228.312 88.4815 228.267 88.6842 228.176 88.8602C228.085 89.0308 227.963 89.1802 227.808 89.3082C227.659 89.4362 227.485 89.5482 227.288 89.6442C227.491 89.7508 227.683 89.8762 227.864 90.0202C228.051 90.1588 228.2 90.3242 228.312 90.5162C228.429 90.7028 228.488 90.9242 228.488 91.1802C228.488 91.4948 228.403 91.7695 228.232 92.0042C228.067 92.2388 227.832 92.4202 227.528 92.5482C227.229 92.6762 226.883 92.7402 226.488 92.7402C226.061 92.7402 225.699 92.6788 225.4 92.5562C225.101 92.4335 224.872 92.2575 224.712 92.0282C224.557 91.7988 224.48 91.5268 224.48 91.2122C224.48 90.9508 224.528 90.7242 224.624 90.5322C224.725 90.3402 224.859 90.1748 225.024 90.0362C225.189 89.8922 225.373 89.7722 225.576 89.6762C225.405 89.5695 225.251 89.4495 225.112 89.3162C224.973 89.1775 224.861 89.0228 224.776 88.8522C224.696 88.6762 224.656 88.4735 224.656 88.2442C224.656 87.9402 224.741 87.6868 224.912 87.4842C225.083 87.2815 225.307 87.1295 225.584 87.0282C225.867 86.9268 226.168 86.8762 226.488 86.8762ZM225.6 91.1402C225.6 91.3482 225.672 91.5188 225.816 91.6522C225.965 91.7855 226.184 91.8522 226.472 91.8522C226.675 91.8522 226.84 91.8228 226.968 91.7642C227.101 91.7055 227.2 91.6228 227.264 91.5162C227.333 91.4095 227.368 91.2868 227.368 91.1482C227.368 91.0042 227.325 90.8788 227.24 90.7722C227.155 90.6602 227.048 90.5615 226.92 90.4762C226.797 90.3855 226.669 90.3028 226.536 90.2282L226.432 90.1722C226.267 90.2468 226.12 90.3322 225.992 90.4282C225.869 90.5242 225.773 90.6308 225.704 90.7482C225.635 90.8602 225.6 90.9908 225.6 91.1402ZM226.48 87.7562C226.283 87.7562 226.117 87.8068 225.984 87.9082C225.856 88.0095 225.792 88.1535 225.792 88.3402C225.792 88.4682 225.824 88.5828 225.888 88.6842C225.952 88.7802 226.037 88.8655 226.144 88.9402C226.251 89.0095 226.365 89.0762 226.488 89.1402C226.611 89.0815 226.723 89.0175 226.824 88.9482C226.931 88.8788 227.016 88.7962 227.08 88.7002C227.144 88.5988 227.176 88.4788 227.176 88.3402C227.176 88.1535 227.109 88.0095 226.976 87.9082C226.848 87.8068 226.683 87.7562 226.48 87.7562Z" fill="#9B6F27"/>
<path d="M221.91 104.876C222.241 104.876 222.542 104.927 222.814 105.028C223.091 105.129 223.313 105.281 223.478 105.484C223.649 105.687 223.734 105.943 223.734 106.252C223.734 106.481 223.689 106.684 223.598 106.86C223.507 107.031 223.385 107.18 223.23 107.308C223.081 107.436 222.907 107.548 222.71 107.644C222.913 107.751 223.105 107.876 223.286 108.02C223.473 108.159 223.622 108.324 223.734 108.516C223.851 108.703 223.91 108.924 223.91 109.18C223.91 109.495 223.825 109.769 223.654 110.004C223.489 110.239 223.254 110.42 222.95 110.548C222.651 110.676 222.305 110.74 221.91 110.74C221.483 110.74 221.121 110.679 220.822 110.556C220.523 110.433 220.294 110.257 220.134 110.028C219.979 109.799 219.902 109.527 219.902 109.212C219.902 108.951 219.95 108.724 220.046 108.532C220.147 108.34 220.281 108.175 220.446 108.036C220.611 107.892 220.795 107.772 220.998 107.676C220.827 107.569 220.673 107.449 220.534 107.316C220.395 107.177 220.283 107.023 220.198 106.852C220.118 106.676 220.078 106.473 220.078 106.244C220.078 105.94 220.163 105.687 220.334 105.484C220.505 105.281 220.729 105.129 221.006 105.028C221.289 104.927 221.59 104.876 221.91 104.876ZM221.022 109.14C221.022 109.348 221.094 109.519 221.238 109.652C221.387 109.785 221.606 109.852 221.894 109.852C222.097 109.852 222.262 109.823 222.39 109.764C222.523 109.705 222.622 109.623 222.686 109.516C222.755 109.409 222.79 109.287 222.79 109.148C222.79 109.004 222.747 108.879 222.662 108.772C222.577 108.66 222.47 108.561 222.342 108.476C222.219 108.385 222.091 108.303 221.958 108.228L221.854 108.172C221.689 108.247 221.542 108.332 221.414 108.428C221.291 108.524 221.195 108.631 221.126 108.748C221.057 108.86 221.022 108.991 221.022 109.14ZM221.902 105.756C221.705 105.756 221.539 105.807 221.406 105.908C221.278 106.009 221.214 106.153 221.214 106.34C221.214 106.468 221.246 106.583 221.31 106.684C221.374 106.78 221.459 106.865 221.566 106.94C221.673 107.009 221.787 107.076 221.91 107.14C222.033 107.081 222.145 107.017 222.246 106.948C222.353 106.879 222.438 106.796 222.502 106.7C222.566 106.599 222.598 106.479 222.598 106.34C222.598 106.153 222.531 106.009 222.398 105.908C222.27 105.807 222.105 105.756 221.902 105.756ZM228.488 107.388C228.488 107.713 228.464 108.039 228.416 108.364C228.368 108.684 228.283 108.988 228.16 109.276C228.043 109.559 227.875 109.812 227.656 110.036C227.443 110.255 227.168 110.428 226.832 110.556C226.501 110.679 226.099 110.74 225.624 110.74C225.512 110.74 225.381 110.735 225.232 110.724C225.083 110.719 224.957 110.705 224.856 110.684V109.716C224.963 109.737 225.075 109.756 225.192 109.772C225.309 109.788 225.427 109.796 225.544 109.796C225.901 109.796 226.195 109.753 226.424 109.668C226.659 109.583 226.843 109.46 226.976 109.3C227.109 109.14 227.205 108.951 227.264 108.732C227.328 108.513 227.365 108.273 227.376 108.012H227.328C227.253 108.135 227.163 108.247 227.056 108.348C226.955 108.449 226.824 108.529 226.664 108.588C226.509 108.647 226.309 108.676 226.064 108.676C225.739 108.676 225.456 108.607 225.216 108.468C224.976 108.324 224.789 108.119 224.656 107.852C224.523 107.58 224.456 107.252 224.456 106.868C224.456 106.452 224.533 106.097 224.688 105.804C224.848 105.505 225.075 105.279 225.368 105.124C225.661 104.964 226.005 104.884 226.4 104.884C226.693 104.884 226.965 104.935 227.216 105.036C227.472 105.137 227.693 105.292 227.88 105.5C228.072 105.703 228.221 105.961 228.328 106.276C228.435 106.591 228.488 106.961 228.488 107.388ZM226.424 105.852C226.189 105.852 225.997 105.932 225.848 106.092C225.699 106.252 225.624 106.505 225.624 106.852C225.624 107.129 225.688 107.348 225.816 107.508C225.944 107.668 226.139 107.748 226.4 107.748C226.581 107.748 226.736 107.708 226.864 107.628C226.997 107.548 227.101 107.449 227.176 107.332C227.251 107.209 227.288 107.084 227.288 106.956C227.288 106.823 227.269 106.692 227.232 106.564C227.195 106.431 227.139 106.311 227.064 106.204C226.995 106.097 226.907 106.012 226.8 105.948C226.693 105.884 226.568 105.852 226.424 105.852Z" fill="#9B6F27"/>
<path d="M223.91 125.388C223.91 125.713 223.886 126.039 223.838 126.364C223.79 126.684 223.705 126.988 223.582 127.276C223.465 127.559 223.297 127.812 223.078 128.036C222.865 128.255 222.59 128.428 222.254 128.556C221.923 128.679 221.521 128.74 221.046 128.74C220.934 128.74 220.803 128.735 220.654 128.724C220.505 128.719 220.379 128.705 220.278 128.684V127.716C220.385 127.737 220.497 127.756 220.614 127.772C220.731 127.788 220.849 127.796 220.966 127.796C221.323 127.796 221.617 127.753 221.846 127.668C222.081 127.583 222.265 127.46 222.398 127.3C222.531 127.14 222.627 126.951 222.686 126.732C222.75 126.513 222.787 126.273 222.798 126.012H222.75C222.675 126.135 222.585 126.247 222.478 126.348C222.377 126.449 222.246 126.529 222.086 126.588C221.931 126.647 221.731 126.676 221.486 126.676C221.161 126.676 220.878 126.607 220.638 126.468C220.398 126.324 220.211 126.119 220.078 125.852C219.945 125.58 219.878 125.252 219.878 124.868C219.878 124.452 219.955 124.097 220.11 123.804C220.27 123.505 220.497 123.279 220.79 123.124C221.083 122.964 221.427 122.884 221.822 122.884C222.115 122.884 222.387 122.935 222.638 123.036C222.894 123.137 223.115 123.292 223.302 123.5C223.494 123.703 223.643 123.961 223.75 124.276C223.857 124.591 223.91 124.961 223.91 125.388ZM221.846 123.852C221.611 123.852 221.419 123.932 221.27 124.092C221.121 124.252 221.046 124.505 221.046 124.852C221.046 125.129 221.11 125.348 221.238 125.508C221.366 125.668 221.561 125.748 221.822 125.748C222.003 125.748 222.158 125.708 222.286 125.628C222.419 125.548 222.523 125.449 222.598 125.332C222.673 125.209 222.71 125.084 222.71 124.956C222.71 124.823 222.691 124.692 222.654 124.564C222.617 124.431 222.561 124.311 222.486 124.204C222.417 124.097 222.329 124.012 222.222 123.948C222.115 123.884 221.99 123.852 221.846 123.852ZM228.48 125.804C228.48 126.263 228.443 126.673 228.368 127.036C228.299 127.399 228.184 127.708 228.024 127.964C227.869 128.215 227.664 128.407 227.408 128.54C227.157 128.673 226.848 128.74 226.48 128.74C226.021 128.74 225.645 128.623 225.352 128.388C225.059 128.153 224.84 127.817 224.696 127.38C224.557 126.943 224.488 126.417 224.488 125.804C224.488 125.185 224.552 124.657 224.68 124.22C224.808 123.783 225.019 123.447 225.312 123.212C225.605 122.977 225.995 122.86 226.48 122.86C226.939 122.86 227.315 122.977 227.608 123.212C227.901 123.441 228.12 123.777 228.264 124.22C228.408 124.657 228.48 125.185 228.48 125.804ZM225.688 125.804C225.688 126.236 225.712 126.599 225.76 126.892C225.808 127.18 225.888 127.399 226 127.548C226.117 127.692 226.277 127.764 226.48 127.764C226.683 127.764 226.84 127.692 226.952 127.548C227.069 127.404 227.152 127.188 227.2 126.9C227.253 126.607 227.28 126.241 227.28 125.804C227.28 125.367 227.253 125.004 227.2 124.716C227.152 124.423 227.069 124.204 226.952 124.06C226.84 123.911 226.683 123.836 226.48 123.836C226.277 123.836 226.117 123.911 226 124.06C225.888 124.204 225.808 124.423 225.76 124.716C225.712 125.004 225.688 125.367 225.688 125.804Z" fill="#9B6F27"/>
<path d="M223.91 143.388C223.91 143.713 223.886 144.039 223.838 144.364C223.79 144.684 223.705 144.988 223.582 145.276C223.465 145.559 223.297 145.812 223.078 146.036C222.865 146.255 222.59 146.428 222.254 146.556C221.923 146.679 221.521 146.74 221.046 146.74C220.934 146.74 220.803 146.735 220.654 146.724C220.505 146.719 220.379 146.705 220.278 146.684V145.716C220.385 145.737 220.497 145.756 220.614 145.772C220.731 145.788 220.849 145.796 220.966 145.796C221.323 145.796 221.617 145.753 221.846 145.668C222.081 145.583 222.265 145.46 222.398 145.3C222.531 145.14 222.627 144.951 222.686 144.732C222.75 144.513 222.787 144.273 222.798 144.012H222.75C222.675 144.135 222.585 144.247 222.478 144.348C222.377 144.449 222.246 144.529 222.086 144.588C221.931 144.647 221.731 144.676 221.486 144.676C221.161 144.676 220.878 144.607 220.638 144.468C220.398 144.324 220.211 144.119 220.078 143.852C219.945 143.58 219.878 143.252 219.878 142.868C219.878 142.452 219.955 142.097 220.11 141.804C220.27 141.505 220.497 141.279 220.79 141.124C221.083 140.964 221.427 140.884 221.822 140.884C222.115 140.884 222.387 140.935 222.638 141.036C222.894 141.137 223.115 141.292 223.302 141.5C223.494 141.703 223.643 141.961 223.75 142.276C223.857 142.591 223.91 142.961 223.91 143.388ZM221.846 141.852C221.611 141.852 221.419 141.932 221.27 142.092C221.121 142.252 221.046 142.505 221.046 142.852C221.046 143.129 221.11 143.348 221.238 143.508C221.366 143.668 221.561 143.748 221.822 143.748C222.003 143.748 222.158 143.708 222.286 143.628C222.419 143.548 222.523 143.449 222.598 143.332C222.673 143.209 222.71 143.084 222.71 142.956C222.71 142.823 222.691 142.692 222.654 142.564C222.617 142.431 222.561 142.311 222.486 142.204C222.417 142.097 222.329 142.012 222.222 141.948C222.115 141.884 221.99 141.852 221.846 141.852ZM227.504 146.66H226.296V143.356C226.296 143.265 226.296 143.153 226.296 143.02C226.301 142.887 226.307 142.748 226.312 142.604C226.317 142.46 226.323 142.332 226.328 142.22C226.301 142.252 226.243 142.311 226.152 142.396C226.067 142.476 225.987 142.548 225.912 142.612L225.256 143.14L224.672 142.412L226.512 140.948H227.504V146.66Z" fill="#9B6F27"/>
</svg>
