<svg width="172" height="63" viewBox="0 0 172 63" fill="none" xmlns="http://www.w3.org/2000/svg">
<rect x="12" width="25" height="25" rx="2" fill="#F08054"/>
<circle cx="24.5" cy="12.5" r="7.5" fill="white"/>
<path d="M25.7687 16H24.2587V11.87C24.2587 11.7567 24.2587 11.6167 24.2587 11.45C24.2653 11.2833 24.272 11.11 24.2787 10.93C24.2853 10.75 24.292 10.59 24.2987 10.45C24.2653 10.49 24.192 10.5633 24.0787 10.67C23.972 10.77 23.872 10.86 23.7787 10.94L22.9587 11.6L22.2287 10.69L24.5287 8.86H25.7687V16Z" fill="#F08054"/>
<rect x="39" width="25" height="25" rx="2" fill="#F08054"/>
<circle cx="51.5" cy="12.5" r="7.5" fill="white"/>
<path d="M54.0287 16H49.0387V14.95L50.8287 13.14C51.1887 12.7667 51.4787 12.4567 51.6987 12.21C51.9187 11.9567 52.0787 11.73 52.1787 11.53C52.2787 11.3233 52.3287 11.1033 52.3287 10.87C52.3287 10.5833 52.2487 10.37 52.0887 10.23C51.9353 10.09 51.7253 10.02 51.4587 10.02C51.1853 10.02 50.9187 10.0833 50.6587 10.21C50.3987 10.3367 50.1253 10.5167 49.8387 10.75L49.0187 9.78C49.2253 9.6 49.442 9.43333 49.6687 9.28C49.902 9.12667 50.1687 9.00333 50.4687 8.91C50.7753 8.81 51.142 8.76 51.5687 8.76C52.0353 8.76 52.4353 8.84667 52.7687 9.02C53.1087 9.18667 53.3687 9.41667 53.5487 9.71C53.7353 9.99667 53.8287 10.3233 53.8287 10.69C53.8287 10.99 53.782 11.2667 53.6887 11.52C53.602 11.7733 53.472 12.02 53.2987 12.26C53.132 12.4933 52.9253 12.7367 52.6787 12.99C52.432 13.2367 52.152 13.5067 51.8387 13.8L50.9187 14.66V14.73H54.0287V16Z" fill="#F08054"/>
<rect x="66" width="25" height="25" rx="2" fill="#F08054"/>
<circle cx="78.5" cy="12.5" r="7.5" fill="white"/>
<path d="M80.7487 10.46C80.7487 10.7867 80.6787 11.07 80.5387 11.31C80.4053 11.55 80.222 11.7467 79.9887 11.9C79.762 12.0533 79.502 12.1667 79.2087 12.24V12.27C79.782 12.3367 80.2153 12.51 80.5087 12.79C80.8087 13.07 80.9587 13.4467 80.9587 13.92C80.9587 14.3333 80.8553 14.7067 80.6487 15.04C80.4487 15.3667 80.1353 15.6267 79.7087 15.82C79.2887 16.0067 78.7453 16.1 78.0787 16.1C77.6853 16.1 77.3187 16.0667 76.9787 16C76.6387 15.9333 76.3187 15.8367 76.0187 15.71V14.43C76.3253 14.5833 76.6453 14.7 76.9787 14.78C77.3187 14.86 77.632 14.9 77.9187 14.9C78.4587 14.9 78.8353 14.8067 79.0487 14.62C79.2687 14.4333 79.3787 14.17 79.3787 13.83C79.3787 13.63 79.3287 13.4633 79.2287 13.33C79.1287 13.19 78.952 13.0867 78.6987 13.02C78.452 12.9467 78.1053 12.91 77.6587 12.91H77.1187V11.75H77.6687C78.1087 11.75 78.442 11.71 78.6687 11.63C78.902 11.5433 79.0587 11.43 79.1387 11.29C79.2253 11.1433 79.2687 10.9767 79.2687 10.79C79.2687 10.5367 79.1887 10.34 79.0287 10.2C78.8753 10.0533 78.6153 9.98 78.2487 9.98C78.022 9.98 77.8153 10.01 77.6287 10.07C77.442 10.1233 77.272 10.19 77.1187 10.27C76.972 10.35 76.842 10.4267 76.7287 10.5L76.0287 9.46C76.2153 9.32667 76.422 9.20667 76.6487 9.1C76.882 8.99333 77.1387 8.91 77.4187 8.85C77.6987 8.79 78.012 8.76 78.3587 8.76C79.092 8.76 79.672 8.91 80.0987 9.21C80.532 9.50333 80.7487 9.92 80.7487 10.46Z" fill="#F08054"/>
<rect x="93" width="25" height="25" rx="2" fill="#F08054"/>
<circle cx="105.5" cy="12.5" r="7.5" fill="white"/>
<path d="M108.189 14.52H107.329V16H105.859V14.52H102.809V13.47L105.939 8.86H107.329V13.35H108.189V14.52ZM105.859 12.14C105.859 12.0267 105.859 11.8933 105.859 11.74C105.865 11.58 105.872 11.4233 105.879 11.27C105.885 11.11 105.892 10.97 105.899 10.85C105.905 10.7233 105.912 10.6367 105.919 10.59H105.879C105.819 10.7233 105.755 10.8533 105.689 10.98C105.622 11.1067 105.542 11.2367 105.449 11.37L104.139 13.35H105.859V12.14Z" fill="#F08054"/>
<rect x="120" width="25" height="25" rx="2" fill="#F08054"/>
<circle cx="132.5" cy="12.5" r="7.5" fill="white"/>
<path d="M132.639 11.44C133.072 11.44 133.459 11.5233 133.799 11.69C134.139 11.8567 134.405 12.1 134.599 12.42C134.799 12.74 134.899 13.1367 134.899 13.61C134.899 14.1233 134.792 14.5667 134.579 14.94C134.365 15.3133 134.045 15.6 133.619 15.8C133.199 16 132.675 16.1 132.049 16.1C131.675 16.1 131.322 16.0667 130.989 16C130.662 15.9333 130.375 15.8367 130.129 15.71V14.41C130.375 14.5367 130.672 14.6467 131.019 14.74C131.365 14.8267 131.692 14.87 131.999 14.87C132.299 14.87 132.549 14.83 132.749 14.75C132.955 14.67 133.112 14.5467 133.219 14.38C133.325 14.2133 133.379 14 133.379 13.74C133.379 13.3867 133.262 13.12 133.029 12.94C132.795 12.7533 132.435 12.66 131.949 12.66C131.762 12.66 131.569 12.68 131.369 12.72C131.169 12.7533 131.002 12.7867 130.869 12.82L130.269 12.5L130.539 8.86H134.409V10.14H131.859L131.729 11.54C131.842 11.52 131.962 11.5 132.089 11.48C132.222 11.4533 132.405 11.44 132.639 11.44Z" fill="#F08054"/>
<rect x="147" width="25" height="25" rx="2" fill="#F08054"/>
<circle cx="159.5" cy="12.5" r="7.5" fill="white"/>
<path d="M156.989 12.97C156.989 12.5567 157.019 12.15 157.079 11.75C157.139 11.35 157.242 10.9733 157.389 10.62C157.542 10.26 157.752 9.94333 158.019 9.67C158.292 9.39 158.635 9.17333 159.049 9.02C159.469 8.86 159.975 8.78 160.569 8.78C160.709 8.78 160.872 8.78667 161.059 8.8C161.245 8.80667 161.402 8.82333 161.529 8.85V10.06C161.402 10.0267 161.262 10.0033 161.109 9.99C160.962 9.97 160.815 9.96 160.669 9.96C160.222 9.96 159.852 10.0133 159.559 10.12C159.272 10.2267 159.045 10.38 158.879 10.58C158.712 10.78 158.589 11.0167 158.509 11.29C158.435 11.5567 158.392 11.8567 158.379 12.19H158.439C158.532 12.03 158.645 11.89 158.779 11.77C158.919 11.6433 159.089 11.5433 159.289 11.47C159.489 11.3967 159.722 11.36 159.989 11.36C160.409 11.36 160.769 11.45 161.069 11.63C161.375 11.8033 161.612 12.06 161.779 12.4C161.945 12.7333 162.029 13.14 162.029 13.62C162.029 14.1333 161.929 14.5767 161.729 14.95C161.535 15.3233 161.255 15.61 160.889 15.81C160.529 16.0033 160.099 16.1 159.599 16.1C159.232 16.1 158.889 16.0367 158.569 15.91C158.255 15.7833 157.979 15.5933 157.739 15.34C157.505 15.08 157.322 14.7533 157.189 14.36C157.055 13.9667 156.989 13.5033 156.989 12.97ZM159.569 14.89C159.862 14.89 160.102 14.79 160.289 14.59C160.475 14.3833 160.569 14.0667 160.569 13.64C160.569 13.2933 160.489 13.02 160.329 12.82C160.169 12.62 159.925 12.52 159.599 12.52C159.379 12.52 159.185 12.57 159.019 12.67C158.852 12.7633 158.722 12.8867 158.629 13.04C158.535 13.1933 158.489 13.35 158.489 13.51C158.489 13.6767 158.512 13.8433 158.559 14.01C158.605 14.17 158.672 14.3167 158.759 14.45C158.852 14.5833 158.965 14.69 159.099 14.77C159.232 14.85 159.389 14.89 159.569 14.89Z" fill="#F08054"/>
<rect y="38" width="85" height="25" rx="2" fill="#F08054"/>
<circle cx="42.5" cy="50.5" r="7.5" fill="white"/>
<path d="M40.7487 54L43.4287 48.13H39.9087V46.86H45.0287V47.81L42.3287 54H40.7487Z" fill="#F08054"/>
<rect x="90" y="38" width="55" height="25" rx="2" fill="#F08054"/>
<circle cx="117.5" cy="50.5" r="7.5" fill="white"/>
<path d="M117.499 46.77C117.912 46.77 118.289 46.8333 118.629 46.96C118.975 47.0867 119.252 47.2767 119.459 47.53C119.672 47.7833 119.779 48.1033 119.779 48.49C119.779 48.7767 119.722 49.03 119.609 49.25C119.495 49.4633 119.342 49.65 119.149 49.81C118.962 49.97 118.745 50.11 118.499 50.23C118.752 50.3633 118.992 50.52 119.219 50.7C119.452 50.8733 119.639 51.08 119.779 51.32C119.925 51.5533 119.999 51.83 119.999 52.15C119.999 52.5433 119.892 52.8867 119.679 53.18C119.472 53.4733 119.179 53.7 118.799 53.86C118.425 54.02 117.992 54.1 117.499 54.1C116.965 54.1 116.512 54.0233 116.139 53.87C115.765 53.7167 115.479 53.4967 115.279 53.21C115.085 52.9233 114.989 52.5833 114.989 52.19C114.989 51.8633 115.049 51.58 115.169 51.34C115.295 51.1 115.462 50.8933 115.669 50.72C115.875 50.54 116.105 50.39 116.359 50.27C116.145 50.1367 115.952 49.9867 115.779 49.82C115.605 49.6467 115.465 49.4533 115.359 49.24C115.259 49.02 115.209 48.7667 115.209 48.48C115.209 48.1 115.315 47.7833 115.529 47.53C115.742 47.2767 116.022 47.0867 116.369 46.96C116.722 46.8333 117.099 46.77 117.499 46.77ZM116.389 52.1C116.389 52.36 116.479 52.5733 116.659 52.74C116.845 52.9067 117.119 52.99 117.479 52.99C117.732 52.99 117.939 52.9533 118.099 52.88C118.265 52.8067 118.389 52.7033 118.469 52.57C118.555 52.4367 118.599 52.2833 118.599 52.11C118.599 51.93 118.545 51.7733 118.439 51.64C118.332 51.5 118.199 51.3767 118.039 51.27C117.885 51.1567 117.725 51.0533 117.559 50.96L117.429 50.89C117.222 50.9833 117.039 51.09 116.879 51.21C116.725 51.33 116.605 51.4633 116.519 51.61C116.432 51.75 116.389 51.9133 116.389 52.1ZM117.489 47.87C117.242 47.87 117.035 47.9333 116.869 48.06C116.709 48.1867 116.629 48.3667 116.629 48.6C116.629 48.76 116.669 48.9033 116.749 49.03C116.829 49.15 116.935 49.2567 117.069 49.35C117.202 49.4367 117.345 49.52 117.499 49.6C117.652 49.5267 117.792 49.4467 117.919 49.36C118.052 49.2733 118.159 49.17 118.239 49.05C118.319 48.9233 118.359 48.7733 118.359 48.6C118.359 48.3667 118.275 48.1867 118.109 48.06C117.949 47.9333 117.742 47.87 117.489 47.87Z" fill="#F08054"/>
</svg>
