<svg width="473" height="1120" viewBox="0 0 473 1120" fill="none" xmlns="http://www.w3.org/2000/svg">
<rect width="186.987" height="1120" transform="matrix(-1 0 0 1 474.297 0)" fill="url(#paint0_linear_7595_4674)"/>
<rect width="186.987" height="100" transform="matrix(-1 0 0 1 474.297 1033.98)" fill="url(#paint1_linear_7595_4674)"/>
<path d="M327.852 0H287.31V1120L327.852 1031.03V0Z" fill="url(#paint2_linear_7595_4674)"/>
<path d="M241.821 969.416C241.821 969.416 242.139 958.844 246.075 954.909C250.011 950.973 260.403 950.834 260.403 950.834C260.403 950.834 250.011 950.515 246.075 946.579C242.139 942.644 241.821 932.251 241.821 932.251C241.821 932.251 241.681 942.823 237.746 946.758C233.81 950.694 223.238 950.834 223.238 950.834C223.238 950.834 233.81 950.973 237.746 954.909C241.681 958.844 241.821 969.416 241.821 969.416Z" fill="#F9FDFF"/>
<path d="M269.151 685.227C269.151 685.227 269.512 673.234 273.976 668.769C278.441 664.304 290.231 664.146 290.231 664.146C290.231 664.146 278.441 663.785 273.976 659.32C269.512 654.856 269.151 643.066 269.151 643.066C269.151 643.066 268.992 655.059 264.528 659.524C260.063 663.988 248.07 664.146 248.07 664.146C248.07 664.146 260.063 664.304 264.528 668.769C268.992 673.234 269.151 685.227 269.151 685.227Z" fill="#F9FDFF"/>
<path d="M243.591 591.851C243.591 591.851 243.87 582.557 247.33 579.097C250.79 575.637 259.927 575.514 259.927 575.514C259.927 575.514 250.79 575.234 247.33 571.774C243.87 568.314 243.591 559.178 243.591 559.178C243.591 559.178 243.468 568.471 240.008 571.931C236.548 575.392 227.254 575.514 227.254 575.514C227.254 575.514 236.548 575.637 240.008 579.097C243.468 582.557 243.591 591.851 243.591 591.851Z" fill="#F9FDFF"/>
<path d="M243.877 349.526C243.877 349.526 244.621 324.818 253.82 315.619C263.018 306.421 287.308 306.095 287.308 306.095C287.308 306.095 263.018 305.351 253.82 296.152C244.621 286.954 243.877 262.664 243.877 262.664C243.877 262.664 243.551 287.372 234.352 296.571C225.154 305.769 200.445 306.095 200.445 306.095C200.445 306.095 225.154 306.421 234.352 315.619C243.551 324.818 243.877 349.526 243.877 349.526Z" fill="#F9FDFF"/>
<path d="M314.998 520.023C314.998 520.023 315.742 495.315 324.941 486.116C334.139 476.918 358.429 476.592 358.429 476.592C358.429 476.592 334.139 475.848 324.941 466.649C315.742 457.451 314.998 433.161 314.998 433.161C314.998 433.161 314.672 457.869 305.473 467.068C296.275 476.266 271.566 476.592 271.566 476.592C271.566 476.592 296.275 476.918 305.473 486.116C314.672 495.315 314.998 520.023 314.998 520.023Z" fill="#F9FDFF"/>
<path d="M256.695 834.117C256.695 834.117 256.95 825.655 260.1 822.505C263.25 819.354 271.569 819.243 271.569 819.243C271.569 819.243 263.25 818.988 260.1 815.838C256.95 812.687 256.695 804.369 256.695 804.369C256.695 804.369 256.583 812.831 253.433 815.981C250.282 819.131 241.82 819.243 241.82 819.243C241.82 819.243 250.282 819.354 253.433 822.505C256.583 825.655 256.695 834.117 256.695 834.117Z" fill="#F9FDFF"/>
<path d="M296.091 374.249C296.091 374.249 296.415 363.492 300.42 359.488C304.424 355.483 314.999 355.341 314.999 355.341C314.999 355.341 304.424 355.017 300.42 351.013C296.415 347.008 296.091 336.434 296.091 336.434C296.091 336.434 295.949 347.19 291.945 351.195C287.94 355.2 277.184 355.341 277.184 355.341C277.184 355.341 287.94 355.483 291.945 359.488C295.949 363.492 296.091 374.249 296.091 374.249Z" fill="#F9FDFF"/>
<path d="M307.789 947.52C307.789 947.52 308.611 920.226 318.772 910.064C328.933 899.903 355.765 899.543 355.765 899.543C355.765 899.543 328.933 898.721 318.772 888.56C308.611 878.399 307.789 851.567 307.789 851.567C307.789 851.567 307.429 878.861 297.268 889.022C287.106 899.184 259.813 899.543 259.813 899.543C259.813 899.543 287.106 899.903 297.268 910.064C307.429 920.226 307.789 947.52 307.789 947.52Z" fill="#FDFAE0"/>
<g opacity="0.53">
<path d="M477.109 884.392L477.109 144.325H368.631V746.232C368.631 748.689 369.473 751.072 371.016 752.983L477.109 884.392Z" fill="#D9D9D9"/>
<path d="M477.109 884.392L477.109 144.325H368.631V746.232C368.631 748.689 369.473 751.072 371.016 752.983L477.109 884.392Z" fill="url(#paint3_linear_7595_4674)"/>
<path d="M477.109 884.392L477.109 144.325H368.631V746.232C368.631 748.689 369.473 751.072 371.016 752.983L477.109 884.392Z" fill="url(#paint4_linear_7595_4674)"/>
<g opacity="0.55" filter="url(#filter0_i_7595_4674)">
<path d="M477.109 839.762L477.109 144.325H388.178V732.44C388.178 735.013 389.101 737.5 390.779 739.451L477.109 839.762Z" fill="url(#paint5_linear_7595_4674)"/>
</g>
<path d="M459.377 61.8383L459.377 47.8705L365.886 131.904L381.629 131.904L459.377 61.8383Z" fill="#B4B4B4"/>
<path d="M459.377 61.8383L459.377 47.8705L365.886 131.904L381.629 131.904L459.377 61.8383Z" fill="url(#paint6_linear_7595_4674)"/>
<rect width="10.7864" height="126.104" transform="matrix(-1 0 0 1 464.965 15.5137)" fill="#B4B4B4"/>
<rect width="10.7864" height="126.104" transform="matrix(-1 0 0 1 464.965 15.5137)" fill="url(#paint7_linear_7595_4674)"/>
<rect x="471.934" y="20.5713" width="24.9019" height="11.6221" rx="2.86999" transform="rotate(180 471.934 20.5713)" fill="#B4B4B4"/>
<rect x="471.934" y="20.5713" width="24.9019" height="11.6221" rx="2.86999" transform="rotate(180 471.934 20.5713)" fill="url(#paint8_linear_7595_4674)"/>
<rect x="499.395" y="11.6221" width="79.8186" height="11.6221" rx="2.86999" transform="rotate(180 499.395 11.6221)" fill="#B4B4B4"/>
<rect x="499.395" y="11.6221" width="79.8186" height="11.6221" rx="2.86999" transform="rotate(180 499.395 11.6221)" fill="url(#paint9_linear_7595_4674)"/>
<rect width="133.603" height="20.044" transform="matrix(-1 0 0 1 477.106 124.674)" fill="#7B7B7B"/>
<rect width="133.603" height="20.044" transform="matrix(-1 0 0 1 477.106 124.674)" fill="url(#paint10_linear_7595_4674)"/>
<rect x="326.281" y="127.583" width="11.2372" height="13.4301" rx="5.6186" fill="#D9D9D9"/>
<rect x="326.281" y="127.583" width="11.2372" height="13.4301" rx="5.6186" fill="url(#paint11_radial_7595_4674)"/>
<rect x="326.281" y="127.583" width="11.2372" height="13.4301" rx="5.6186" fill="url(#paint12_linear_7595_4674)"/>
<rect width="9.28291" height="28.2307" rx="1.90365" transform="matrix(-1 0 0 1 360.727 120.184)" fill="#D9D9D9"/>
<rect width="9.28291" height="28.2307" rx="1.90365" transform="matrix(-1 0 0 1 360.727 120.184)" fill="url(#paint13_linear_7595_4674)"/>
<rect width="9.28291" height="28.2307" rx="1.90365" transform="matrix(-1 0 0 1 360.727 120.184)" fill="url(#paint14_linear_7595_4674)"/>
<rect width="9.28291" height="28.2307" rx="1.90365" transform="matrix(-1 0 0 1 360.727 120.184)" fill="url(#paint15_linear_7595_4674)"/>
<rect width="15.8787" height="29.1852" rx="7.93933" transform="matrix(-0.999916 -0.0129359 -0.0129359 0.999916 349.039 120.324)" fill="#D9D9D9"/>
<rect width="15.8787" height="29.1852" rx="7.93933" transform="matrix(-0.999916 -0.0129359 -0.0129359 0.999916 349.039 120.324)" fill="url(#paint16_radial_7595_4674)"/>
<rect width="15.8787" height="29.1852" rx="7.93933" transform="matrix(-0.999916 -0.0129359 -0.0129359 0.999916 349.039 120.324)" fill="url(#paint17_linear_7595_4674)"/>
<rect width="15.8787" height="29.1852" rx="7.93933" transform="matrix(-0.999916 -0.0129359 -0.0129359 0.999916 349.039 120.324)" fill="url(#paint18_linear_7595_4674)"/>
<rect width="15.8787" height="29.1852" rx="7.93933" transform="matrix(-0.999916 -0.0129359 -0.0129359 0.999916 349.039 120.324)" fill="url(#paint19_linear_7595_4674)"/>
</g>
<g style="mix-blend-mode:plus-lighter" opacity="0.8">
<path opacity="0.25" d="M-0.000370936 1126.99L325.708 -6.9909L417.52 -6.99121L236.277 1126.99L-0.000370936 1126.99Z" fill="url(#paint20_linear_7595_4674)"/>
<path opacity="0.25" d="M157.168 1101.71L398.406 -6.99122L477.109 -6.99121L477.109 1119.31L157.168 1101.71Z" fill="url(#paint21_linear_7595_4674)"/>
</g>
<defs>
<filter id="filter0_i_7595_4674" x="388.176" y="144.325" width="88.9336" height="697.438" filterUnits="userSpaceOnUse" color-interpolation-filters="sRGB">
<feFlood flood-opacity="0" result="BackgroundImageFix"/>
<feBlend mode="normal" in="SourceGraphic" in2="BackgroundImageFix" result="shape"/>
<feColorMatrix in="SourceAlpha" type="matrix" values="0 0 0 0 0 0 0 0 0 0 0 0 0 0 0 0 0 0 127 0" result="hardAlpha"/>
<feOffset dy="2"/>
<feGaussianBlur stdDeviation="1"/>
<feComposite in2="hardAlpha" operator="arithmetic" k2="-1" k3="1"/>
<feColorMatrix type="matrix" values="0 0 0 0 0 0 0 0 0 0 0 0 0 0 0 0 0 0 0.25 0"/>
<feBlend mode="normal" in2="shape" result="effect1_innerShadow_7595_4674"/>
</filter>
<linearGradient id="paint0_linear_7595_4674" x1="93.4934" y1="0" x2="93.4934" y2="1044.55" gradientUnits="userSpaceOnUse">
<stop stop-color="#042284"/>
<stop offset="1" stop-color="#0B1855"/>
</linearGradient>
<linearGradient id="paint1_linear_7595_4674" x1="167.586" y1="-20.4258" x2="-4.58382e-07" y2="91.6003" gradientUnits="userSpaceOnUse">
<stop stop-color="#3450B0"/>
<stop offset="1" stop-color="#457BCA"/>
</linearGradient>
<linearGradient id="paint2_linear_7595_4674" x1="307.581" y1="0" x2="307.581" y2="1120" gradientUnits="userSpaceOnUse">
<stop stop-color="#3450B0"/>
<stop offset="1" stop-color="#042284"/>
</linearGradient>
<linearGradient id="paint3_linear_7595_4674" x1="463.322" y1="144.325" x2="463.322" y2="927.428" gradientUnits="userSpaceOnUse">
<stop stop-color="#042284"/>
<stop offset="0.696394" stop-color="#3450B0"/>
<stop offset="1" stop-color="#457BCA"/>
</linearGradient>
<linearGradient id="paint4_linear_7595_4674" x1="422.87" y1="838.41" x2="422.87" y2="128.489" gradientUnits="userSpaceOnUse">
<stop stop-color="#3450B0"/>
<stop offset="1" stop-color="#477BCA"/>
</linearGradient>
<linearGradient id="paint5_linear_7595_4674" x1="422.635" y1="795.462" x2="422.659" y2="135.865" gradientUnits="userSpaceOnUse">
<stop stop-color="#7AC4ED"/>
<stop offset="1" stop-color="#9BD7FF"/>
</linearGradient>
<linearGradient id="paint6_linear_7595_4674" x1="452.502" y1="61.0023" x2="367.705" y2="113.16" gradientUnits="userSpaceOnUse">
<stop stop-color="#7AC4ED"/>
<stop offset="0.434214" stop-color="#499FED"/>
<stop offset="1" stop-color="#457BCA"/>
</linearGradient>
<linearGradient id="paint7_linear_7595_4674" x1="1.65539e-09" y1="10.4911" x2="59.5481" y2="108.101" gradientUnits="userSpaceOnUse">
<stop stop-color="#7AC4ED"/>
<stop offset="0.434214" stop-color="#499FED"/>
<stop offset="1" stop-color="#457BCA"/>
</linearGradient>
<linearGradient id="paint8_linear_7595_4674" x1="484.385" y1="33.0915" x2="484.385" y2="20.5713" gradientUnits="userSpaceOnUse">
<stop stop-color="#3450B0"/>
<stop offset="0.521368" stop-color="#457BCA"/>
<stop offset="1" stop-color="#499FED"/>
</linearGradient>
<linearGradient id="paint9_linear_7595_4674" x1="539.304" y1="24.1422" x2="539.304" y2="11.6221" gradientUnits="userSpaceOnUse">
<stop stop-color="#3450B0"/>
<stop offset="0.521368" stop-color="#457BCA"/>
<stop offset="1" stop-color="#499FED"/>
</linearGradient>
<linearGradient id="paint10_linear_7595_4674" x1="66.8016" y1="21.5928" x2="66.8016" y2="0" gradientUnits="userSpaceOnUse">
<stop stop-color="#3450B0"/>
<stop offset="0.521368" stop-color="#457BCA"/>
<stop offset="1" stop-color="#499FED"/>
</linearGradient>
<radialGradient id="paint11_radial_7595_4674" cx="0" cy="0" r="1" gradientTransform="matrix(-0.0864403 10.6268 -41.9294 -0.194013 331.986 134.363)" gradientUnits="userSpaceOnUse">
<stop stop-color="#FFF6E0"/>
<stop offset="1" stop-color="#E9D265"/>
</radialGradient>
<linearGradient id="paint12_linear_7595_4674" x1="326.281" y1="128.7" x2="327.168" y2="142.909" gradientUnits="userSpaceOnUse">
<stop stop-color="#7AC4ED"/>
<stop offset="0.434214" stop-color="#499FED"/>
<stop offset="1" stop-color="#457BCA"/>
</linearGradient>
<linearGradient id="paint13_linear_7595_4674" x1="4.83637" y1="4.38792" x2="5.90577" y2="63.8439" gradientUnits="userSpaceOnUse">
<stop stop-color="#FFF6E0"/>
<stop offset="1" stop-color="#E9D265"/>
</linearGradient>
<linearGradient id="paint14_linear_7595_4674" x1="4.83637" y1="4.38792" x2="5.15409" y2="36.5852" gradientUnits="userSpaceOnUse">
<stop stop-color="#FFF6E0"/>
<stop offset="1" stop-color="#E9D265"/>
</linearGradient>
<linearGradient id="paint15_linear_7595_4674" x1="1.42464e-09" y1="2.34863" x2="4.64145" y2="31.5964" gradientUnits="userSpaceOnUse">
<stop stop-color="#7AC4ED"/>
<stop offset="0.434214" stop-color="#499FED"/>
<stop offset="1" stop-color="#457BCA"/>
</linearGradient>
<radialGradient id="paint16_radial_7595_4674" cx="0" cy="0" r="1" gradientTransform="matrix(-0.122144 23.0931 -59.248 -0.421611 8.06147 14.7343)" gradientUnits="userSpaceOnUse">
<stop stop-color="#FFF6E0"/>
<stop offset="1" stop-color="#E9D265"/>
</radialGradient>
<linearGradient id="paint17_linear_7595_4674" x1="1.35169" y1="3.35709" x2="24.9702" y2="7.48791" gradientUnits="userSpaceOnUse">
<stop stop-color="#C4A062"/>
<stop offset="0.622176" stop-color="#F3E19D"/>
<stop offset="1" stop-color="#F4F2C4"/>
</linearGradient>
<linearGradient id="paint18_linear_7595_4674" x1="-1.09929" y1="3.11686" x2="18.9583" y2="5.19999" gradientUnits="userSpaceOnUse">
<stop stop-color="#C4A062"/>
<stop offset="0.622176" stop-color="#F3E19D"/>
<stop offset="1" stop-color="#F4F2C4"/>
</linearGradient>
<linearGradient id="paint19_linear_7595_4674" x1="2.43688e-09" y1="2.42804" x2="2.94599" y2="33.1436" gradientUnits="userSpaceOnUse">
<stop stop-color="#7AC4ED"/>
<stop offset="0.434214" stop-color="#499FED"/>
<stop offset="1" stop-color="#457BCA"/>
</linearGradient>
<linearGradient id="paint20_linear_7595_4674" x1="387.054" y1="87.1244" x2="-205.847" y2="794.235" gradientUnits="userSpaceOnUse">
<stop stop-color="#F3E09D"/>
<stop offset="1" stop-color="#F3E09D" stop-opacity="0"/>
</linearGradient>
<linearGradient id="paint21_linear_7595_4674" x1="453.765" y1="85.0261" x2="-133.597" y2="634.057" gradientUnits="userSpaceOnUse">
<stop stop-color="#F3E09D"/>
<stop offset="1" stop-color="#F3E09D" stop-opacity="0"/>
</linearGradient>
</defs>
</svg>
