<svg width="377" height="549" viewBox="0 0 377 549" fill="none" xmlns="http://www.w3.org/2000/svg">
<path d="M121.512 412.407C120.57 420.944 94.7227 425.095 61.0207 421.375C27.3187 417.655 3.28982 407.998 4.23213 399.461C5.17444 390.924 30.7311 386.74 64.4331 390.46C98.1351 394.18 122.455 403.87 121.512 412.407Z" fill="url(#paint0_linear_8137_4737)"/>
<path d="M121.512 412.407C120.57 420.944 94.7227 425.095 61.0207 421.375C27.3187 417.655 3.28982 407.998 4.23213 399.461C5.17444 390.924 30.7311 386.74 64.4331 390.46C98.1351 394.18 122.455 403.87 121.512 412.407Z" fill="url(#paint1_linear_8137_4737)"/>
<path d="M2.57318 391.307L124.619 404.779L121.512 412.407L4.23213 399.461L2.57318 391.307Z" fill="url(#paint2_linear_8137_4737)"/>
<path d="M2.57318 391.307L124.619 404.779L121.512 412.407L4.23213 399.461L2.57318 391.307Z" fill="url(#paint3_linear_8137_4737)"/>
<ellipse cx="63.5968" cy="398.03" rx="61.3935" ry="15.5269" transform="rotate(6.29877 63.5968 398.03)" fill="url(#paint4_linear_8137_4737)"/>
<mask id="mask0_8137_4737" style="mask-type:alpha" maskUnits="userSpaceOnUse" x="26" y="271" width="92" height="134">
<path d="M35.6445 271.512L117.662 280.565C101.323 332.386 98.055 388.292 108.793 398.856C119.53 409.42 30.6082 403.326 26.7755 389.803C22.9428 376.28 47.6092 320.797 35.6445 271.512Z" fill="#9C9C9C"/>
</mask>
<g mask="url(#mask0_8137_4737)">
<path d="M35.6445 271.512L117.662 280.565C101.323 332.386 98.055 388.292 108.793 398.856C119.53 409.42 30.6986 403.433 26.7755 389.803C22.8523 376.173 47.4815 320.677 35.6445 271.512Z" fill="url(#paint5_linear_8137_4737)"/>
</g>
<path d="M67.9308 256.921C77.6058 266.89 96.2781 272.084 96.2781 272.084L118.852 274.575L120.32 285.155L103.169 288.359L67.822 282.024L30.8939 260.803C30.8939 260.803 58.2558 246.952 67.9308 256.921Z" fill="url(#paint6_linear_8137_4737)"/>
<g filter="url(#filter0_d_8137_4737)">
<path d="M42.7417 262.84C26.4427 259.097 18.7555 264.517 18.3949 275.454C18.0342 286.392 28.588 281.688 32.6133 289.323C36.168 296.066 36.0631 298.742 33.8161 308.804C31.569 318.867 33.7972 329.761 40.9755 330.908C48.1539 332.054 42.7286 303.44 50.0867 296.036C57.4447 288.632 53.9033 304.126 59.294 308.169C64.6846 312.212 75.9751 296.446 72.838 313.112C69.7009 329.777 69.8759 351.813 73.3182 356.043C76.7605 360.272 86.1478 363.142 90.4339 352.474C94.72 341.807 77.5387 311.126 88.6464 301.602C99.7541 292.079 104.829 305.851 101.392 314.043C97.9541 322.236 93.4758 339.712 105.897 340.811C118.318 341.91 112.183 301.18 119.658 294.148C127.134 287.115 123.99 278.373 112.664 279.503C101.338 280.633 97.3458 283.688 79.4733 282.196C61.6008 280.704 59.0406 266.583 42.7417 262.84Z" fill="url(#paint7_linear_8137_4737)"/>
</g>
<path d="M51.4219 255.205C39.3142 256.97 36.6499 262.402 36.6499 262.402L20.1696 268.456C20.7129 264.665 37.8584 252.796 48.3469 250.585C63.6834 247.353 78.3324 263.662 92.8582 269.549C104.849 274.408 115.295 268.305 119.554 272.496C123.813 276.686 124.166 282.84 123.782 286.319C123.398 289.797 117.747 283.544 117.747 283.544C117.747 283.544 120.685 278.305 116.816 275.914C112.947 273.522 102.434 278.024 90.2885 272.986C77.2386 267.572 63.5296 253.44 51.4219 255.205Z" fill="url(#paint8_linear_8137_4737)"/>
<g filter="url(#filter1_d_8137_4737)">
<path d="M49.2408 336.346C49.9703 328.484 54.5335 328.476 56.3984 319.278C58.2632 310.08 64.0622 328.217 64.053 335.957C64.0437 343.698 59.0023 346.603 55.1887 346.176C51.3752 345.749 48.5113 344.207 49.2408 336.346Z" fill="#D9D9D9"/>
<path d="M49.2408 336.346C49.9703 328.484 54.5335 328.476 56.3984 319.278C58.2632 310.08 64.0622 328.217 64.053 335.957C64.0437 343.698 59.0023 346.603 55.1887 346.176C51.3752 345.749 48.5113 344.207 49.2408 336.346Z" fill="url(#paint9_linear_8137_4737)"/>
<path d="M49.2408 336.346C49.9703 328.484 54.5335 328.476 56.3984 319.278C58.2632 310.08 64.0622 328.217 64.053 335.957C64.0437 343.698 59.0023 346.603 55.1887 346.176C51.3752 345.749 48.5113 344.207 49.2408 336.346Z" fill="url(#paint10_linear_8137_4737)"/>
</g>
<g filter="url(#filter2_d_8137_4737)">
<path d="M59.1806 404.423C58.6178 401.419 68.0294 400.73 68.0294 400.73L72.1104 401.181C75.5488 401.56 78.9817 394.382 83.4714 394.246C87.9611 394.11 92.3988 398.96 96.7158 395.708C101.033 392.456 91.9859 375.118 101.034 370.593C110.082 366.068 105.862 382.495 106.063 387.196C106.263 391.898 108.644 395.767 112.199 397.417C115.753 399.067 115.453 404.062 108.971 405.502C102.49 406.942 99.6599 406.736 93.6615 406.074C87.6631 405.412 85.9118 410.917 80.4756 410.007C75.0393 409.096 59.7435 407.428 59.1806 404.423Z" fill="#D9D9D9"/>
<path d="M59.1806 404.423C58.6178 401.419 68.0294 400.73 68.0294 400.73L72.1104 401.181C75.5488 401.56 78.9817 394.382 83.4714 394.246C87.9611 394.11 92.3988 398.96 96.7158 395.708C101.033 392.456 91.9859 375.118 101.034 370.593C110.082 366.068 105.862 382.495 106.063 387.196C106.263 391.898 108.644 395.767 112.199 397.417C115.753 399.067 115.453 404.062 108.971 405.502C102.49 406.942 99.6599 406.736 93.6615 406.074C87.6631 405.412 85.9118 410.917 80.4756 410.007C75.0393 409.096 59.7435 407.428 59.1806 404.423Z" fill="url(#paint11_linear_8137_4737)"/>
<path d="M59.1806 404.423C58.6178 401.419 68.0294 400.73 68.0294 400.73L72.1104 401.181C75.5488 401.56 78.9817 394.382 83.4714 394.246C87.9611 394.11 92.3988 398.96 96.7158 395.708C101.033 392.456 91.9859 375.118 101.034 370.593C110.082 366.068 105.862 382.495 106.063 387.196C106.263 391.898 108.644 395.767 112.199 397.417C115.753 399.067 115.453 404.062 108.971 405.502C102.49 406.942 99.6599 406.736 93.6615 406.074C87.6631 405.412 85.9118 410.917 80.4756 410.007C75.0393 409.096 59.7435 407.428 59.1806 404.423Z" fill="url(#paint12_linear_8137_4737)"/>
</g>
<g filter="url(#filter3_d_8137_4737)">
<path d="M26.4842 371.329C20.2301 371.95 24.3968 383.041 16.9774 388.306C9.55804 393.571 18.0396 397.345 25.6476 398.032C33.2557 398.72 45.0846 402.618 45.6665 399.105C46.2484 395.593 42.266 392.104 32.9759 393.027C23.6859 393.95 32.7384 370.709 26.4842 371.329Z" fill="#D9D9D9"/>
<path d="M26.4842 371.329C20.2301 371.95 24.3968 383.041 16.9774 388.306C9.55804 393.571 18.0396 397.345 25.6476 398.032C33.2557 398.72 45.0846 402.618 45.6665 399.105C46.2484 395.593 42.266 392.104 32.9759 393.027C23.6859 393.95 32.7384 370.709 26.4842 371.329Z" fill="url(#paint13_linear_8137_4737)"/>
<path d="M26.4842 371.329C20.2301 371.95 24.3968 383.041 16.9774 388.306C9.55804 393.571 18.0396 397.345 25.6476 398.032C33.2557 398.72 45.0846 402.618 45.6665 399.105C46.2484 395.593 42.266 392.104 32.9759 393.027C23.6859 393.95 32.7384 370.709 26.4842 371.329Z" fill="url(#paint14_linear_8137_4737)"/>
</g>
<g filter="url(#filter4_f_8137_4737)">
<path d="M101.16 237.895C90.7284 216.851 96.284 197.037 97.1963 191.324C97.4945 189.457 95.8415 191.215 94.9609 192.888C85.7631 210.364 67.4638 220.999 60.2513 236.695C50.199 255.948 55.582 270.009 74.7627 275.913C92.2967 281.309 104.969 274.921 106.666 257.098C107.309 250.342 104.174 243.976 101.16 237.895Z" fill="url(#paint15_linear_8137_4737)"/>
</g>
<g style="mix-blend-mode:plus-lighter" opacity="0.44">
<path d="M101.16 237.895C90.7284 216.851 96.284 197.037 97.1963 191.324C97.4945 189.457 95.8415 191.215 94.9609 192.888C85.7631 210.364 67.4638 220.999 60.2513 236.695C50.199 255.948 55.582 270.009 74.7627 275.913C92.2967 281.309 104.969 274.921 106.666 257.098C107.309 250.342 104.174 243.976 101.16 237.895Z" fill="url(#paint16_linear_8137_4737)"/>
</g>
<g style="mix-blend-mode:plus-lighter" opacity="0.51">
<path d="M89.435 268.233C93.0862 266.944 100.833 256.659 92.5993 242.716C89.6968 237.8 85.1764 231.867 87.7167 226.754C88.1463 225.89 88.7909 225.167 89.742 224.71C82.4196 226.584 58.5625 250.831 70.8149 265.602C74.0053 269.449 84.6463 271.522 89.435 268.233Z" fill="url(#paint17_linear_8137_4737)"/>
</g>
<path d="M175.803 537.923C176.347 543.581 193.413 546.57 215.751 544.423C238.088 542.276 254.08 536.109 253.536 530.451C252.992 524.793 236.118 521.785 213.781 523.933C191.444 526.08 175.259 532.265 175.803 537.923Z" fill="url(#paint18_linear_8137_4737)"/>
<path d="M175.803 537.923C176.347 543.581 193.413 546.57 215.751 544.423C238.088 542.276 254.08 536.109 253.536 530.451C252.992 524.793 236.118 521.785 213.781 523.933C191.444 526.08 175.259 532.265 175.803 537.923Z" fill="url(#paint19_linear_8137_4737)"/>
<path d="M254.71 525.071L173.818 532.846L175.803 537.923L253.536 530.451L254.71 525.071Z" fill="url(#paint20_linear_8137_4737)"/>
<path d="M254.71 525.071L173.818 532.846L175.803 537.923L253.536 530.451L254.71 525.071Z" fill="url(#paint21_linear_8137_4737)"/>
<ellipse cx="40.632" cy="10.2761" rx="40.632" ry="10.2761" transform="matrix(-0.995412 0.0956793 0.0956793 0.995412 253.727 514.834)" fill="url(#paint22_linear_8137_4737)"/>
<mask id="mask1_8137_4737" style="mask-type:alpha" maskUnits="userSpaceOnUse" x="179" y="445" width="61" height="88">
<path d="M233.941 445.488L179.581 450.713C189.91 485.159 191.55 522.186 184.346 529.077C177.141 535.968 236.044 532.765 238.706 523.852C241.369 514.939 225.563 477.991 233.941 445.488Z" fill="#9C9C9C"/>
</mask>
<g mask="url(#mask1_8137_4737)">
<path d="M233.941 445.488L179.581 450.713C189.91 485.159 191.55 522.186 184.346 529.077C177.141 535.968 235.983 532.835 238.706 523.852C241.43 514.868 225.649 477.913 233.941 445.488Z" fill="url(#paint23_linear_8137_4737)"/>
</g>
<path d="M212.72 435.531C206.224 442.038 193.819 445.3 193.819 445.3L178.857 446.738L177.787 453.725L189.107 456.006L212.558 452.144L237.193 438.445C237.193 438.445 219.216 429.024 212.72 435.531Z" fill="url(#paint24_linear_8137_4737)"/>
<g filter="url(#filter5_d_8137_4737)">
<path d="M229.322 439.685C240.143 437.36 245.179 441.019 245.316 448.26C245.453 455.501 238.512 452.29 235.777 457.305C233.362 461.734 233.406 463.506 234.799 470.186C236.193 476.866 234.616 484.054 229.855 484.746C225.094 485.438 228.952 466.553 224.151 461.584C219.351 456.616 221.55 466.902 217.945 469.527C214.34 472.152 207.016 461.614 208.936 472.672C210.856 483.73 210.535 498.311 208.217 501.077C205.9 503.844 199.661 505.655 196.924 498.556C194.187 491.457 205.844 471.314 198.582 464.908C191.32 458.502 187.833 467.568 190.032 473.022C192.23 478.475 195.03 490.082 186.8 490.694C178.57 491.305 183.01 464.409 178.129 459.685C173.248 454.961 175.41 449.206 182.894 450.059C190.379 450.913 192.992 452.971 204.834 452.151C216.675 451.331 218.501 442.01 229.322 439.685Z" fill="url(#paint25_linear_8137_4737)"/>
</g>
<path d="M223.646 434.55C231.642 435.831 233.354 439.45 233.354 439.45L244.204 443.611C243.88 441.096 232.644 433.082 225.724 431.521C215.605 429.239 205.758 439.895 196.091 443.655C188.111 446.759 181.255 442.623 178.397 445.356C175.54 448.089 175.249 452.159 175.47 454.464C175.692 456.769 179.49 452.684 179.49 452.684C179.49 452.684 177.595 449.19 180.177 447.643C182.76 446.097 189.675 449.174 197.759 445.953C206.446 442.493 215.65 433.268 223.646 434.55Z" fill="url(#paint26_linear_8137_4737)"/>
<g filter="url(#filter6_d_8137_4737)">
<path d="M224.343 488.266C223.934 483.057 220.914 483.009 219.766 476.904C218.618 470.8 214.611 482.748 214.545 487.87C214.479 492.993 217.788 494.963 220.315 494.716C222.843 494.468 224.753 493.475 224.343 488.266Z" fill="#D9D9D9"/>
<path d="M224.343 488.266C223.934 483.057 220.914 483.009 219.766 476.904C218.618 470.8 214.611 482.748 214.545 487.87C214.479 492.993 217.788 494.963 220.315 494.716C222.843 494.468 224.753 493.475 224.343 488.266Z" fill="url(#paint27_linear_8137_4737)"/>
<path d="M224.343 488.266C223.934 483.057 220.914 483.009 219.766 476.904C218.618 470.8 214.611 482.748 214.545 487.87C214.479 492.993 217.788 494.963 220.315 494.716C222.843 494.468 224.753 493.475 224.343 488.266Z" fill="url(#paint28_linear_8137_4737)"/>
</g>
<g filter="url(#filter7_d_8137_4737)">
<path d="M217.125 533.222C217.526 531.239 211.304 530.696 211.304 530.696L208.599 530.956C206.32 531.175 204.115 526.392 201.146 526.26C198.176 526.128 195.194 529.297 192.367 527.104C189.541 524.912 195.69 513.522 189.744 510.444C183.799 507.365 186.438 518.275 186.262 521.384C186.085 524.494 184.473 527.032 182.105 528.091C179.738 529.149 179.89 532.458 184.166 533.471C188.442 534.485 190.316 534.375 194.292 533.993C198.267 533.61 199.375 537.27 202.981 536.718C206.587 536.166 216.725 535.205 217.125 533.222Z" fill="#D9D9D9"/>
<path d="M217.125 533.222C217.526 531.239 211.304 530.696 211.304 530.696L208.599 530.956C206.32 531.175 204.115 526.392 201.146 526.26C198.176 526.128 195.194 529.297 192.367 527.104C189.541 524.912 195.69 513.522 189.744 510.444C183.799 507.365 186.438 518.275 186.262 521.384C186.085 524.494 184.473 527.032 182.105 528.091C179.738 529.149 179.89 532.458 184.166 533.471C188.442 534.485 190.316 534.375 194.292 533.993C198.267 533.61 199.375 537.27 202.981 536.718C206.587 536.166 216.725 535.205 217.125 533.222Z" fill="url(#paint29_linear_8137_4737)"/>
<path d="M217.125 533.222C217.526 531.239 211.304 530.696 211.304 530.696L208.599 530.956C206.32 531.175 204.115 526.392 201.146 526.26C198.176 526.128 195.194 529.297 192.367 527.104C189.541 524.912 195.69 513.522 189.744 510.444C183.799 507.365 186.438 518.275 186.262 521.384C186.085 524.494 184.473 527.032 182.105 528.091C179.738 529.149 179.89 532.458 184.166 533.471C188.442 534.485 190.316 534.375 194.292 533.993C198.267 533.61 199.375 537.27 202.981 536.718C206.587 536.166 216.725 535.205 217.125 533.222Z" fill="url(#paint30_linear_8137_4737)"/>
</g>
<g filter="url(#filter8_d_8137_4737)">
<path d="M239.069 511.629C243.202 512.098 240.341 519.399 245.202 522.952C250.063 526.506 244.415 528.924 239.374 529.308C234.333 529.692 226.468 532.161 226.116 529.831C225.764 527.501 228.432 525.229 234.571 525.927C240.71 526.625 234.936 511.16 239.069 511.629Z" fill="#D9D9D9"/>
<path d="M239.069 511.629C243.202 512.098 240.341 519.399 245.202 522.952C250.063 526.506 244.415 528.924 239.374 529.308C234.333 529.692 226.468 532.161 226.116 529.831C225.764 527.501 228.432 525.229 234.571 525.927C240.71 526.625 234.936 511.16 239.069 511.629Z" fill="url(#paint31_linear_8137_4737)"/>
<path d="M239.069 511.629C243.202 512.098 240.341 519.399 245.202 522.952C250.063 526.506 244.415 528.924 239.374 529.308C234.333 529.692 226.468 532.161 226.116 529.831C225.764 527.501 228.432 525.229 234.571 525.927C240.71 526.625 234.936 511.16 239.069 511.629Z" fill="url(#paint32_linear_8137_4737)"/>
</g>
<g filter="url(#filter9_f_8137_4737)">
<path d="M192.359 419.446C197.08 407.807 194.884 397.136 194.115 392.805C193.785 390.943 194.968 392.097 195.871 393.759C201.933 404.913 213.469 412.022 217.982 422.218C224.454 435.053 220.761 444.308 208.012 448.035C197.577 451.087 189.809 447.921 187.613 438.745C186.033 432.145 189.808 425.735 192.359 419.446Z" fill="url(#paint33_linear_8137_4737)"/>
</g>
<g style="mix-blend-mode:plus-lighter" opacity="0.44">
<path d="M192.359 419.446C197.08 407.807 194.884 397.136 194.115 392.805C193.785 390.943 194.968 392.097 195.871 393.759C201.933 404.913 213.469 412.022 217.982 422.218C224.454 435.053 220.761 444.308 208.012 448.035C197.577 451.087 189.809 447.921 187.613 438.745C186.033 432.145 189.808 425.735 192.359 419.446Z" fill="url(#paint34_linear_8137_4737)"/>
</g>
<g style="mix-blend-mode:plus-lighter" opacity="0.51">
<path d="M198.377 442.816C196.125 441.985 191.569 435.897 195.586 427.609C197.773 423.097 203.07 416.244 198.58 414.011C203.408 415.319 218.97 431.588 210.724 441.249C208.576 443.764 201.515 445.037 198.377 442.816Z" fill="url(#paint35_linear_8137_4737)"/>
</g>
<g style="mix-blend-mode:plus-lighter" opacity="0.59">
<path d="M192.396 341.278C192.396 341.278 190.898 324.457 196.393 317.471C201.888 310.485 218.339 308.295 218.339 308.295C218.339 308.295 201.801 309.759 194.815 304.265C187.829 298.77 185.356 282.353 185.356 282.353C185.356 282.353 187.137 299.141 181.643 306.126C176.148 313.112 159.413 315.336 159.413 315.336C159.413 315.336 176.201 313.554 183.187 319.049C190.173 324.543 192.396 341.278 192.396 341.278Z" fill="url(#paint36_linear_8137_4737)"/>
</g>
<g style="mix-blend-mode:color-dodge" opacity="0.62">
<circle cx="199.883" cy="92.2775" r="59.8163" transform="rotate(180 199.883 92.2775)" fill="url(#paint37_linear_8137_4737)"/>
</g>
<g style="mix-blend-mode:color-dodge" opacity="0.62">
<circle cx="74.8945" cy="30.4844" r="30.4844" transform="rotate(180 74.8945 30.4844)" fill="url(#paint38_linear_8137_4737)"/>
</g>
<g style="mix-blend-mode:plus-lighter" opacity="0.8">
<path d="M263.382 289.392C263.382 289.392 279.183 258.051 273.931 240.343C268.679 222.634 238.585 205.781 238.585 205.781C238.585 205.781 269.403 221.299 287.112 216.047C304.82 210.795 322.195 180.984 322.195 180.984C322.195 180.984 305.872 212.041 311.124 229.75C316.376 247.459 346.993 264.595 346.993 264.595C346.993 264.595 315.935 248.272 298.227 253.524C280.518 258.776 263.382 289.392 263.382 289.392Z" fill="url(#paint39_linear_8137_4737)"/>
</g>
<defs>
<filter id="filter0_d_8137_4737" x="16.3867" y="261.66" width="109.332" height="102.188" filterUnits="userSpaceOnUse" color-interpolation-filters="sRGB">
<feFlood flood-opacity="0" result="BackgroundImageFix"/>
<feColorMatrix in="SourceAlpha" type="matrix" values="0 0 0 0 0 0 0 0 0 0 0 0 0 0 0 0 0 0 127 0" result="hardAlpha"/>
<feOffset dy="2"/>
<feGaussianBlur stdDeviation="1"/>
<feComposite in2="hardAlpha" operator="out"/>
<feColorMatrix type="matrix" values="0 0 0 0 0 0 0 0 0 0 0 0 0 0 0 0 0 0 0.25 0"/>
<feBlend mode="normal" in2="BackgroundImageFix" result="effect1_dropShadow_8137_4737"/>
<feBlend mode="normal" in="SourceGraphic" in2="effect1_dropShadow_8137_4737" result="shape"/>
</filter>
<filter id="filter1_d_8137_4737" x="47.125" y="316.736" width="18.9297" height="33.4805" filterUnits="userSpaceOnUse" color-interpolation-filters="sRGB">
<feFlood flood-opacity="0" result="BackgroundImageFix"/>
<feColorMatrix in="SourceAlpha" type="matrix" values="0 0 0 0 0 0 0 0 0 0 0 0 0 0 0 0 0 0 127 0" result="hardAlpha"/>
<feOffset dy="2"/>
<feGaussianBlur stdDeviation="1"/>
<feComposite in2="hardAlpha" operator="out"/>
<feColorMatrix type="matrix" values="0 0 0 0 0 0 0 0 0 0 0 0 0 0 0 0 0 0 0.25 0"/>
<feBlend mode="normal" in2="BackgroundImageFix" result="effect1_dropShadow_8137_4737"/>
<feBlend mode="normal" in="SourceGraphic" in2="effect1_dropShadow_8137_4737" result="shape"/>
</filter>
<filter id="filter2_d_8137_4737" x="57.1562" y="369.812" width="59.3086" height="44.2969" filterUnits="userSpaceOnUse" color-interpolation-filters="sRGB">
<feFlood flood-opacity="0" result="BackgroundImageFix"/>
<feColorMatrix in="SourceAlpha" type="matrix" values="0 0 0 0 0 0 0 0 0 0 0 0 0 0 0 0 0 0 127 0" result="hardAlpha"/>
<feOffset dy="2"/>
<feGaussianBlur stdDeviation="1"/>
<feComposite in2="hardAlpha" operator="out"/>
<feColorMatrix type="matrix" values="0 0 0 0 0 0 0 0 0 0 0 0 0 0 0 0 0 0 0.25 0"/>
<feBlend mode="normal" in2="BackgroundImageFix" result="effect1_dropShadow_8137_4737"/>
<feBlend mode="normal" in="SourceGraphic" in2="effect1_dropShadow_8137_4737" result="shape"/>
</filter>
<filter id="filter3_d_8137_4737" x="12.1133" y="371.316" width="35.6094" height="33.2363" filterUnits="userSpaceOnUse" color-interpolation-filters="sRGB">
<feFlood flood-opacity="0" result="BackgroundImageFix"/>
<feColorMatrix in="SourceAlpha" type="matrix" values="0 0 0 0 0 0 0 0 0 0 0 0 0 0 0 0 0 0 127 0" result="hardAlpha"/>
<feOffset dy="2"/>
<feGaussianBlur stdDeviation="1"/>
<feComposite in2="hardAlpha" operator="out"/>
<feColorMatrix type="matrix" values="0 0 0 0 0 0 0 0 0 0 0 0 0 0 0 0 0 0 0.25 0"/>
<feBlend mode="normal" in2="BackgroundImageFix" result="effect1_dropShadow_8137_4737"/>
<feBlend mode="normal" in="SourceGraphic" in2="effect1_dropShadow_8137_4737" result="shape"/>
</filter>
<filter id="filter4_f_8137_4737" x="22.7202" y="157.956" width="116.595" height="152.378" filterUnits="userSpaceOnUse" color-interpolation-filters="sRGB">
<feFlood flood-opacity="0" result="BackgroundImageFix"/>
<feBlend mode="normal" in="SourceGraphic" in2="BackgroundImageFix" result="shape"/>
<feGaussianBlur stdDeviation="16.2825" result="effect1_foregroundBlur_8137_4737"/>
</filter>
<filter id="filter5_d_8137_4737" x="173.516" y="438.988" width="73.8008" height="68.5332" filterUnits="userSpaceOnUse" color-interpolation-filters="sRGB">
<feFlood flood-opacity="0" result="BackgroundImageFix"/>
<feColorMatrix in="SourceAlpha" type="matrix" values="0 0 0 0 0 0 0 0 0 0 0 0 0 0 0 0 0 0 127 0" result="hardAlpha"/>
<feOffset dy="2"/>
<feGaussianBlur stdDeviation="1"/>
<feComposite in2="hardAlpha" operator="out"/>
<feColorMatrix type="matrix" values="0 0 0 0 0 0 0 0 0 0 0 0 0 0 0 0 0 0 0.25 0"/>
<feBlend mode="normal" in2="BackgroundImageFix" result="effect1_dropShadow_8137_4737"/>
<feBlend mode="normal" in="SourceGraphic" in2="effect1_dropShadow_8137_4737" result="shape"/>
</filter>
<filter id="filter6_d_8137_4737" x="212.543" y="475.207" width="13.8555" height="23.5293" filterUnits="userSpaceOnUse" color-interpolation-filters="sRGB">
<feFlood flood-opacity="0" result="BackgroundImageFix"/>
<feColorMatrix in="SourceAlpha" type="matrix" values="0 0 0 0 0 0 0 0 0 0 0 0 0 0 0 0 0 0 127 0" result="hardAlpha"/>
<feOffset dy="2"/>
<feGaussianBlur stdDeviation="1"/>
<feComposite in2="hardAlpha" operator="out"/>
<feColorMatrix type="matrix" values="0 0 0 0 0 0 0 0 0 0 0 0 0 0 0 0 0 0 0.25 0"/>
<feBlend mode="normal" in2="BackgroundImageFix" result="effect1_dropShadow_8137_4737"/>
<feBlend mode="normal" in="SourceGraphic" in2="effect1_dropShadow_8137_4737" result="shape"/>
</filter>
<filter id="filter7_d_8137_4737" x="178.574" y="509.902" width="40.5703" height="30.873" filterUnits="userSpaceOnUse" color-interpolation-filters="sRGB">
<feFlood flood-opacity="0" result="BackgroundImageFix"/>
<feColorMatrix in="SourceAlpha" type="matrix" values="0 0 0 0 0 0 0 0 0 0 0 0 0 0 0 0 0 0 127 0" result="hardAlpha"/>
<feOffset dy="2"/>
<feGaussianBlur stdDeviation="1"/>
<feComposite in2="hardAlpha" operator="out"/>
<feColorMatrix type="matrix" values="0 0 0 0 0 0 0 0 0 0 0 0 0 0 0 0 0 0 0.25 0"/>
<feBlend mode="normal" in2="BackgroundImageFix" result="effect1_dropShadow_8137_4737"/>
<feBlend mode="normal" in="SourceGraphic" in2="effect1_dropShadow_8137_4737" result="shape"/>
</filter>
<filter id="filter8_d_8137_4737" x="224.086" y="511.619" width="24.9727" height="23.1992" filterUnits="userSpaceOnUse" color-interpolation-filters="sRGB">
<feFlood flood-opacity="0" result="BackgroundImageFix"/>
<feColorMatrix in="SourceAlpha" type="matrix" values="0 0 0 0 0 0 0 0 0 0 0 0 0 0 0 0 0 0 127 0" result="hardAlpha"/>
<feOffset dy="2"/>
<feGaussianBlur stdDeviation="1"/>
<feComposite in2="hardAlpha" operator="out"/>
<feColorMatrix type="matrix" values="0 0 0 0 0 0 0 0 0 0 0 0 0 0 0 0 0 0 0.25 0"/>
<feBlend mode="normal" in2="BackgroundImageFix" result="effect1_dropShadow_8137_4737"/>
<feBlend mode="normal" in="SourceGraphic" in2="effect1_dropShadow_8137_4737" result="shape"/>
</filter>
<filter id="filter9_f_8137_4737" x="154.673" y="359.285" width="99.0011" height="122.443" filterUnits="userSpaceOnUse" color-interpolation-filters="sRGB">
<feFlood flood-opacity="0" result="BackgroundImageFix"/>
<feBlend mode="normal" in="SourceGraphic" in2="BackgroundImageFix" result="shape"/>
<feGaussianBlur stdDeviation="16.2825" result="effect1_foregroundBlur_8137_4737"/>
</filter>
<linearGradient id="paint0_linear_8137_4737" x1="63.5797" y1="398.192" x2="61.0207" y2="421.375" gradientUnits="userSpaceOnUse">
<stop stop-color="#042284"/>
<stop offset="1" stop-color="#0B1855"/>
</linearGradient>
<linearGradient id="paint1_linear_8137_4737" x1="-62.5662" y1="387.246" x2="144.527" y2="433.871" gradientUnits="userSpaceOnUse">
<stop stop-color="#E5C675"/>
<stop offset="1" stop-color="#C5A064"/>
</linearGradient>
<linearGradient id="paint2_linear_8137_4737" x1="63.5797" y1="398.192" x2="61.0207" y2="421.375" gradientUnits="userSpaceOnUse">
<stop stop-color="#042284"/>
<stop offset="1" stop-color="#0B1855"/>
</linearGradient>
<linearGradient id="paint3_linear_8137_4737" x1="-62.5662" y1="387.246" x2="144.527" y2="433.871" gradientUnits="userSpaceOnUse">
<stop stop-color="#E5C675"/>
<stop offset="1" stop-color="#C5A064"/>
</linearGradient>
<linearGradient id="paint4_linear_8137_4737" x1="120.302" y1="392.024" x2="4.45735" y2="389.148" gradientUnits="userSpaceOnUse">
<stop stop-color="#E5C675"/>
<stop offset="1" stop-color="#F3E09D"/>
</linearGradient>
<linearGradient id="paint5_linear_8137_4737" x1="79.2598" y1="276.326" x2="65.3236" y2="402.584" gradientUnits="userSpaceOnUse">
<stop stop-color="#E5C675"/>
<stop offset="1" stop-color="#C5A064"/>
</linearGradient>
<linearGradient id="paint6_linear_8137_4737" x1="70.9351" y1="253.133" x2="66.1675" y2="296.326" gradientUnits="userSpaceOnUse">
<stop stop-color="#C5A064"/>
<stop offset="1" stop-color="#E5C675"/>
</linearGradient>
<linearGradient id="paint7_linear_8137_4737" x1="72.7079" y1="265.796" x2="62.5492" y2="357.831" gradientUnits="userSpaceOnUse">
<stop stop-color="#F4F2C3"/>
<stop offset="0.701546" stop-color="#F3E09D"/>
<stop offset="1" stop-color="#E5C675"/>
</linearGradient>
<linearGradient id="paint8_linear_8137_4737" x1="20.9545" y1="261.346" x2="125.267" y2="272.859" gradientUnits="userSpaceOnUse">
<stop stop-color="#F4F0BF"/>
<stop offset="1" stop-color="#F4F0BD"/>
</linearGradient>
<linearGradient id="paint9_linear_8137_4737" x1="58.8268" y1="316.838" x2="55.5837" y2="346.22" gradientUnits="userSpaceOnUse">
<stop stop-color="#E5C675"/>
<stop offset="0.298454" stop-color="#F3E09D"/>
<stop offset="1" stop-color="#F4F2C3"/>
</linearGradient>
<linearGradient id="paint10_linear_8137_4737" x1="58.8268" y1="316.838" x2="55.5837" y2="346.22" gradientUnits="userSpaceOnUse">
<stop stop-color="#F4F2C3"/>
<stop offset="0.701546" stop-color="#F3E09D"/>
<stop offset="1" stop-color="#E5C675"/>
</linearGradient>
<linearGradient id="paint11_linear_8137_4737" x1="90.5783" y1="368.342" x2="85.9118" y2="410.619" gradientUnits="userSpaceOnUse">
<stop stop-color="#E5C675"/>
<stop offset="0.298454" stop-color="#F3E09D"/>
<stop offset="1" stop-color="#F4F2C3"/>
</linearGradient>
<linearGradient id="paint12_linear_8137_4737" x1="90.5783" y1="368.342" x2="85.9118" y2="410.619" gradientUnits="userSpaceOnUse">
<stop stop-color="#F4F2C3"/>
<stop offset="0.701546" stop-color="#F3E09D"/>
<stop offset="1" stop-color="#E5C675"/>
</linearGradient>
<linearGradient id="paint13_linear_8137_4737" x1="32.5057" y1="371.943" x2="29.4945" y2="399.223" gradientUnits="userSpaceOnUse">
<stop stop-color="#E5C675"/>
<stop offset="0.298454" stop-color="#F3E09D"/>
<stop offset="1" stop-color="#F4F2C3"/>
</linearGradient>
<linearGradient id="paint14_linear_8137_4737" x1="32.5057" y1="371.943" x2="29.4945" y2="399.223" gradientUnits="userSpaceOnUse">
<stop stop-color="#F4F2C3"/>
<stop offset="0.701546" stop-color="#F3E09D"/>
<stop offset="1" stop-color="#E5C675"/>
</linearGradient>
<linearGradient id="paint15_linear_8137_4737" x1="90.6392" y1="201.53" x2="80.2444" y2="267.347" gradientUnits="userSpaceOnUse">
<stop stop-color="#F3E09D" stop-opacity="0.6"/>
<stop offset="1" stop-color="#F8B044"/>
</linearGradient>
<linearGradient id="paint16_linear_8137_4737" x1="90.6392" y1="201.53" x2="80.2444" y2="267.347" gradientUnits="userSpaceOnUse">
<stop stop-color="#F3E09D" stop-opacity="0.6"/>
<stop offset="1" stop-color="#F8B044"/>
</linearGradient>
<linearGradient id="paint17_linear_8137_4737" x1="86.8428" y1="224.476" x2="82.0778" y2="283.463" gradientUnits="userSpaceOnUse">
<stop stop-color="#F4F2C3"/>
<stop offset="1" stop-color="#F3E09D"/>
</linearGradient>
<linearGradient id="paint18_linear_8137_4737" x1="214.274" y1="529.057" x2="215.751" y2="544.423" gradientUnits="userSpaceOnUse">
<stop stop-color="#042284"/>
<stop offset="1" stop-color="#0B1855"/>
</linearGradient>
<linearGradient id="paint19_linear_8137_4737" x1="297.854" y1="522.992" x2="160.373" y2="551.912" gradientUnits="userSpaceOnUse">
<stop stop-color="#E5C675"/>
<stop offset="1" stop-color="#C5A064"/>
</linearGradient>
<linearGradient id="paint20_linear_8137_4737" x1="214.274" y1="529.057" x2="215.751" y2="544.423" gradientUnits="userSpaceOnUse">
<stop stop-color="#042284"/>
<stop offset="1" stop-color="#0B1855"/>
</linearGradient>
<linearGradient id="paint21_linear_8137_4737" x1="297.854" y1="522.992" x2="160.373" y2="551.912" gradientUnits="userSpaceOnUse">
<stop stop-color="#E5C675"/>
<stop offset="1" stop-color="#C5A064"/>
</linearGradient>
<linearGradient id="paint22_linear_8137_4737" x1="78.1613" y1="6.30112" x2="1.49184" y2="4.39736" gradientUnits="userSpaceOnUse">
<stop stop-color="#E5C675"/>
<stop offset="1" stop-color="#F3E09D"/>
</linearGradient>
<linearGradient id="paint23_linear_8137_4737" x1="205.034" y1="448.267" x2="213.077" y2="531.95" gradientUnits="userSpaceOnUse">
<stop stop-color="#E5C675"/>
<stop offset="1" stop-color="#C5A064"/>
</linearGradient>
<linearGradient id="paint24_linear_8137_4737" x1="210.767" y1="432.996" x2="213.519" y2="461.624" gradientUnits="userSpaceOnUse">
<stop stop-color="#C5A064"/>
<stop offset="1" stop-color="#E5C675"/>
</linearGradient>
<linearGradient id="paint25_linear_8137_4737" x1="209.464" y1="441.362" x2="215.327" y2="502.361" gradientUnits="userSpaceOnUse">
<stop stop-color="#F4F2C3"/>
<stop offset="0.701546" stop-color="#F3E09D"/>
<stop offset="1" stop-color="#E5C675"/>
</linearGradient>
<linearGradient id="paint26_linear_8137_4737" x1="243.751" y1="438.898" x2="174.613" y2="445.543" gradientUnits="userSpaceOnUse">
<stop stop-color="#F4F0BF"/>
<stop offset="1" stop-color="#F4F0BD"/>
</linearGradient>
<linearGradient id="paint27_linear_8137_4737" x1="218.182" y1="475.267" x2="220.054" y2="494.741" gradientUnits="userSpaceOnUse">
<stop stop-color="#E5C675"/>
<stop offset="0.298454" stop-color="#F3E09D"/>
<stop offset="1" stop-color="#F4F2C3"/>
</linearGradient>
<linearGradient id="paint28_linear_8137_4737" x1="218.182" y1="475.267" x2="220.054" y2="494.741" gradientUnits="userSpaceOnUse">
<stop stop-color="#F4F2C3"/>
<stop offset="0.701546" stop-color="#F3E09D"/>
<stop offset="1" stop-color="#E5C675"/>
</linearGradient>
<linearGradient id="paint29_linear_8137_4737" x1="196.684" y1="509.052" x2="199.378" y2="537.073" gradientUnits="userSpaceOnUse">
<stop stop-color="#E5C675"/>
<stop offset="0.298454" stop-color="#F3E09D"/>
<stop offset="1" stop-color="#F4F2C3"/>
</linearGradient>
<linearGradient id="paint30_linear_8137_4737" x1="196.684" y1="509.052" x2="199.378" y2="537.073" gradientUnits="userSpaceOnUse">
<stop stop-color="#F4F2C3"/>
<stop offset="0.701546" stop-color="#F3E09D"/>
<stop offset="1" stop-color="#E5C675"/>
</linearGradient>
<linearGradient id="paint31_linear_8137_4737" x1="235.079" y1="511.978" x2="236.817" y2="530.06" gradientUnits="userSpaceOnUse">
<stop stop-color="#E5C675"/>
<stop offset="0.298454" stop-color="#F3E09D"/>
<stop offset="1" stop-color="#F4F2C3"/>
</linearGradient>
<linearGradient id="paint32_linear_8137_4737" x1="235.079" y1="511.978" x2="236.817" y2="530.06" gradientUnits="userSpaceOnUse">
<stop stop-color="#F4F2C3"/>
<stop offset="0.701546" stop-color="#F3E09D"/>
<stop offset="1" stop-color="#E5C675"/>
</linearGradient>
<linearGradient id="paint33_linear_8137_4737" x1="198.2" y1="398.664" x2="204.465" y2="442.316" gradientUnits="userSpaceOnUse">
<stop stop-color="#F3E09D" stop-opacity="0.6"/>
<stop offset="1" stop-color="#F8B044"/>
</linearGradient>
<linearGradient id="paint34_linear_8137_4737" x1="198.2" y1="398.664" x2="204.465" y2="442.316" gradientUnits="userSpaceOnUse">
<stop stop-color="#F3E09D" stop-opacity="0.6"/>
<stop offset="1" stop-color="#F8B044"/>
</linearGradient>
<linearGradient id="paint35_linear_8137_4737" x1="200.501" y1="413.883" x2="203.103" y2="452.963" gradientUnits="userSpaceOnUse">
<stop stop-color="#F4F2C3"/>
<stop offset="1" stop-color="#F3E09D"/>
</linearGradient>
<linearGradient id="paint36_linear_8137_4737" x1="207.93" y1="325.104" x2="178.451" y2="283.178" gradientUnits="userSpaceOnUse">
<stop stop-color="#F8B043"/>
<stop offset="1" stop-color="#FBDE8C"/>
</linearGradient>
<linearGradient id="paint37_linear_8137_4737" x1="152.893" y1="60.6013" x2="208.765" y2="126.333" gradientUnits="userSpaceOnUse">
<stop stop-color="#F28041" stop-opacity="0.3"/>
<stop offset="1" stop-color="#FAD1CF"/>
</linearGradient>
<linearGradient id="paint38_linear_8137_4737" x1="50.9468" y1="14.3411" x2="79.4209" y2="47.8401" gradientUnits="userSpaceOnUse">
<stop stop-color="#F28041" stop-opacity="0.3"/>
<stop offset="1" stop-color="#FAD1CF"/>
</linearGradient>
<linearGradient id="paint39_linear_8137_4737" x1="245.792" y1="246.234" x2="334.898" y2="187.875" gradientUnits="userSpaceOnUse">
<stop stop-color="#7AB2E2"/>
<stop offset="1" stop-color="#FBDE8C"/>
</linearGradient>
</defs>
</svg>
