<svg width="230" height="532" viewBox="0 0 230 532" fill="none" xmlns="http://www.w3.org/2000/svg">
<g filter="url(#filter0_d_8052_4758)">
<path d="M74.6259 430.185C74.6419 431.594 74.722 432.995 74.866 434.388C75.0101 435.765 75.2102 437.133 75.4664 438.494L73.0409 438.974C72.6247 436.701 71.5521 434.988 69.823 433.835C68.11 432.667 65.7726 432.082 62.8108 432.082C58.8244 432.082 55.7266 433.267 53.5173 435.636C51.324 438.006 50.2273 441.336 50.2273 445.626C50.2273 450.189 51.42 453.831 53.8054 456.553C56.2069 459.259 59.3928 460.611 63.3632 460.611C64.2597 460.611 65.1402 460.531 66.0047 460.371C66.8853 460.195 67.7578 459.931 68.6223 459.579C68.6383 458.858 68.6543 457.914 68.6703 456.745C68.7023 455.56 68.7184 454.816 68.7184 454.512C68.7184 452.174 68.4382 450.717 67.8779 450.141C67.3175 449.549 66.0928 449.253 64.2037 449.253H63.5072V447.115C65.1722 447.195 66.5811 447.251 67.7338 447.283C68.8865 447.315 69.9351 447.331 70.8797 447.331C71.9043 447.331 73.0249 447.315 74.2417 447.283C75.4584 447.251 76.9473 447.195 78.7083 447.115V449.253H78.0119C76.7472 449.253 75.9147 449.541 75.5144 450.117C75.1142 450.693 74.9141 452.294 74.9141 454.92V457.273C74.9141 458.154 74.9301 459.002 74.9621 459.819C74.9941 460.635 75.0421 461.444 75.1062 462.244C71.3279 463.077 68.5423 463.621 66.7492 463.877C64.9561 464.134 63.3311 464.262 61.8743 464.262C56.1428 464.262 51.5401 462.645 48.066 459.411C44.5919 456.177 42.8549 451.894 42.8549 446.563C42.8549 441.104 44.736 436.693 48.4983 433.331C52.2765 429.953 57.2155 428.264 63.3151 428.264C65.2043 428.264 67.0934 428.424 68.9825 428.744C70.8877 429.065 72.7688 429.545 74.6259 430.185ZM87.5456 426.727L89.7309 428.216C90.2753 428.584 90.6755 428.968 90.9317 429.369C91.2038 429.769 91.3399 430.201 91.3399 430.665C91.3399 431.146 91.2358 431.562 91.0277 431.914C90.8196 432.25 90.4514 432.603 89.923 432.971L87.5937 434.556L85.4324 433.115C84.856 432.747 84.4238 432.362 84.1356 431.962C83.8634 431.562 83.7273 431.146 83.7273 430.714C83.7273 430.233 83.8394 429.809 84.0635 429.441C84.2877 429.073 84.6959 428.68 85.2883 428.264L87.5456 426.727ZM90.9076 438.782C90.8116 442.24 90.7315 445.258 90.6675 447.836C90.6195 450.413 90.5955 452.527 90.5955 454.176V456.985C90.5955 458.858 90.7796 460.059 91.1478 460.587C91.532 461.1 92.2524 461.356 93.3091 461.356C93.3891 461.356 93.5092 461.348 93.6693 461.332C93.8454 461.316 93.9895 461.308 94.1015 461.308V463.373C92.6287 463.277 91.3399 463.205 90.2352 463.157C89.1306 463.109 88.218 463.085 87.4976 463.085C86.8892 463.085 86.0647 463.109 85.0241 463.157C83.9995 463.205 82.7748 463.277 81.3499 463.373V461.308H81.8542C83.9034 461.308 84.9361 459.419 84.9521 455.64C84.9521 455.032 84.9521 454.56 84.9521 454.224L85.0001 449.109V446.995C85.0001 445.202 84.856 444.049 84.5678 443.537C84.2797 443.025 83.7193 442.769 82.8868 442.769C82.7748 442.769 82.5186 442.785 82.1184 442.817C81.9423 442.833 81.8062 442.849 81.7101 442.865L81.3499 440.944C83.0469 440.719 84.6799 440.431 86.2489 440.079C87.8178 439.727 89.3707 439.295 90.9076 438.782ZM106.397 438.59V440.295H107.982C108.798 440.295 109.615 440.287 110.431 440.271C111.248 440.239 112.072 440.207 112.905 440.175C112.905 440.383 112.897 440.671 112.881 441.04C112.865 441.392 112.857 441.624 112.857 441.736V443.201C112.745 443.201 112.593 443.193 112.4 443.177C110.143 443.065 108.518 443.009 107.526 443.009H106.469C106.437 443.985 106.413 445.018 106.397 446.107C106.397 447.179 106.397 448.74 106.397 450.79C106.397 451.398 106.389 452.206 106.373 453.215C106.357 454.208 106.349 454.888 106.349 455.256C106.349 457.866 106.581 459.547 107.045 460.299C107.51 461.036 108.398 461.404 109.711 461.404C110.015 461.404 110.255 461.404 110.431 461.404C110.623 461.388 110.784 461.372 110.912 461.356L110.936 463.373C109.447 463.277 108.118 463.205 106.949 463.157C105.797 463.109 104.796 463.085 103.947 463.085C103.179 463.085 102.234 463.109 101.114 463.157C100.009 463.205 98.6723 463.277 97.1033 463.373V461.356H97.8478C98.9845 461.356 99.7529 461.02 100.153 460.347C100.553 459.675 100.754 458.21 100.754 455.953C100.754 455.584 100.746 454.904 100.73 453.911C100.714 452.919 100.706 452.102 100.706 451.462V443.057H98.9765C98.9444 443.057 98.7203 443.073 98.3041 443.105C97.8878 443.121 97.4956 443.137 97.1274 443.153V440.896C97.8958 440.848 98.5602 440.719 99.1206 440.511C99.6809 440.303 100.193 439.991 100.657 439.575C100.77 435.444 101.954 432.194 104.212 429.825C106.485 427.44 109.511 426.247 113.289 426.247C114.842 426.247 116.075 426.543 116.987 427.135C117.9 427.728 118.356 428.528 118.356 429.537C118.356 430.273 118.14 430.874 117.708 431.338C117.291 431.802 116.755 432.034 116.099 432.034C115.506 432.034 114.562 431.69 113.265 431.002C111.984 430.313 110.976 429.969 110.239 429.969C108.846 429.969 107.854 430.585 107.261 431.818C106.685 433.035 106.397 435.292 106.397 438.59ZM122.006 434.652L124.12 435.252C124.023 436.149 123.935 437.005 123.855 437.822C123.791 438.622 123.751 439.383 123.735 440.103C125.833 440.103 127.393 440.087 128.418 440.055C129.443 440.023 130.387 439.975 131.252 439.911L130.627 443.201C129.619 443.121 128.53 443.065 127.361 443.033C126.209 442.985 125 442.969 123.735 442.985C123.687 445.098 123.647 446.907 123.615 448.412C123.599 449.901 123.591 451.07 123.591 451.918C123.591 455.424 123.839 457.714 124.336 458.786C124.848 459.843 125.744 460.371 127.025 460.371C127.538 460.371 128.122 460.267 128.778 460.059C129.435 459.851 130.179 459.531 131.012 459.098L131.948 461.116C130.187 462.108 128.618 462.861 127.241 463.373C125.865 463.901 124.728 464.166 123.831 464.166C121.782 464.166 120.269 463.525 119.293 462.244C118.316 460.948 117.828 458.946 117.828 456.241C117.828 455.712 117.868 453.975 117.948 451.03C118.044 448.084 118.092 445.394 118.092 442.961C118.06 442.961 117.676 442.977 116.939 443.009C116.219 443.041 115.37 443.073 114.394 443.105V440.8C116.251 440.527 117.804 439.887 119.052 438.878C120.317 437.854 121.302 436.445 122.006 434.652ZM156.851 450.573L146.837 450.597C145.124 450.597 143.843 450.613 142.995 450.645C142.146 450.661 141.362 450.709 140.641 450.79C140.641 453.655 141.346 455.905 142.755 457.538C144.18 459.171 146.141 459.987 148.638 459.987C149.839 459.987 151.024 459.803 152.192 459.435C153.377 459.05 154.57 458.474 155.77 457.706L156.851 459.771C154.994 461.244 153.169 462.348 151.376 463.085C149.583 463.805 147.806 464.166 146.045 464.166C142.699 464.166 139.953 463.053 137.808 460.828C135.662 458.586 134.59 455.712 134.59 452.206C134.59 448.396 135.75 445.218 138.072 442.673C140.393 440.111 143.243 438.83 146.621 438.83C149.647 438.83 152.096 439.903 153.969 442.048C155.842 444.178 156.803 447.019 156.851 450.573ZM151.16 447.644C150.823 445.771 150.207 444.314 149.311 443.273C148.43 442.216 147.373 441.688 146.141 441.688C144.668 441.688 143.451 442.256 142.491 443.393C141.53 444.53 140.93 446.123 140.689 448.172H142.202C144.172 448.172 145.885 448.132 147.341 448.052C148.798 447.956 150.071 447.82 151.16 447.644ZM178.368 443.897C177.487 443.385 176.639 443.009 175.822 442.769C175.006 442.513 174.197 442.384 173.397 442.384C171.22 442.384 169.523 443.105 168.306 444.546C167.105 445.971 166.505 448.004 166.505 450.645C166.505 453.447 167.113 455.688 168.33 457.369C169.547 459.05 171.156 459.891 173.157 459.891C173.861 459.891 174.63 459.747 175.462 459.459C176.311 459.171 177.263 458.722 178.32 458.114L178.368 443.897ZM184.396 426.151C184.3 429.689 184.211 433.355 184.131 437.149C184.051 440.928 183.979 444.954 183.915 449.229V455.304V456.337C183.915 458.338 184.043 459.611 184.3 460.155C184.572 460.699 185.052 460.972 185.74 460.972C185.981 460.972 186.229 460.948 186.485 460.9C186.757 460.836 187.053 460.747 187.373 460.635L187.806 462.533C186.381 463.093 184.924 463.509 183.435 463.781C181.946 464.069 180.369 464.222 178.704 464.238C178.608 463.757 178.528 463.229 178.464 462.653C178.4 462.076 178.344 461.42 178.296 460.683C176.839 461.756 175.486 462.549 174.237 463.061C173.005 463.557 171.804 463.805 170.635 463.805C167.69 463.805 165.264 462.725 163.359 460.563C161.454 458.386 160.501 455.584 160.501 452.158C160.501 448.332 161.694 445.226 164.079 442.841C166.465 440.455 169.571 439.263 173.397 439.263C174.213 439.263 175.038 439.335 175.87 439.479C176.703 439.623 177.584 439.847 178.512 440.151C178.512 440.055 178.52 439.903 178.536 439.695C178.584 437.47 178.608 435.869 178.608 434.892C178.608 432.635 178.448 431.242 178.128 430.714C177.808 430.185 177.215 429.921 176.351 429.921C176.207 429.921 176.015 429.937 175.774 429.969C175.534 429.985 175.238 430.017 174.886 430.065L174.67 428.12C176.175 427.928 177.728 427.672 179.329 427.351C180.946 427.015 182.635 426.615 184.396 426.151ZM28.3262 477.057C31.0478 477.169 33.5613 477.257 35.8667 477.321C38.1721 477.369 40.1973 477.393 41.9423 477.393C44.8721 477.393 47.3456 477.369 49.3628 477.321C51.396 477.257 53.2851 477.169 55.0302 477.057C55.0622 478.449 55.1262 479.826 55.2223 481.187C55.3183 482.532 55.4544 483.893 55.6305 485.269L53.4692 485.558C53.2451 483.556 52.5807 482.204 51.476 481.499C50.3874 480.795 48.1941 480.443 44.8961 480.443C44.3037 480.443 43.5113 480.459 42.5187 480.491C41.5421 480.507 40.3414 480.539 38.9165 480.587C38.8845 482.7 38.8525 484.725 38.8205 486.662C38.8045 488.599 38.7804 490.457 38.7484 492.234H39.4448C40.3734 492.234 41.5261 492.242 42.9029 492.258C44.2957 492.274 45.2243 492.282 45.6886 492.282C47.8979 492.282 49.3468 492.065 50.0352 491.633C50.7236 491.201 51.0918 490.376 51.1398 489.16L52.9169 489.328C52.9169 490.128 52.8929 491.137 52.8449 492.354C52.7968 493.554 52.7728 494.371 52.7728 494.803C52.7728 495.235 52.7808 495.788 52.7968 496.46C52.8288 497.133 52.8689 497.941 52.9169 498.886L50.8997 499.03V498.741C50.8997 497.365 50.4995 496.436 49.699 495.956C48.9145 495.476 47.0494 495.235 44.1036 495.235H40.5255H38.7004V497.997C38.7004 499.422 38.7084 500.887 38.7244 502.392C38.7404 503.881 38.7644 505.658 38.7964 507.723C39.5169 507.819 40.4134 507.899 41.4861 507.963C42.5747 508.011 43.7594 508.035 45.0402 508.035C48.8665 508.035 51.412 507.635 52.6768 506.834C53.9575 506.034 54.9901 504.497 55.7746 502.224L57.9839 502.92C57.4556 504.457 56.9993 505.922 56.6151 507.315C56.2469 508.707 55.9347 510.06 55.6786 511.373C51.9003 511.245 48.8905 511.157 46.6491 511.109C44.4078 511.061 42.4146 511.037 40.6696 511.037C38.7004 511.037 35.5545 511.109 31.2319 511.253C29.743 511.301 28.6144 511.341 27.8459 511.373V509.26C27.942 509.276 28.046 509.292 28.1581 509.308C28.2862 509.308 28.4703 509.308 28.7104 509.308C30.0552 509.308 30.9678 508.9 31.4481 508.083C31.9283 507.251 32.1685 505.081 32.1685 501.575V499.174V496.964L32.2165 491.609C32.2165 491.369 32.2245 491.009 32.2405 490.529C32.2886 488.559 32.3126 487.215 32.3126 486.494C32.3126 485.774 32.3046 485.021 32.2886 484.237C32.2725 483.452 32.2645 483.02 32.2645 482.94C32.2645 481.547 32.0084 480.579 31.4961 480.034C30.9998 479.49 30.1273 479.218 28.8785 479.218H28.3262V477.057ZM70.0151 486.782L69.6309 490.721C71.552 489.344 73.193 488.343 74.5538 487.719C75.9147 487.095 77.1234 486.782 78.18 486.782C80.6935 486.782 82.5827 487.519 83.8474 488.992C85.1282 490.449 85.7686 492.61 85.7686 495.476C85.7686 496.02 85.7525 497.285 85.7205 499.27C85.6885 501.239 85.6725 502.944 85.6725 504.385C85.6725 506.738 85.8406 508.155 86.1768 508.635C86.529 509.116 87.2254 509.356 88.2661 509.356H88.7704L88.7223 511.373C87.2975 511.277 86.0807 511.205 85.0721 511.157C84.0635 511.109 83.247 511.085 82.6227 511.085C81.9503 511.085 81.1178 511.109 80.1252 511.157C79.1486 511.205 78.0119 511.277 76.7151 511.373V509.356H77.0033C78.9885 509.356 80.0051 507.355 80.0531 503.352C80.0531 503.224 80.0531 503.128 80.0531 503.064V497.997C80.0531 495.227 79.7329 493.362 79.0926 492.402C78.4522 491.441 77.3635 490.961 75.8266 490.961C74.9941 490.961 74.0976 491.137 73.137 491.489C72.1764 491.825 71.1198 492.354 69.9671 493.074C69.9031 494.515 69.855 496.012 69.823 497.565C69.791 499.118 69.775 500.783 69.775 502.56V504.529C69.775 506.69 69.9431 508.035 70.2793 508.563C70.6315 509.092 71.3199 509.356 72.3445 509.356H72.7288V511.373C71.3839 511.277 70.2072 511.205 69.1986 511.157C68.19 511.109 67.3335 511.085 66.6291 511.085C65.9407 511.085 65.0922 511.109 64.0836 511.157C63.075 511.205 61.9063 511.277 60.5775 511.373V509.356H61.1298C63.115 509.356 64.1236 507.347 64.1556 503.328C64.1556 502.848 64.1636 502.48 64.1796 502.224L64.2277 497.253V495.139C64.2277 493.33 64.0836 492.162 63.7954 491.633C63.5232 491.089 63.0109 490.817 62.2585 490.817C62.1144 490.817 61.7942 490.841 61.2979 490.889C61.2019 490.905 61.1298 490.913 61.0818 490.913L60.9377 489.04C62.2665 488.832 63.6673 488.543 65.1402 488.175C66.6131 487.807 68.2381 487.343 70.0151 486.782ZM102.843 489.088C101.386 489.088 100.233 489.6 99.3847 490.625C98.5362 491.649 98.1119 493.058 98.1119 494.851C98.1119 496.82 98.5362 498.365 99.3847 499.486C100.233 500.591 101.418 501.143 102.939 501.143C104.444 501.143 105.62 500.647 106.469 499.654C107.317 498.645 107.742 497.237 107.742 495.428C107.742 493.33 107.325 491.753 106.493 490.697C105.676 489.624 104.46 489.088 102.843 489.088ZM98.5442 511.757C97.9038 512.43 97.4315 513.07 97.1274 513.678C96.8392 514.287 96.6951 514.895 96.6951 515.504C96.6951 516.912 97.3275 518.089 98.5922 519.034C99.857 519.994 101.466 520.474 103.419 520.474C105.676 520.474 107.566 519.938 109.087 518.866C110.623 517.793 111.392 516.512 111.392 515.023C111.392 513.807 110.928 512.958 109.999 512.478C109.087 511.997 107.205 511.757 104.356 511.757H98.5442ZM109.231 488.463C111.072 488.463 112.481 488.447 113.457 488.415C114.45 488.383 115.386 488.327 116.267 488.247L116.195 491.105C115.49 491.025 114.722 490.969 113.889 490.937C113.073 490.889 112.128 490.865 111.056 490.865C111.776 491.521 112.304 492.234 112.641 493.002C112.993 493.755 113.169 494.579 113.169 495.476C113.169 497.701 112.224 499.566 110.335 501.071C108.462 502.56 106.109 503.304 103.275 503.304C102.987 503.304 102.451 503.28 101.666 503.232C101.506 503.216 101.386 503.208 101.306 503.208C100.97 503.416 100.625 503.656 100.273 503.929C99.937 504.185 99.5448 504.521 99.0965 504.937C99.4327 505.433 99.7689 505.858 100.105 506.21C100.441 506.562 100.794 506.874 101.162 507.147H103.755H108.342C110.92 507.147 112.833 507.627 114.082 508.587C115.33 509.532 115.955 510.989 115.955 512.958C115.955 514.271 115.546 515.608 114.73 516.968C113.929 518.329 112.801 519.546 111.344 520.619C109.983 521.643 108.406 522.444 106.613 523.02C104.82 523.612 103.051 523.909 101.306 523.909C98.5202 523.909 96.2388 523.268 94.4618 521.987C92.7007 520.707 91.8202 519.106 91.8202 517.185C91.8202 516.016 92.2044 514.903 92.9729 513.847C93.7413 512.806 95.0301 511.653 96.8392 510.388C96.1188 509.716 95.5264 509.036 95.0621 508.347C94.5978 507.643 94.2216 506.882 93.9334 506.066C94.5258 505.458 95.2142 504.873 95.9987 504.313C96.7831 503.752 97.6637 503.208 98.6403 502.68C96.6391 502.184 95.1101 501.335 94.0535 500.134C93.0129 498.918 92.4926 497.389 92.4926 495.548C92.4926 493.13 93.4932 491.073 95.4944 489.376C97.4956 487.679 99.945 486.83 102.843 486.83C104.14 486.83 105.284 486.958 106.277 487.215C107.285 487.471 108.27 487.887 109.231 488.463ZM128.202 474.199C128.09 477.177 128.01 480.018 127.962 482.724C127.914 485.43 127.89 488.015 127.89 490.481V501.143C127.89 503.592 127.93 505.305 128.01 506.282C128.09 507.243 128.21 507.899 128.37 508.251C128.53 508.603 128.826 508.868 129.259 509.044C129.691 509.22 130.251 509.308 130.94 509.308H131.492V511.373C129.955 511.277 128.618 511.205 127.482 511.157C126.361 511.109 125.432 511.085 124.696 511.085C124.023 511.085 123.175 511.109 122.15 511.157C121.126 511.205 119.925 511.277 118.548 511.373V509.308C118.628 509.308 118.748 509.316 118.908 509.332C119.084 509.348 119.213 509.356 119.293 509.356C121.278 509.356 122.27 506.874 122.27 501.911C122.286 501.111 122.294 500.495 122.294 500.062L122.342 489.088V482.604C122.342 480.811 122.198 479.618 121.91 479.026C121.638 478.433 121.126 478.137 120.373 478.137C120.165 478.137 119.941 478.153 119.701 478.185C119.461 478.201 119.229 478.233 119.004 478.281L118.74 476.36C120.453 476.088 122.086 475.776 123.639 475.424C125.208 475.071 126.729 474.663 128.202 474.199ZM140.737 474.727L142.923 476.216C143.467 476.584 143.867 476.968 144.123 477.369C144.396 477.769 144.532 478.201 144.532 478.665C144.532 479.146 144.428 479.562 144.22 479.914C144.011 480.25 143.643 480.603 143.115 480.971L140.785 482.556L138.624 481.115C138.048 480.747 137.616 480.362 137.327 479.962C137.055 479.562 136.919 479.146 136.919 478.714C136.919 478.233 137.031 477.809 137.255 477.441C137.48 477.073 137.888 476.68 138.48 476.264L140.737 474.727ZM144.099 486.782C144.003 490.24 143.923 493.258 143.859 495.836C143.811 498.413 143.787 500.527 143.787 502.176V504.985C143.787 506.858 143.971 508.059 144.34 508.587C144.724 509.1 145.444 509.356 146.501 509.356C146.581 509.356 146.701 509.348 146.861 509.332C147.037 509.316 147.181 509.308 147.293 509.308V511.373C145.82 511.277 144.532 511.205 143.427 511.157C142.322 511.109 141.41 511.085 140.689 511.085C140.081 511.085 139.257 511.109 138.216 511.157C137.191 511.205 135.967 511.277 134.542 511.373V509.308H135.046C137.095 509.308 138.128 507.419 138.144 503.64C138.144 503.032 138.144 502.56 138.144 502.224L138.192 497.109V494.995C138.192 493.202 138.048 492.049 137.76 491.537C137.472 491.025 136.911 490.769 136.079 490.769C135.967 490.769 135.71 490.785 135.31 490.817C135.134 490.833 134.998 490.849 134.902 490.865L134.542 488.944C136.239 488.719 137.872 488.431 139.441 488.079C141.01 487.727 142.563 487.295 144.099 486.782ZM168.642 488.007C168.642 489.016 168.69 490.04 168.786 491.081C168.882 492.106 169.034 493.146 169.243 494.203L166.865 494.659C166.673 492.882 166.145 491.585 165.28 490.769C164.416 489.952 163.159 489.544 161.51 489.544C160.213 489.544 159.156 489.872 158.34 490.529C157.54 491.169 157.139 492.001 157.139 493.026C157.139 494.451 159.004 495.732 162.735 496.868L162.903 496.916C165.688 497.765 167.586 498.701 168.594 499.726C169.619 500.751 170.131 502.144 170.131 503.905C170.131 506.274 169.13 508.235 167.129 509.788C165.128 511.341 162.551 512.117 159.397 512.117C158.116 512.117 156.851 511.989 155.602 511.733C154.37 511.493 153.177 511.125 152.024 510.629C152.04 510.452 152.048 510.252 152.048 510.028C152.064 509.804 152.072 509.468 152.072 509.02C152.072 508.123 152.032 507.235 151.952 506.354C151.872 505.474 151.752 504.609 151.592 503.76L153.801 503.208C154.169 505.401 154.85 506.994 155.842 507.987C156.835 508.964 158.236 509.452 160.045 509.452C161.582 509.452 162.799 509.108 163.695 508.419C164.608 507.731 165.064 506.794 165.064 505.61C165.064 504.201 163.087 502.832 159.132 501.503C158.476 501.279 157.972 501.111 157.62 500.999C155.714 500.342 154.346 499.534 153.513 498.573C152.681 497.597 152.264 496.34 152.264 494.803C152.264 492.418 153.161 490.497 154.954 489.04C156.747 487.567 159.148 486.83 162.158 486.83C163.055 486.83 164.031 486.926 165.088 487.119C166.161 487.311 167.345 487.607 168.642 488.007ZM183.315 474.199C183.299 475.031 183.267 476.288 183.219 477.969C183.059 483.62 182.963 487.879 182.931 490.745C184.772 489.4 186.389 488.431 187.782 487.839C189.19 487.231 190.527 486.926 191.792 486.926C194.193 486.926 196.003 487.655 197.219 489.112C198.452 490.553 199.068 492.714 199.068 495.596C199.068 496.092 199.052 497.317 199.02 499.27C198.988 501.207 198.972 502.88 198.972 504.289V504.985C198.972 506.97 199.148 508.195 199.501 508.659C199.853 509.124 200.541 509.356 201.566 509.356H202.022V511.373C200.597 511.277 199.381 511.205 198.372 511.157C197.363 511.109 196.547 511.085 195.922 511.085C195.25 511.085 194.418 511.109 193.425 511.157C192.448 511.205 191.312 511.277 190.015 511.373V509.356H190.303C192.288 509.356 193.305 507.363 193.353 503.376C193.353 503.232 193.353 503.128 193.353 503.064L193.401 498.838V498.093C193.401 495.323 193.073 493.442 192.416 492.45C191.776 491.457 190.695 490.961 189.174 490.961C188.342 490.961 187.453 491.129 186.509 491.465C185.564 491.801 184.42 492.37 183.075 493.17L182.979 499.174V502.608V504.793C182.979 506.778 183.155 508.035 183.507 508.563C183.859 509.092 184.54 509.356 185.548 509.356H185.884V511.373C184.476 511.277 183.267 511.205 182.258 511.157C181.25 511.109 180.425 511.085 179.785 511.085C178.968 511.085 178.056 511.109 177.047 511.157C176.039 511.205 174.918 511.277 173.685 511.373V509.38C173.781 509.38 173.885 509.388 173.997 509.404C174.125 509.404 174.302 509.404 174.526 509.404C175.63 509.404 176.383 509.044 176.783 508.323C177.183 507.603 177.383 505.946 177.383 503.352V499.03V498.093L177.431 484.477V482.892C177.431 480.795 177.295 479.49 177.023 478.978C176.751 478.449 176.231 478.185 175.462 478.185C175.094 478.185 174.806 478.193 174.598 478.209C174.406 478.225 174.213 478.241 174.021 478.257L173.829 476.36C175.35 476.152 176.895 475.872 178.464 475.52C180.049 475.151 181.666 474.711 183.315 474.199Z" fill="#F3E09D"/>
</g>
<g filter="url(#filter1_i_8052_4758)">
<path d="M0 27.5144L0 196.254V207.604L0 376.344C0 380.416 4.17636 383.48 8.5472 382.839C20.396 381.101 42.7616 379.119 64.0128 384.357C98.2318 392.791 102.908 412.138 113.995 401.01C125.047 412.103 131.177 392.792 165.396 384.357C186.647 379.119 209.012 381.101 220.861 382.839C225.232 383.48 229.408 380.416 229.408 376.344V207.604V196.254V27.5142C229.408 23.4426 225.232 20.378 220.861 21.0192C209.012 22.7573 186.647 24.7396 165.396 19.5015C131.177 11.0669 126.026 -7.93576 113.995 4.14065C101.396 -8.50529 98.2318 11.067 64.0128 19.5016C42.7616 24.7398 20.396 22.7574 8.5472 21.0194C4.17636 20.3782 0 23.4428 0 27.5144Z" fill="#D9D9D9"/>
<path d="M0 27.5144L0 196.254V207.604L0 376.344C0 380.416 4.17636 383.48 8.5472 382.839C20.396 381.101 42.7616 379.119 64.0128 384.357C98.2318 392.791 102.908 412.138 113.995 401.01C125.047 412.103 131.177 392.792 165.396 384.357C186.647 379.119 209.012 381.101 220.861 382.839C225.232 383.48 229.408 380.416 229.408 376.344V207.604V196.254V27.5142C229.408 23.4426 225.232 20.378 220.861 21.0192C209.012 22.7573 186.647 24.7396 165.396 19.5015C131.177 11.0669 126.026 -7.93576 113.995 4.14065C101.396 -8.50529 98.2318 11.067 64.0128 19.5016C42.7616 24.7398 20.396 22.7574 8.5472 21.0194C4.17636 20.3782 0 23.4428 0 27.5144Z" fill="url(#paint0_linear_8052_4758)"/>
<g filter="url(#filter2_i_8052_4758)">
<path d="M13.2109 41.559L13.2109 196.732V207.17L13.2109 362.343C13.2109 366.087 16.9062 368.905 20.7736 368.316C31.2575 366.717 51.0467 364.894 69.8499 369.711C100.127 377.468 104.265 395.259 114.074 385.025C123.853 395.227 129.277 377.468 159.554 369.711C178.357 364.894 198.147 366.717 208.631 368.316C212.498 368.905 216.193 366.087 216.193 362.343V207.17V196.732V41.5589C216.193 37.8146 212.498 34.9965 208.631 35.5861C198.147 37.1844 178.357 39.0074 159.554 34.1904C129.277 26.4339 124.719 8.95911 114.074 20.0646C102.927 8.43537 100.127 26.4341 69.8499 34.1905C51.0467 39.0076 31.2575 37.1846 20.7736 35.5863C16.9062 34.9967 13.2109 37.8148 13.2109 41.559Z" fill="#D9D9D9"/>
<path d="M13.2109 41.559L13.2109 196.732V207.17L13.2109 362.343C13.2109 366.087 16.9062 368.905 20.7736 368.316C31.2575 366.717 51.0467 364.894 69.8499 369.711C100.127 377.468 104.265 395.259 114.074 385.025C123.853 395.227 129.277 377.468 159.554 369.711C178.357 364.894 198.147 366.717 208.631 368.316C212.498 368.905 216.193 366.087 216.193 362.343V207.17V196.732V41.5589C216.193 37.8146 212.498 34.9965 208.631 35.5861C198.147 37.1844 178.357 39.0074 159.554 34.1904C129.277 26.4339 124.719 8.95911 114.074 20.0646C102.927 8.43537 100.127 26.4341 69.8499 34.1905C51.0467 39.0076 31.2575 37.1846 20.7736 35.5863C16.9062 34.9967 13.2109 37.8148 13.2109 41.559Z" fill="url(#paint1_linear_8052_4758)"/>
</g>
</g>
<mask id="path-4-inside-1_8052_4758" fill="white">
<path d="M175.235 285.483C156.241 282.836 154.684 283.916 148.463 304.046C151.614 283.2 150.683 281.54 132.462 275.514C151.456 278.161 153.014 277.081 159.235 256.95C156.084 277.796 157.015 279.456 175.236 285.483L175.235 285.483Z"/>
</mask>
<path d="M175.235 285.483C156.241 282.836 154.684 283.916 148.463 304.046C151.614 283.2 150.683 281.54 132.462 275.514C151.456 278.161 153.014 277.081 159.235 256.95C156.084 277.796 157.015 279.456 175.236 285.483L175.235 285.483Z" fill="#FDFFE9"/>
<path d="M175.235 285.483L221.116 84.8642L212.042 82.7493L202.817 81.4639L175.235 285.483ZM148.463 304.046L-54.8325 272.462L344.898 365.629L148.463 304.046ZM132.462 275.514L160.043 71.4952L68.663 471.092L132.462 275.514ZM159.235 256.95L362.531 288.529L-37.2001 195.367L159.235 256.95ZM175.236 285.483L129.355 486.101L239.041 89.9064L175.236 285.483ZM175.235 285.483L202.817 81.4639C199.914 81.0594 181.124 78.1592 160.078 78.4741C135.484 78.8422 87.5549 83.4699 39.6178 116.709C-5.92379 148.288 -26.5385 188.699 -34.4904 206.146C-42.091 222.821 -46.8955 238.982 -47.9714 242.464L148.463 304.046L344.898 365.629C346.932 359.046 344.655 367.523 339.69 378.417C334.373 390.082 316.501 426.614 274.501 455.737C230.105 486.521 186.516 490.117 167.75 490.398C152.533 490.625 141.06 488.583 147.654 489.502L175.235 285.483ZM148.463 304.046L351.759 335.63C352.304 332.025 355.004 315.374 355.414 297.022C355.844 277.823 354.866 232.377 327.645 183.838C298.993 132.746 257.921 107.376 235.975 96.1611C217.195 86.5647 199.046 80.8566 196.261 79.9356L132.462 275.514L68.663 471.092C74.9888 473.185 63.7896 469.944 50.2105 463.005C33.4646 454.448 -4.15448 431.926 -30.6906 384.607C-55.7944 339.843 -55.9918 299.097 -55.7046 286.26C-55.4365 274.271 -53.8019 265.645 -54.8325 272.462L148.463 304.046ZM132.462 275.514L104.881 479.533C107.784 479.937 126.574 482.838 147.62 482.523C172.214 482.155 220.143 477.527 268.08 444.287C313.621 412.709 334.236 372.297 342.188 354.851C349.789 338.175 354.593 322.015 355.669 318.533L159.235 256.95L-37.2001 195.367C-39.2344 201.951 -36.9573 193.474 -31.9919 182.58C-26.6751 170.915 -8.80327 134.382 33.1971 105.26C77.593 74.4757 121.182 70.8798 139.948 70.599C155.165 70.3713 166.637 72.414 160.043 71.4952L132.462 275.514ZM159.235 256.95L-44.062 225.372C-44.6069 228.977 -47.3064 245.629 -47.7164 263.98C-48.1453 283.18 -47.1657 328.624 -19.946 377.16C8.70541 428.249 49.7737 453.619 71.7193 464.833C90.4982 474.43 108.646 480.138 111.431 481.059L175.236 285.483L239.041 89.9064C232.715 87.8141 243.914 91.0551 257.492 97.9938C274.237 106.551 311.853 129.072 338.388 176.387C363.491 221.149 363.69 261.893 363.403 274.731C363.135 286.719 361.501 295.346 362.531 288.529L159.235 256.95ZM175.236 285.483L221.117 84.8644L221.116 84.8642L175.235 285.483L129.355 486.101L129.355 486.101L175.236 285.483Z" fill="url(#paint2_linear_8052_4758)" mask="url(#path-4-inside-1_8052_4758)"/>
<g filter="url(#filter3_d_8052_4758)">
<path d="M66.112 178.537C61.8325 178.537 58.6228 177.689 56.4831 175.994C54.3433 174.257 53.2734 172.158 53.2734 169.695C53.2734 167.879 53.8992 166.607 55.1508 165.88C56.4427 165.113 57.7145 164.729 58.966 164.729C59.6523 164.729 60.3185 164.931 60.9645 165.335C61.6508 165.739 61.994 166.445 61.994 167.455C61.994 168.222 61.6508 168.908 60.9645 169.514C60.3185 170.119 59.5312 170.422 58.6027 170.422C58.0778 170.422 57.553 170.402 57.0281 170.362C56.5436 170.281 56.0995 170.099 55.6958 169.816V170.24C55.6958 172.178 56.5235 173.773 58.1787 175.025C59.8744 176.276 62.6803 176.902 66.5965 176.902C69.3015 176.902 72.067 176.316 74.8931 175.146C77.7192 173.975 80.6664 172.34 83.7348 170.24C85.2285 169.15 86.7022 168.02 88.1556 166.849C89.6494 165.678 91.1835 164.447 92.7581 163.155C86.904 160.975 82.3015 157.947 78.9506 154.071C75.64 150.155 73.8838 146.057 73.6819 141.778C73.5608 138.951 74.1664 136.327 75.4987 133.905C76.831 131.442 78.8496 129.444 81.5546 127.909C84.2596 126.375 87.5702 125.608 91.4863 125.608C96.9367 125.608 101.741 127.223 105.899 130.453C110.058 133.642 113.247 137.599 115.468 142.323L117.103 140.687C124.572 133.218 131.052 126.961 136.542 121.914C142.033 116.867 146.757 112.749 150.713 109.56C154.67 106.33 158.081 103.766 160.948 101.869C163.855 99.9714 166.418 98.4373 168.639 97.2665C171.626 95.6919 174.089 94.622 176.027 94.0568C177.965 93.4916 179.439 93.209 180.448 93.209C181.175 93.209 181.538 93.3907 181.538 93.754C181.538 93.9155 181.134 94.1577 180.327 94.4807C179.721 94.6826 178.853 95.3689 177.723 96.5397C176.592 97.7106 174.937 99.709 172.757 102.535C170.577 105.321 167.589 109.237 163.794 114.284C160.039 119.29 155.235 125.709 149.381 133.541C143.567 141.333 137.416 149.668 128.898 160.892C136.246 158.712 141.67 156.433 147.201 151.709C152.732 146.986 156.668 141.515 159.01 135.298C159.494 134.086 159.817 133.481 159.979 133.481C160.1 133.481 160.282 133.663 160.524 134.026C160.807 134.349 160.948 134.753 160.948 135.237C160.706 138.709 159.716 141.778 157.98 144.442C156.244 147.066 154.165 149.569 151.743 151.951C148.513 155.101 144.657 157.745 140.176 159.885C135.695 161.984 130.951 163.559 125.945 164.608L115.589 178.295C114.337 178.214 113.045 178.133 111.713 178.053C110.421 177.972 109.372 177.931 108.564 177.931C107.878 177.931 107.252 177.972 106.687 178.053C106.162 178.133 105.617 178.214 105.052 178.295C106.586 176.357 108.1 174.48 109.594 172.663C111.087 170.806 112.561 168.989 114.014 167.212C114.337 166.728 114.559 166.344 114.681 166.062C114.035 166.102 113.389 166.143 112.743 166.183C112.137 166.183 111.511 166.183 110.865 166.183C107.918 166.183 105.092 165.981 102.387 165.577C99.7224 165.174 97.2193 164.608 94.8777 163.882C92.0112 166.304 89.4879 168.323 87.3077 169.938C85.168 171.553 83.3108 172.844 81.7363 173.813C79.1524 175.428 76.5686 176.619 73.9847 177.386C71.4008 178.153 68.7766 178.537 66.112 178.537ZM118.072 162.247C129.457 148.278 139.025 136.751 146.777 127.667C154.569 118.583 160.827 111.478 165.55 106.35C170.274 101.183 173.746 97.5693 175.967 95.5102C174.675 96.0351 173.322 96.6003 171.909 97.2059C170.536 97.8115 168.881 98.6997 166.943 99.8705C163.673 101.849 159.878 104.594 155.558 108.107C151.279 111.579 146.232 115.959 140.418 121.248C134.645 126.537 127.903 132.936 120.191 140.445L116.316 144.2C117.123 146.219 117.729 148.298 118.132 150.437C118.577 152.577 118.799 154.717 118.799 156.857C118.799 158.674 118.556 160.47 118.072 162.247ZM94.2115 161.944C96.9972 159.562 99.9848 156.897 103.174 153.95C106.404 150.962 110.038 147.51 114.075 143.594C112.016 138.79 108.988 134.894 104.991 131.906C101.035 128.919 96.5733 127.425 91.6075 127.425C89.0236 127.425 86.6416 128.091 84.4615 129.423C82.3217 130.756 80.6059 132.512 79.3139 134.692C78.0624 136.832 77.4366 139.153 77.4366 141.656C77.4366 145.855 78.8295 149.792 81.6152 153.465C84.4009 157.139 88.5997 159.965 94.2115 161.944ZM111.229 164.487C112.682 164.487 113.127 163.522 114.499 163.401C114.984 162.15 116.295 161.782 116.497 160.49C116.74 159.198 116.861 158.108 116.861 157.22C116.861 153.223 116.195 149.347 114.862 145.593C111.188 149.146 107.797 152.335 104.688 155.161C101.62 157.947 98.8342 160.43 96.3311 162.61C100.732 163.861 105.698 164.487 111.229 164.487Z" fill="white"/>
<path d="M66.112 178.537C61.8325 178.537 58.6228 177.689 56.4831 175.994C54.3433 174.257 53.2734 172.158 53.2734 169.695C53.2734 167.879 53.8992 166.607 55.1508 165.88C56.4427 165.113 57.7145 164.729 58.966 164.729C59.6523 164.729 60.3185 164.931 60.9645 165.335C61.6508 165.739 61.994 166.445 61.994 167.455C61.994 168.222 61.6508 168.908 60.9645 169.514C60.3185 170.119 59.5312 170.422 58.6027 170.422C58.0778 170.422 57.553 170.402 57.0281 170.362C56.5436 170.281 56.0995 170.099 55.6958 169.816V170.24C55.6958 172.178 56.5235 173.773 58.1787 175.025C59.8744 176.276 62.6803 176.902 66.5965 176.902C69.3015 176.902 72.067 176.316 74.8931 175.146C77.7192 173.975 80.6664 172.34 83.7348 170.24C85.2285 169.15 86.7022 168.02 88.1556 166.849C89.6494 165.678 91.1835 164.447 92.7581 163.155C86.904 160.975 82.3015 157.947 78.9506 154.071C75.64 150.155 73.8838 146.057 73.6819 141.778C73.5608 138.951 74.1664 136.327 75.4987 133.905C76.831 131.442 78.8496 129.444 81.5546 127.909C84.2596 126.375 87.5702 125.608 91.4863 125.608C96.9367 125.608 101.741 127.223 105.899 130.453C110.058 133.642 113.247 137.599 115.468 142.323L117.103 140.687C124.572 133.218 131.052 126.961 136.542 121.914C142.033 116.867 146.757 112.749 150.713 109.56C154.67 106.33 158.081 103.766 160.948 101.869C163.855 99.9714 166.418 98.4373 168.639 97.2665C171.626 95.6919 174.089 94.622 176.027 94.0568C177.965 93.4916 179.439 93.209 180.448 93.209C181.175 93.209 181.538 93.3907 181.538 93.754C181.538 93.9155 181.134 94.1577 180.327 94.4807C179.721 94.6826 178.853 95.3689 177.723 96.5397C176.592 97.7106 174.937 99.709 172.757 102.535C170.577 105.321 167.589 109.237 163.794 114.284C160.039 119.29 155.235 125.709 149.381 133.541C143.567 141.333 137.416 149.668 128.898 160.892C136.246 158.712 141.67 156.433 147.201 151.709C152.732 146.986 156.668 141.515 159.01 135.298C159.494 134.086 159.817 133.481 159.979 133.481C160.1 133.481 160.282 133.663 160.524 134.026C160.807 134.349 160.948 134.753 160.948 135.237C160.706 138.709 159.716 141.778 157.98 144.442C156.244 147.066 154.165 149.569 151.743 151.951C148.513 155.101 144.657 157.745 140.176 159.885C135.695 161.984 130.951 163.559 125.945 164.608L115.589 178.295C114.337 178.214 113.045 178.133 111.713 178.053C110.421 177.972 109.372 177.931 108.564 177.931C107.878 177.931 107.252 177.972 106.687 178.053C106.162 178.133 105.617 178.214 105.052 178.295C106.586 176.357 108.1 174.48 109.594 172.663C111.087 170.806 112.561 168.989 114.014 167.212C114.337 166.728 114.559 166.344 114.681 166.062C114.035 166.102 113.389 166.143 112.743 166.183C112.137 166.183 111.511 166.183 110.865 166.183C107.918 166.183 105.092 165.981 102.387 165.577C99.7224 165.174 97.2193 164.608 94.8777 163.882C92.0112 166.304 89.4879 168.323 87.3077 169.938C85.168 171.553 83.3108 172.844 81.7363 173.813C79.1524 175.428 76.5686 176.619 73.9847 177.386C71.4008 178.153 68.7766 178.537 66.112 178.537ZM118.072 162.247C129.457 148.278 139.025 136.751 146.777 127.667C154.569 118.583 160.827 111.478 165.55 106.35C170.274 101.183 173.746 97.5693 175.967 95.5102C174.675 96.0351 173.322 96.6003 171.909 97.2059C170.536 97.8115 168.881 98.6997 166.943 99.8705C163.673 101.849 159.878 104.594 155.558 108.107C151.279 111.579 146.232 115.959 140.418 121.248C134.645 126.537 127.903 132.936 120.191 140.445L116.316 144.2C117.123 146.219 117.729 148.298 118.132 150.437C118.577 152.577 118.799 154.717 118.799 156.857C118.799 158.674 118.556 160.47 118.072 162.247ZM94.2115 161.944C96.9972 159.562 99.9848 156.897 103.174 153.95C106.404 150.962 110.038 147.51 114.075 143.594C112.016 138.79 108.988 134.894 104.991 131.906C101.035 128.919 96.5733 127.425 91.6075 127.425C89.0236 127.425 86.6416 128.091 84.4615 129.423C82.3217 130.756 80.6059 132.512 79.3139 134.692C78.0624 136.832 77.4366 139.153 77.4366 141.656C77.4366 145.855 78.8295 149.792 81.6152 153.465C84.4009 157.139 88.5997 159.965 94.2115 161.944ZM111.229 164.487C112.682 164.487 113.127 163.522 114.499 163.401C114.984 162.15 116.295 161.782 116.497 160.49C116.74 159.198 116.861 158.108 116.861 157.22C116.861 153.223 116.195 149.347 114.862 145.593C111.188 149.146 107.797 152.335 104.688 155.161C101.62 157.947 98.8342 160.43 96.3311 162.61C100.732 163.861 105.698 164.487 111.229 164.487Z" fill="url(#paint3_linear_8052_4758)"/>
<path d="M123.553 239.839C131.243 239.839 136.907 238.144 140.545 234.754C144.183 231.364 146.002 225.99 146.002 218.631C146.002 211.272 143.935 206.187 139.801 203.376C135.666 200.564 129.258 199.159 120.577 199.159L110.977 199.583V240.264L123.553 239.839ZM143.025 176.462C143.025 166.375 137.031 161.331 125.042 161.331C119.171 161.331 114.251 162.861 110.283 165.92C109.042 166.829 108.05 167.946 107.306 169.269C106.644 170.592 106.314 171.666 106.314 172.493C106.172 173.453 106.988 175.092 107.801 174.859C108.463 174.859 111.99 174.271 112.238 173.61C113.23 171.046 111.605 168.773 114.499 168.773C116.318 168.773 117.848 169.434 119.088 170.757C120.411 172.08 121.073 173.899 121.073 176.214C121.073 178.529 120.246 180.39 118.592 181.795C116.939 183.201 114.954 183.904 112.639 183.904C110.324 183.904 108.257 182.994 106.438 181.175C104.701 179.356 103.833 177.041 103.833 174.23C103.833 169.765 105.983 166.085 110.283 163.191C114.582 160.215 120.783 158.726 128.886 158.726C136.989 158.726 143.687 160.173 148.978 163.067C154.27 165.961 156.916 170.302 156.916 176.09C156.916 181.795 154.973 186.467 151.087 190.105C147.201 193.743 142.074 196.182 135.708 197.422V198.167C142.901 198.332 148.73 200.027 153.195 203.252C157.66 206.476 159.893 211.272 159.893 217.639C159.893 233.762 148.4 241.823 125.414 241.823H95.7716V240.884L104.825 240.529V194.074C109.704 195.479 115.492 196.182 122.189 196.182C128.969 196.182 134.137 194.363 137.692 190.725C141.248 187.004 143.025 182.25 143.025 176.462Z" fill="white"/>
<path d="M123.553 239.839C131.243 239.839 136.907 238.144 140.545 234.754C144.183 231.364 146.002 225.99 146.002 218.631C146.002 211.272 143.935 206.187 139.801 203.376C135.666 200.564 129.258 199.159 120.577 199.159L110.977 199.583V240.264L123.553 239.839ZM143.025 176.462C143.025 166.375 137.031 161.331 125.042 161.331C119.171 161.331 114.251 162.861 110.283 165.92C109.042 166.829 108.05 167.946 107.306 169.269C106.644 170.592 106.314 171.666 106.314 172.493C106.172 173.453 106.988 175.092 107.801 174.859C108.463 174.859 111.99 174.271 112.238 173.61C113.23 171.046 111.605 168.773 114.499 168.773C116.318 168.773 117.848 169.434 119.088 170.757C120.411 172.08 121.073 173.899 121.073 176.214C121.073 178.529 120.246 180.39 118.592 181.795C116.939 183.201 114.954 183.904 112.639 183.904C110.324 183.904 108.257 182.994 106.438 181.175C104.701 179.356 103.833 177.041 103.833 174.23C103.833 169.765 105.983 166.085 110.283 163.191C114.582 160.215 120.783 158.726 128.886 158.726C136.989 158.726 143.687 160.173 148.978 163.067C154.27 165.961 156.916 170.302 156.916 176.09C156.916 181.795 154.973 186.467 151.087 190.105C147.201 193.743 142.074 196.182 135.708 197.422V198.167C142.901 198.332 148.73 200.027 153.195 203.252C157.66 206.476 159.893 211.272 159.893 217.639C159.893 233.762 148.4 241.823 125.414 241.823H95.7716V240.884L104.825 240.529V194.074C109.704 195.479 115.492 196.182 122.189 196.182C128.969 196.182 134.137 194.363 137.692 190.725C141.248 187.004 143.025 182.25 143.025 176.462Z" fill="url(#paint4_linear_8052_4758)"/>
<path d="M101.049 309.516C94.6148 309.516 88.7775 308.223 83.5371 305.636C78.3631 302.982 74.2504 299.069 71.199 293.895C68.1477 288.72 66.622 282.386 66.622 274.89C66.622 269.185 67.5507 264.177 69.408 259.865C71.2654 255.554 73.786 251.938 76.9701 249.02C80.2204 246.101 83.9351 243.912 88.1141 242.453C92.3595 240.993 96.837 240.264 101.547 240.264C105.328 240.264 108.81 240.695 111.994 241.557C115.178 242.42 116.862 239.142 119.648 240.667V257.432H118.492L115.377 249.418C114.714 248.157 113.984 247.03 113.188 246.035C112.392 244.973 111.397 244.177 110.203 243.647C109.208 243.182 108.213 242.851 107.218 242.652C106.29 242.386 105.096 242.254 103.636 242.254C99.7889 242.254 96.2732 243.282 93.0892 245.338C89.9715 247.395 87.4508 250.811 85.5271 255.587C83.6698 260.297 82.7411 266.764 82.7411 274.989C82.7411 283.148 83.6366 289.616 85.4276 294.392C87.2186 299.102 89.6398 302.485 92.6911 304.541C95.8088 306.531 99.2914 307.526 103.139 307.526C105.261 307.526 106.953 307.393 108.213 307.128C109.474 306.796 110.734 306.332 111.994 305.735C113.255 305.204 114.216 304.442 114.88 303.447C115.543 302.385 116.14 301.258 116.671 300.064L121.049 290.313H122.044L121.745 304.541C118.959 306 115.842 307.194 112.392 308.123C108.943 309.052 105.162 309.516 101.049 309.516Z" fill="white"/>
<path d="M101.049 309.516C94.6148 309.516 88.7775 308.223 83.5371 305.636C78.3631 302.982 74.2504 299.069 71.199 293.895C68.1477 288.72 66.622 282.386 66.622 274.89C66.622 269.185 67.5507 264.177 69.408 259.865C71.2654 255.554 73.786 251.938 76.9701 249.02C80.2204 246.101 83.9351 243.912 88.1141 242.453C92.3595 240.993 96.837 240.264 101.547 240.264C105.328 240.264 108.81 240.695 111.994 241.557C115.178 242.42 116.862 239.142 119.648 240.667V257.432H118.492L115.377 249.418C114.714 248.157 113.984 247.03 113.188 246.035C112.392 244.973 111.397 244.177 110.203 243.647C109.208 243.182 108.213 242.851 107.218 242.652C106.29 242.386 105.096 242.254 103.636 242.254C99.7889 242.254 96.2732 243.282 93.0892 245.338C89.9715 247.395 87.4508 250.811 85.5271 255.587C83.6698 260.297 82.7411 266.764 82.7411 274.989C82.7411 283.148 83.6366 289.616 85.4276 294.392C87.2186 299.102 89.6398 302.485 92.6911 304.541C95.8088 306.531 99.2914 307.526 103.139 307.526C105.261 307.526 106.953 307.393 108.213 307.128C109.474 306.796 110.734 306.332 111.994 305.735C113.255 305.204 114.216 304.442 114.88 303.447C115.543 302.385 116.14 301.258 116.671 300.064L121.049 290.313H122.044L121.745 304.541C118.959 306 115.842 307.194 112.392 308.123C108.943 309.052 105.162 309.516 101.049 309.516Z" fill="url(#paint5_linear_8052_4758)"/>
</g>
<defs>
<filter id="filter0_d_8052_4758" x="23.8374" y="426.15" width="182.196" height="105.778" filterUnits="userSpaceOnUse" color-interpolation-filters="sRGB">
<feFlood flood-opacity="0" result="BackgroundImageFix"/>
<feColorMatrix in="SourceAlpha" type="matrix" values="0 0 0 0 0 0 0 0 0 0 0 0 0 0 0 0 0 0 127 0" result="hardAlpha"/>
<feOffset dy="4.01028"/>
<feGaussianBlur stdDeviation="2.00514"/>
<feComposite in2="hardAlpha" operator="out"/>
<feColorMatrix type="matrix" values="0 0 0 0 0 0 0 0 0 0 0 0 0 0 0 0 0 0 0.25 0"/>
<feBlend mode="normal" in2="BackgroundImageFix" result="effect1_dropShadow_8052_4758"/>
<feBlend mode="normal" in="SourceGraphic" in2="effect1_dropShadow_8052_4758" result="shape"/>
</filter>
<filter id="filter1_i_8052_4758" x="0" y="0" width="229.41" height="405.376" filterUnits="userSpaceOnUse" color-interpolation-filters="sRGB">
<feFlood flood-opacity="0" result="BackgroundImageFix"/>
<feBlend mode="normal" in="SourceGraphic" in2="BackgroundImageFix" result="shape"/>
<feColorMatrix in="SourceAlpha" type="matrix" values="0 0 0 0 0 0 0 0 0 0 0 0 0 0 0 0 0 0 127 0" result="hardAlpha"/>
<feOffset dy="1.00257"/>
<feGaussianBlur stdDeviation="0.501285"/>
<feComposite in2="hardAlpha" operator="arithmetic" k2="-1" k3="1"/>
<feColorMatrix type="matrix" values="0 0 0 0 0 0 0 0 0 0 0 0 0 0 0 0 0 0 0.25 0"/>
<feBlend mode="normal" in2="shape" result="effect1_innerShadow_8052_4758"/>
</filter>
<filter id="filter2_i_8052_4758" x="13.2109" y="16.2568" width="202.98" height="373.391" filterUnits="userSpaceOnUse" color-interpolation-filters="sRGB">
<feFlood flood-opacity="0" result="BackgroundImageFix"/>
<feBlend mode="normal" in="SourceGraphic" in2="BackgroundImageFix" result="shape"/>
<feColorMatrix in="SourceAlpha" type="matrix" values="0 0 0 0 0 0 0 0 0 0 0 0 0 0 0 0 0 0 127 0" result="hardAlpha"/>
<feOffset dy="1.52931"/>
<feGaussianBlur stdDeviation="0.764656"/>
<feComposite in2="hardAlpha" operator="arithmetic" k2="-1" k3="1"/>
<feColorMatrix type="matrix" values="0 0 0 0 0 0 0 0 0 0 0 0 0 0 0 0 0 0 0.2 0"/>
<feBlend mode="normal" in2="shape" result="effect1_innerShadow_8052_4758"/>
</filter>
<filter id="filter3_d_8052_4758" x="48.6488" y="93.209" width="137.515" height="225.557" filterUnits="userSpaceOnUse" color-interpolation-filters="sRGB">
<feFlood flood-opacity="0" result="BackgroundImageFix"/>
<feColorMatrix in="SourceAlpha" type="matrix" values="0 0 0 0 0 0 0 0 0 0 0 0 0 0 0 0 0 0 127 0" result="hardAlpha"/>
<feOffset dy="4.62467"/>
<feGaussianBlur stdDeviation="2.31234"/>
<feComposite in2="hardAlpha" operator="out"/>
<feColorMatrix type="matrix" values="0 0 0 0 0 0 0 0 0 0 0 0 0 0 0 0 0 0 0.25 0"/>
<feBlend mode="normal" in2="BackgroundImageFix" result="effect1_dropShadow_8052_4758"/>
<feBlend mode="normal" in="SourceGraphic" in2="effect1_dropShadow_8052_4758" result="shape"/>
</filter>
<linearGradient id="paint0_linear_8052_4758" x1="105.541" y1="409.979" x2="105.541" y2="-6.16542" gradientUnits="userSpaceOnUse">
<stop offset="0.0917226" stop-color="#F3E19D"/>
<stop offset="0.530182" stop-color="#F4F2C4"/>
<stop offset="1" stop-color="#F3E19D"/>
</linearGradient>
<linearGradient id="paint1_linear_8052_4758" x1="106.594" y1="403.771" x2="106.594" y2="-9.50355" gradientUnits="userSpaceOnUse">
<stop stop-color="#042284"/>
<stop offset="0.579478" stop-color="#3450B0"/>
<stop offset="1" stop-color="#457BCA"/>
</linearGradient>
<linearGradient id="paint2_linear_8052_4758" x1="181.826" y1="262.719" x2="168.155" y2="309.777" gradientUnits="userSpaceOnUse">
<stop stop-color="#F5F9CD"/>
<stop offset="0.3" stop-color="#FFDD77"/>
<stop offset="0.542226" stop-color="#F5F9CD"/>
<stop offset="0.943534" stop-color="#FFDD77"/>
</linearGradient>
<linearGradient id="paint3_linear_8052_4758" x1="185.479" y1="95.4039" x2="167.462" y2="313.687" gradientUnits="userSpaceOnUse">
<stop stop-color="#F5F9CD"/>
<stop offset="0.3" stop-color="#FFDD77"/>
<stop offset="0.542226" stop-color="#F5F9CD"/>
<stop offset="0.943534" stop-color="#FFDD77"/>
</linearGradient>
<linearGradient id="paint4_linear_8052_4758" x1="185.479" y1="95.4039" x2="167.462" y2="313.687" gradientUnits="userSpaceOnUse">
<stop stop-color="#F5F9CD"/>
<stop offset="0.3" stop-color="#FFDD77"/>
<stop offset="0.542226" stop-color="#F5F9CD"/>
<stop offset="0.943534" stop-color="#FFDD77"/>
</linearGradient>
<linearGradient id="paint5_linear_8052_4758" x1="185.479" y1="95.4039" x2="167.462" y2="313.687" gradientUnits="userSpaceOnUse">
<stop stop-color="#F5F9CD"/>
<stop offset="0.3" stop-color="#FFDD77"/>
<stop offset="0.542226" stop-color="#F5F9CD"/>
<stop offset="0.943534" stop-color="#FFDD77"/>
</linearGradient>
</defs>
</svg>
